<svg width="238" height="55" viewBox="0 0 238 55" fill="none" xmlns="http://www.w3.org/2000/svg">
<g filter="url(#filter0_f_125_4)">
<path d="M4.95215 12.88V7.35998H28.9521V12.88H19.8321V40H14.0721V12.88H4.95215ZM45.6606 20.704C44.1566 20.704 42.7166 20.944 41.3406 21.424C39.9966 21.872 38.7006 22.608 37.4526 23.632V40H31.9326V15.664H37.1646V19.408C38.7966 17.872 40.2526 16.784 41.5326 16.144C42.8126 15.504 44.1886 15.184 45.6606 15.184V20.704ZM68.9271 40.24C67.2951 40.24 65.9831 39.904 64.9911 39.232C64.0311 38.56 63.3271 37.728 62.8791 36.736C61.5031 38.016 60.1751 38.96 58.8951 39.568C57.6151 40.176 56.2391 40.48 54.7671 40.48C52.6231 40.48 51.0391 39.792 50.0151 38.416C49.0231 37.04 48.5271 35.296 48.5271 33.184C48.5271 31.776 48.7831 30.544 49.2951 29.488C49.8391 28.4 50.7191 27.552 51.9351 26.944C53.1511 26.336 54.8151 26.032 56.9271 26.032C57.7591 26.032 58.6231 26.096 59.5191 26.224C60.4151 26.32 61.3111 26.448 62.2071 26.608V23.776C62.2071 22.432 61.8391 21.52 61.1031 21.04C60.3671 20.528 59.3751 20.272 58.1271 20.272C57.1671 20.272 56.1111 20.4 54.9591 20.656C53.8391 20.912 52.6231 21.312 51.3111 21.856L49.7271 17.152C52.9591 15.84 55.8871 15.184 58.5111 15.184C60.8791 15.184 62.7031 15.584 63.9831 16.384C65.2951 17.184 66.2071 18.24 66.7191 19.552C67.2311 20.864 67.4871 22.272 67.4871 23.776V33.136C67.4871 33.616 67.6151 34.08 67.8711 34.528C68.1591 34.944 68.7031 35.152 69.5031 35.152H70.0311V40.24H68.9271ZM53.8551 33.088C53.8551 33.952 54.0471 34.64 54.4311 35.152C54.8151 35.632 55.3751 35.872 56.1111 35.872C56.8471 35.872 57.6791 35.68 58.6071 35.296C59.5351 34.912 60.7351 34.016 62.2071 32.608V30.544C60.5431 30.256 58.9111 30.112 57.3111 30.112C56.0631 30.112 55.1671 30.368 54.6231 30.88C54.1111 31.392 53.8551 32.128 53.8551 33.088ZM93.4641 15.664L84.8241 40H79.7841L71.1441 15.664H76.7121L80.8881 27.808L82.4721 32.848L84.0081 27.808L87.9921 15.664H93.4641ZM116.085 38.608C114.421 39.28 112.853 39.76 111.381 40.048C109.909 40.336 108.517 40.48 107.205 40.48C103.589 40.48 100.853 39.456 98.9965 37.408C97.1405 35.36 96.2125 32.64 96.2125 29.248V26.368C96.2125 24.096 96.6285 22.128 97.4605 20.464C98.2925 18.8 99.4765 17.504 101.013 16.576C102.549 15.648 104.357 15.184 106.437 15.184C108.133 15.184 109.717 15.536 111.189 16.24C112.693 16.912 113.909 17.984 114.837 19.456C115.797 20.896 116.277 22.752 116.277 25.024C116.277 25.696 116.229 26.416 116.133 27.184C116.037 27.92 115.877 28.704 115.653 29.536H101.541C101.605 31.52 102.101 33.008 103.029 34C103.957 34.992 105.445 35.488 107.493 35.488C108.581 35.488 109.701 35.36 110.853 35.104C112.037 34.848 113.253 34.464 114.501 33.952L116.085 38.608ZM106.437 19.84C104.965 19.84 103.813 20.32 102.981 21.28C102.181 22.208 101.717 23.552 101.589 25.312H110.805C110.837 25.152 110.853 25.008 110.853 24.88C110.853 24.72 110.853 24.576 110.853 24.448C110.853 22.912 110.421 21.76 109.557 20.992C108.693 20.224 107.653 19.84 106.437 19.84ZM122.492 33.136V4.47998H128.012V33.136C128.012 33.616 128.124 34.08 128.348 34.528C128.604 34.944 129.084 35.152 129.788 35.152H130.556V40.24H129.212C127.388 40.24 125.996 39.888 125.036 39.184C124.076 38.48 123.404 37.584 123.02 36.496C122.668 35.408 122.492 34.288 122.492 33.136ZM146.231 40V7.35998H156.167C158.599 7.35998 160.519 7.71198 161.927 8.41598C163.367 9.11998 164.391 10.112 164.999 11.392C165.639 12.672 165.959 14.176 165.959 15.904V17.248C165.959 19.776 164.871 21.712 162.695 23.056C164.231 23.664 165.399 24.544 166.199 25.696C166.999 26.848 167.399 28.224 167.399 29.824V31.168C167.399 32.928 167.079 34.48 166.439 35.824C165.799 37.136 164.743 38.16 163.271 38.896C161.799 39.632 159.831 40 157.367 40H146.231ZM156.167 12.64H151.991V20.8H156.167C157.447 20.8 158.407 20.512 159.047 19.936C159.719 19.328 160.055 18.512 160.055 17.488V15.904C160.055 14.88 159.719 14.08 159.047 13.504C158.407 12.928 157.447 12.64 156.167 12.64ZM157.367 26.08H151.991V34.72H157.367C158.711 34.72 159.735 34.4 160.439 33.76C161.143 33.12 161.495 32.256 161.495 31.168V29.584C161.495 28.496 161.143 27.648 160.439 27.04C159.735 26.4 158.711 26.08 157.367 26.08ZM173.445 33.136V4.47998H178.965V33.136C178.965 33.616 179.077 34.08 179.301 34.528C179.557 34.944 180.037 35.152 180.741 35.152H181.509V40.24H180.165C178.341 40.24 176.949 39.888 175.989 39.184C175.029 38.48 174.357 37.584 173.973 36.496C173.621 35.408 173.445 34.288 173.445 33.136ZM206.775 26.368V29.248C206.775 32.64 205.847 35.36 203.991 37.408C202.135 39.456 199.511 40.48 196.119 40.48C192.727 40.48 190.103 39.456 188.247 37.408C186.391 35.36 185.463 32.64 185.463 29.248V26.368C185.463 22.976 186.375 20.272 188.199 18.256C190.055 16.208 192.695 15.184 196.119 15.184C199.543 15.184 202.167 16.208 203.991 18.256C205.847 20.272 206.775 22.976 206.775 26.368ZM201.111 26.368C201.111 24.416 200.679 22.896 199.815 21.808C198.951 20.688 197.719 20.128 196.119 20.128C194.519 20.128 193.287 20.688 192.423 21.808C191.559 22.896 191.127 24.416 191.127 26.368V29.248C191.127 31.2 191.559 32.736 192.423 33.856C193.287 34.976 194.519 35.536 196.119 35.536C197.719 35.536 198.951 34.976 199.815 33.856C200.679 32.736 201.111 31.2 201.111 29.248V26.368ZM233.172 42.448C233.172 45.04 232.148 47.056 230.1 48.496C228.084 49.968 225.268 50.704 221.652 50.704C219.956 50.704 218.164 50.512 216.276 50.128C214.388 49.744 212.644 49.104 211.044 48.208L212.628 43.84C214.164 44.608 215.684 45.152 217.188 45.472C218.692 45.824 220.164 46 221.604 46C223.62 46 225.156 45.728 226.212 45.184C227.268 44.64 227.796 43.92 227.796 43.024C227.796 41.648 226.98 40.96 225.348 40.96H219.588C218.02 40.96 216.756 40.704 215.796 40.192C214.836 39.68 214.132 39.024 213.684 38.224C213.236 37.392 213.012 36.528 213.012 35.632C213.012 34.704 213.204 33.84 213.588 33.04C214.004 32.208 214.564 31.44 215.268 30.736C214.116 30.032 213.188 29.088 212.484 27.904C211.812 26.72 211.476 25.296 211.476 23.632C211.476 21.744 211.876 20.176 212.676 18.928C213.476 17.68 214.564 16.752 215.94 16.144C217.348 15.504 218.9 15.184 220.596 15.184H221.412C222.052 15.184 222.676 15.232 223.284 15.328C223.892 15.392 224.468 15.504 225.012 15.664H233.7V20.368L228.9 19.6C229.38 20.112 229.748 20.752 230.004 21.52C230.292 22.256 230.436 23.168 230.436 24.256C230.436 25.888 230.02 27.296 229.188 28.48C228.388 29.632 227.3 30.528 225.924 31.168C224.58 31.776 223.076 32.08 221.412 32.08H220.596C219.956 32.08 219.348 32.032 218.772 31.936C218.42 32.32 218.164 32.72 218.004 33.136C217.844 33.52 217.764 33.888 217.764 34.24C217.764 35.36 218.484 35.92 219.924 35.92H225.78C227.988 35.92 229.764 36.496 231.108 37.648C232.484 38.768 233.172 40.368 233.172 42.448ZM221.412 27.568C222.404 27.568 223.268 27.232 224.004 26.56C224.772 25.888 225.156 24.912 225.156 23.632C225.156 22.352 224.772 21.376 224.004 20.704C223.268 20.032 222.404 19.696 221.412 19.696H220.596C219.572 19.696 218.676 20.032 217.908 20.704C217.172 21.376 216.804 22.352 216.804 23.632C216.804 24.912 217.172 25.888 217.908 26.56C218.676 27.232 219.572 27.568 220.596 27.568H221.412Z" fill="#2D319E"/>
<path d="M4.95215 12.88H3.95215V13.88H4.95215V12.88ZM4.95215 7.35998V6.35998H3.95215V7.35998H4.95215ZM28.9521 7.35998H29.9521V6.35998H28.9521V7.35998ZM28.9521 12.88V13.88H29.9521V12.88H28.9521ZM19.8321 12.88V11.88H18.8321V12.88H19.8321ZM19.8321 40V41H20.8321V40H19.8321ZM14.0721 40H13.0721V41H14.0721V40ZM14.0721 12.88H15.0721V11.88H14.0721V12.88ZM5.95215 12.88V7.35998H3.95215V12.88H5.95215ZM4.95215 8.35998H28.9521V6.35998H4.95215V8.35998ZM27.9521 7.35998V12.88H29.9521V7.35998H27.9521ZM28.9521 11.88H19.8321V13.88H28.9521V11.88ZM18.8321 12.88V40H20.8321V12.88H18.8321ZM19.8321 39H14.0721V41H19.8321V39ZM15.0721 40V12.88H13.0721V40H15.0721ZM14.0721 11.88H4.95215V13.88H14.0721V11.88ZM45.6606 20.704V21.704H46.6606V20.704H45.6606ZM41.3406 21.424L41.6569 22.3728L41.67 22.3682L41.3406 21.424ZM37.4526 23.632L36.8183 22.8589L36.4526 23.159V23.632H37.4526ZM37.4526 40V41H38.4526V40H37.4526ZM31.9326 40H30.9326V41H31.9326V40ZM31.9326 15.664V14.664H30.9326V15.664H31.9326ZM37.1646 15.664H38.1646V14.664H37.1646V15.664ZM37.1646 19.408H36.1646V21.7224L37.85 20.1362L37.1646 19.408ZM45.6606 15.184H46.6606V14.184H45.6606V15.184ZM45.6606 19.704C44.0481 19.704 42.4965 19.9617 41.0113 20.4798L41.67 22.3682C42.9367 21.9263 44.2651 21.704 45.6606 21.704V19.704ZM41.0244 20.4753C39.5495 20.9669 38.1477 21.7682 36.8183 22.8589L38.0869 24.4051C39.2536 23.4478 40.4437 22.7772 41.6569 22.3728L41.0244 20.4753ZM36.4526 23.632V40H38.4526V23.632H36.4526ZM37.4526 39H31.9326V41H37.4526V39ZM32.9326 40V15.664H30.9326V40H32.9326ZM31.9326 16.664H37.1646V14.664H31.9326V16.664ZM36.1646 15.664V19.408H38.1646V15.664H36.1646ZM37.85 20.1362C39.4464 18.6337 40.8216 17.6175 41.9798 17.0384L41.0854 15.2496C39.6837 15.9504 38.1469 17.1103 36.4793 18.6798L37.85 20.1362ZM41.9798 17.0384C43.1169 16.4699 44.3393 16.184 45.6606 16.184V14.184C44.038 14.184 42.5083 14.5381 41.0854 15.2496L41.9798 17.0384ZM44.6606 15.184V20.704H46.6606V15.184H44.6606ZM64.9911 39.232L64.4177 40.0512L64.4239 40.0556L64.4303 40.0599L64.9911 39.232ZM62.8791 36.736L63.7905 36.3244L63.2174 35.0555L62.198 36.0038L62.8791 36.736ZM50.0151 38.416L49.2039 39.0008L49.2084 39.0069L49.2129 39.013L50.0151 38.416ZM49.2951 29.488L48.4006 29.0408L48.3953 29.0517L49.2951 29.488ZM59.5191 26.224L59.3777 27.2139L59.3951 27.2164L59.4126 27.2183L59.5191 26.224ZM62.2071 26.608L62.0313 27.5924L63.2071 27.8024V26.608H62.2071ZM61.1031 21.04L60.5321 21.8609L60.5443 21.8694L60.5569 21.8776L61.1031 21.04ZM54.9591 20.656L54.7422 19.6798L54.7363 19.6811L54.9591 20.656ZM51.3111 21.856L50.3634 22.1751L50.7051 23.1898L51.6941 22.7797L51.3111 21.856ZM49.7271 17.152L49.351 16.2254L48.4791 16.5794L48.7794 17.4711L49.7271 17.152ZM63.9831 16.384L63.4531 17.232L63.4625 17.2378L63.9831 16.384ZM67.8711 34.528L67.0029 35.0241L67.0243 35.0617L67.0489 35.0972L67.8711 34.528ZM70.0311 35.152H71.0311V34.152H70.0311V35.152ZM70.0311 40.24V41.24H71.0311V40.24H70.0311ZM54.4311 35.152L53.6311 35.752L53.6405 35.7645L53.6503 35.7767L54.4311 35.152ZM62.2071 32.608L62.8983 33.3306L63.2071 33.0353V32.608H62.2071ZM62.2071 30.544H63.2071V29.7022L62.3777 29.5586L62.2071 30.544ZM54.6231 30.88L53.9378 30.1518L53.9267 30.1622L53.916 30.1729L54.6231 30.88ZM68.9271 39.24C67.4245 39.24 66.3283 38.93 65.552 38.4041L64.4303 40.0599C65.6379 40.878 67.1657 41.24 68.9271 41.24V39.24ZM65.5646 38.4128C64.7401 37.8356 64.1589 37.1401 63.7905 36.3244L61.9678 37.1476C62.4954 38.3159 63.3221 39.2844 64.4177 40.0512L65.5646 38.4128ZM62.198 36.0038C60.874 37.2355 59.6293 38.1122 58.4661 38.6647L59.3242 40.4713C60.7209 39.8078 62.1323 38.7965 63.5602 37.4682L62.198 36.0038ZM58.4661 38.6647C57.3254 39.2065 56.0966 39.48 54.7671 39.48V41.48C56.3816 41.48 57.9049 41.1455 59.3242 40.4713L58.4661 38.6647ZM54.7671 39.48C52.8514 39.48 51.6058 38.8784 50.8174 37.819L49.2129 39.013C50.4725 40.7056 52.3948 41.48 54.7671 41.48V39.48ZM50.8263 37.8312C49.9843 36.6633 49.5271 35.1381 49.5271 33.184H47.5271C47.5271 35.4539 48.0619 37.4167 49.2039 39.0008L50.8263 37.8312ZM49.5271 33.184C49.5271 31.8973 49.7607 30.8198 50.1949 29.9243L48.3953 29.0517C47.8055 30.2682 47.5271 31.6547 47.5271 33.184H49.5271ZM50.1896 29.9352C50.6255 29.0634 51.3359 28.3616 52.3823 27.8384L51.4879 26.0496C50.1023 26.7424 49.0527 27.7366 48.4006 29.0408L50.1896 29.9352ZM52.3823 27.8384C53.4036 27.3278 54.8928 27.032 56.9271 27.032V25.032C54.7375 25.032 52.8986 25.3442 51.4879 26.0496L52.3823 27.8384ZM56.9271 27.032C57.7079 27.032 58.5245 27.0921 59.3777 27.2139L59.6605 25.2341C58.7217 25.0999 57.8104 25.032 56.9271 25.032V27.032ZM59.4126 27.2183C60.2852 27.3118 61.1581 27.4365 62.0313 27.5924L62.3829 25.6236C61.4642 25.4595 60.5451 25.3282 59.6257 25.2297L59.4126 27.2183ZM63.2071 26.608V23.776H61.2071V26.608H63.2071ZM63.2071 23.776C63.2071 22.2828 62.7966 20.9506 61.6494 20.2024L60.5569 21.8776C60.8816 22.0894 61.2071 22.5812 61.2071 23.776H63.2071ZM61.6742 20.2191C60.7165 19.5529 59.5017 19.272 58.1271 19.272V21.272C59.2485 21.272 60.0177 21.5031 60.5321 21.8609L61.6742 20.2191ZM58.1271 19.272C57.0798 19.272 55.9499 19.4114 54.7422 19.6798L55.1761 21.6322C56.2724 21.3886 57.2545 21.272 58.1271 21.272V19.272ZM54.7363 19.6811C53.5506 19.9522 52.2804 20.3716 50.9281 20.9323L51.6941 22.7797C52.9659 22.2524 54.1277 21.8718 55.182 21.6309L54.7363 19.6811ZM52.2588 21.5369L50.6748 16.8329L48.7794 17.4711L50.3634 22.1751L52.2588 21.5369ZM50.1033 18.0786C53.253 16.8 56.0509 16.184 58.5111 16.184V14.184C55.7234 14.184 52.6653 14.88 49.351 16.2254L50.1033 18.0786ZM58.5111 16.184C60.7893 16.184 62.3984 16.5728 63.4531 17.232L64.5131 15.536C63.0079 14.5952 60.9689 14.184 58.5111 14.184V16.184ZM63.4625 17.2378C64.6056 17.9348 65.3625 18.8264 65.7875 19.9155L67.6507 19.1885C67.0517 17.6536 65.9847 16.4332 64.5037 15.5302L63.4625 17.2378ZM65.7875 19.9155C66.2513 21.104 66.4871 22.3879 66.4871 23.776H68.4871C68.4871 22.1561 68.2109 20.624 67.6507 19.1885L65.7875 19.9155ZM66.4871 23.776V33.136H68.4871V23.776H66.4871ZM66.4871 33.136C66.4871 33.803 66.6672 34.4367 67.0029 35.0241L68.7394 34.0319C68.563 33.7233 68.4871 33.429 68.4871 33.136H66.4871ZM67.0489 35.0972C67.6128 35.9117 68.5711 36.152 69.5031 36.152V34.152C68.8351 34.152 68.7054 33.9763 68.6933 33.9588L67.0489 35.0972ZM69.5031 36.152H70.0311V34.152H69.5031V36.152ZM69.0311 35.152V40.24H71.0311V35.152H69.0311ZM70.0311 39.24H68.9271V41.24H70.0311V39.24ZM52.8551 33.088C52.8551 34.0935 53.0786 35.0153 53.6311 35.752L55.2311 34.552C55.0156 34.2647 54.8551 33.8105 54.8551 33.088H52.8551ZM53.6503 35.7767C54.2621 36.5415 55.138 36.872 56.1111 36.872V34.872C55.6123 34.872 55.3682 34.7225 55.212 34.5273L53.6503 35.7767ZM56.1111 36.872C57.0167 36.872 57.9817 36.637 58.9895 36.22L58.2248 34.372C57.3766 34.723 56.6775 34.872 56.1111 34.872V36.872ZM58.9895 36.22C60.0982 35.7612 61.4096 34.7546 62.8983 33.3306L61.5159 31.8854C60.0606 33.2774 58.9721 34.0628 58.2248 34.372L58.9895 36.22ZM63.2071 32.608V30.544H61.2071V32.608H63.2071ZM62.3777 29.5586C60.6604 29.2614 58.9713 29.112 57.3111 29.112V31.112C58.8509 31.112 60.4258 31.2506 62.0366 31.5293L62.3777 29.5586ZM57.3111 29.112C55.9683 29.112 54.7578 29.38 53.9378 30.1518L55.3085 31.6082C55.5765 31.356 56.1579 31.112 57.3111 31.112V29.112ZM53.916 30.1729C53.1615 30.9274 52.8551 31.9522 52.8551 33.088H54.8551C54.8551 32.3038 55.0607 31.8566 55.3302 31.5871L53.916 30.1729ZM93.4641 15.664L94.4065 15.9986L94.8803 14.664H93.4641V15.664ZM84.8241 40V41H85.5302L85.7665 40.3346L84.8241 40ZM79.7841 40L78.8418 40.3346L79.078 41H79.7841V40ZM71.1441 15.664V14.664H69.7279L70.2018 15.9986L71.1441 15.664ZM76.7121 15.664L77.6578 15.3388L77.4257 14.664H76.7121V15.664ZM80.8881 27.808L81.8421 27.5082L81.8381 27.4954L81.8338 27.4828L80.8881 27.808ZM82.4721 32.848L81.5181 33.1478L82.4868 36.23L83.4287 33.1395L82.4721 32.848ZM84.0081 27.808L83.058 27.4963L83.0547 27.5063L83.0516 27.5165L84.0081 27.808ZM87.9921 15.664V14.664H87.2678L87.042 15.3523L87.9921 15.664ZM92.5218 15.3294L83.8818 39.6654L85.7665 40.3346L94.4065 15.9986L92.5218 15.3294ZM84.8241 39H79.7841V41H84.8241V39ZM80.7265 39.6654L72.0865 15.3294L70.2018 15.9986L78.8418 40.3346L80.7265 39.6654ZM71.1441 16.664H76.7121V14.664H71.1441V16.664ZM75.7665 15.9892L79.9425 28.1332L81.8338 27.4828L77.6578 15.3388L75.7665 15.9892ZM79.9341 28.1078L81.5181 33.1478L83.4261 32.5482L81.8421 27.5082L79.9341 28.1078ZM83.4287 33.1395L84.9647 28.0995L83.0516 27.5165L81.5156 32.5565L83.4287 33.1395ZM84.9583 28.1197L88.9423 15.9757L87.042 15.3523L83.058 27.4963L84.9583 28.1197ZM87.9921 16.664H93.4641V14.664H87.9921V16.664ZM116.085 38.608L116.459 39.5352L117.336 39.1811L117.031 38.2859L116.085 38.608ZM111.189 16.24L110.757 17.1421L110.769 17.1477L110.781 17.153L111.189 16.24ZM114.837 19.456L113.991 19.9893L113.997 20.0001L114.004 20.0107L114.837 19.456ZM116.133 27.184L117.124 27.3133L117.125 27.308L116.133 27.184ZM115.653 29.536V30.536H116.419L116.618 29.796L115.653 29.536ZM101.541 29.536V28.536H100.508L100.541 29.5682L101.541 29.536ZM110.853 35.104L110.641 34.1266L110.636 34.1278L110.853 35.104ZM114.501 33.952L115.447 33.6299L115.105 32.6232L114.121 33.0268L114.501 33.952ZM102.981 21.28L102.225 20.6251L102.223 20.6271L102.981 21.28ZM101.589 25.312L100.591 25.2395L100.513 26.312H101.589V25.312ZM110.805 25.312V26.312H111.624L111.785 25.5081L110.805 25.312ZM115.71 37.6808C114.094 38.3334 112.587 38.7929 111.188 39.0666L111.573 41.0294C113.118 40.7271 114.747 40.2266 116.459 39.5352L115.71 37.6808ZM111.188 39.0666C109.771 39.344 108.444 39.48 107.205 39.48V41.48C108.589 41.48 110.046 41.328 111.573 41.0294L111.188 39.0666ZM107.205 39.48C103.779 39.48 101.35 38.5157 99.7375 36.7365L98.2555 38.0795C100.355 40.3963 103.398 41.48 107.205 41.48V39.48ZM99.7375 36.7365C98.084 34.9119 97.2125 32.4508 97.2125 29.248H95.2125C95.2125 32.8292 96.197 35.8081 98.2555 38.0795L99.7375 36.7365ZM97.2125 29.248V26.368H95.2125V29.248H97.2125ZM97.2125 26.368C97.2125 24.2174 97.606 22.409 98.3549 20.9112L96.5661 20.0168C95.651 21.847 95.2125 23.9746 95.2125 26.368H97.2125ZM98.3549 20.9112C99.1056 19.4099 100.162 18.2584 101.53 17.4319L100.495 15.7201C98.7914 16.7496 97.4794 18.1901 96.5661 20.0168L98.3549 20.9112ZM101.53 17.4319C102.886 16.6123 104.509 16.184 106.437 16.184V14.184C104.204 14.184 102.211 14.6837 100.495 15.7201L101.53 17.4319ZM106.437 16.184C107.989 16.184 109.425 16.5051 110.757 17.1421L111.62 15.3379C110.008 14.5669 108.276 14.184 106.437 14.184V16.184ZM110.781 17.153C112.094 17.7398 113.162 18.6744 113.991 19.9893L115.682 18.9227C114.655 17.2936 113.291 16.0842 111.596 15.327L110.781 17.153ZM114.004 20.0107C114.825 21.2422 115.277 22.8886 115.277 25.024H117.277C117.277 22.6154 116.768 20.5498 115.669 18.9013L114.004 20.0107ZM115.277 25.024C115.277 25.6489 115.232 26.3271 115.14 27.06L117.125 27.308C117.225 26.5049 117.277 25.7431 117.277 25.024H115.277ZM115.141 27.0547C115.051 27.7402 114.901 28.4803 114.687 29.276L116.618 29.796C116.852 28.9277 117.022 28.0998 117.124 27.3133L115.141 27.0547ZM115.653 28.536H101.541V30.536H115.653V28.536ZM100.541 29.5682C100.609 31.6851 101.142 33.4477 102.298 34.6832L103.759 33.3168C103.059 32.5683 102.6 31.3549 102.54 29.5038L100.541 29.5682ZM102.298 34.6832C103.493 35.9608 105.308 36.488 107.493 36.488V34.488C105.581 34.488 104.42 34.0232 103.759 33.3168L102.298 34.6832ZM107.493 36.488C108.659 36.488 109.852 36.3507 111.069 36.0802L110.636 34.1278C109.549 34.3693 108.502 34.488 107.493 34.488V36.488ZM111.064 36.0814C112.311 35.8117 113.584 35.409 114.88 34.8772L114.121 33.0268C112.921 33.519 111.762 33.8843 110.641 34.1266L111.064 36.0814ZM113.554 34.2741L115.138 38.9301L117.031 38.2859L115.447 33.6299L113.554 34.2741ZM106.437 18.84C104.725 18.84 103.278 19.4101 102.225 20.6251L103.736 21.9349C104.347 21.2299 105.204 20.84 106.437 20.84V18.84ZM102.223 20.6271C101.233 21.7754 100.728 23.3562 100.591 25.2395L102.586 25.3845C102.705 23.7478 103.128 22.6406 103.738 21.9329L102.223 20.6271ZM101.589 26.312H110.805V24.312H101.589V26.312ZM111.785 25.5081C111.827 25.3002 111.853 25.0889 111.853 24.88H109.853C109.853 24.9271 109.846 25.0038 109.824 25.1159L111.785 25.5081ZM111.853 24.88C111.853 24.8803 111.853 24.8797 111.853 24.88C111.853 24.8796 111.853 24.8784 111.853 24.8781C111.853 24.8784 111.853 24.8778 111.853 24.8781C111.853 24.8778 111.853 24.8766 111.853 24.8763C111.853 24.8759 111.853 24.8756 111.853 24.8753C111.853 24.8756 111.853 24.875 111.853 24.8753C111.853 24.875 111.853 24.8738 111.853 24.8734C111.853 24.8737 111.853 24.8731 111.853 24.8734C111.853 24.8731 111.853 24.8719 111.853 24.8716C111.853 24.872 111.853 24.8713 111.853 24.8716C111.853 24.8713 111.853 24.87 111.853 24.8697C111.853 24.87 111.853 24.8694 111.853 24.8697C111.853 24.8694 111.853 24.8682 111.853 24.8678C111.853 24.8681 111.853 24.8675 111.853 24.8678C111.853 24.8675 111.853 24.8663 111.853 24.866C111.853 24.8664 111.853 24.8657 111.853 24.866C111.853 24.8657 111.853 24.8644 111.853 24.8641C111.853 24.8644 111.853 24.8638 111.853 24.8641C111.853 24.8638 111.853 24.8626 111.853 24.8623C111.853 24.8619 111.853 24.8616 111.853 24.8613C111.853 24.8616 111.853 24.861 111.853 24.8613C111.853 24.861 111.853 24.8598 111.853 24.8595C111.853 24.8592 111.853 24.8588 111.853 24.8585C111.853 24.8588 111.853 24.8582 111.853 24.8585C111.853 24.8582 111.853 24.857 111.853 24.8567C111.853 24.8564 111.853 24.8561 111.853 24.8557C111.853 24.856 111.853 24.8554 111.853 24.8557C111.853 24.8554 111.853 24.8542 111.853 24.8539C111.853 24.8542 111.853 24.8536 111.853 24.8539C111.853 24.8536 111.853 24.8523 111.853 24.852C111.853 24.8523 111.853 24.8517 111.853 24.852C111.853 24.8517 111.853 24.8505 111.853 24.8502C111.853 24.8505 111.853 24.8499 111.853 24.8502C111.853 24.8499 111.853 24.8486 111.853 24.8483C111.853 24.8486 111.853 24.848 111.853 24.8483C111.853 24.848 111.853 24.8468 111.853 24.8465C111.853 24.8468 111.853 24.8462 111.853 24.8465C111.853 24.8462 111.853 24.8449 111.853 24.8446C111.853 24.8449 111.853 24.8443 111.853 24.8446C111.853 24.8443 111.853 24.8431 111.853 24.8428C111.853 24.8431 111.853 24.8425 111.853 24.8428C111.853 24.8425 111.853 24.8413 111.853 24.8409C111.853 24.8412 111.853 24.8406 111.853 24.8409C111.853 24.8406 111.853 24.8394 111.853 24.8391C111.853 24.8394 111.853 24.8388 111.853 24.8391C111.853 24.8388 111.853 24.8376 111.853 24.8373C111.853 24.8376 111.853 24.837 111.853 24.8373C111.853 24.837 111.853 24.8357 111.853 24.8354C111.853 24.8357 111.853 24.8351 111.853 24.8354C111.853 24.8351 111.853 24.8339 111.853 24.8336C111.853 24.8339 111.853 24.8333 111.853 24.8336C111.853 24.8333 111.853 24.8321 111.853 24.8317C111.853 24.832 111.853 24.8314 111.853 24.8317C111.853 24.8314 111.853 24.8302 111.853 24.8299C111.853 24.8302 111.853 24.8296 111.853 24.8299C111.853 24.8296 111.853 24.8284 111.853 24.8281C111.853 24.8284 111.853 24.8278 111.853 24.8281C111.853 24.8278 111.853 24.8265 111.853 24.8262C111.853 24.8265 111.853 24.8259 111.853 24.8262C111.853 24.8259 111.853 24.8247 111.853 24.8244C111.853 24.8247 111.853 24.8241 111.853 24.8244C111.853 24.8241 111.853 24.8229 111.853 24.8226C111.853 24.8229 111.853 24.8223 111.853 24.8226C111.853 24.8223 111.853 24.8211 111.853 24.8207C111.853 24.821 111.853 24.8204 111.853 24.8207C111.853 24.8204 111.853 24.8192 111.853 24.8189C111.853 24.8192 111.853 24.8186 111.853 24.8189C111.853 24.8186 111.853 24.8174 111.853 24.8171C111.853 24.8174 111.853 24.8168 111.853 24.8171C111.853 24.8168 111.853 24.8156 111.853 24.8153C111.853 24.8156 111.853 24.815 111.853 24.8153C111.853 24.815 111.853 24.8138 111.853 24.8134C111.853 24.8137 111.853 24.8131 111.853 24.8134C111.853 24.8131 111.853 24.8119 111.853 24.8116C111.853 24.8119 111.853 24.8113 111.853 24.8116C111.853 24.8113 111.853 24.8101 111.853 24.8098C111.853 24.8101 111.853 24.8095 111.853 24.8098C111.853 24.8095 111.853 24.8083 111.853 24.808C111.853 24.8083 111.853 24.8077 111.853 24.808C111.853 24.8077 111.853 24.8065 111.853 24.8062C111.853 24.8065 111.853 24.8059 111.853 24.8062C111.853 24.8059 111.853 24.8047 111.853 24.8044C111.853 24.8048 111.853 24.8041 111.853 24.8044C111.853 24.8041 111.853 24.8028 111.853 24.8025C111.853 24.8028 111.853 24.8022 111.853 24.8025C111.853 24.8022 111.853 24.801 111.853 24.8007C111.853 24.801 111.853 24.8004 111.853 24.8007C111.853 24.8004 111.853 24.7992 111.853 24.7989C111.853 24.7992 111.853 24.7986 111.853 24.7989C111.853 24.7986 111.853 24.7974 111.853 24.7971C111.853 24.7974 111.853 24.7968 111.853 24.7971C111.853 24.7968 111.853 24.7956 111.853 24.7953C111.853 24.7956 111.853 24.795 111.853 24.7953C111.853 24.795 111.853 24.7938 111.853 24.7935C111.853 24.7938 111.853 24.7932 111.853 24.7935C111.853 24.7932 111.853 24.792 111.853 24.7917C111.853 24.792 111.853 24.7914 111.853 24.7917C111.853 24.7914 111.853 24.7902 111.853 24.7899C111.853 24.7902 111.853 24.7896 111.853 24.7899C111.853 24.7896 111.853 24.7884 111.853 24.7881C111.853 24.7884 111.853 24.7878 111.853 24.7881C111.853 24.7878 111.853 24.7866 111.853 24.7863C111.853 24.7866 111.853 24.786 111.853 24.7863C111.853 24.786 111.853 24.7848 111.853 24.7845C111.853 24.7848 111.853 24.7842 111.853 24.7845C111.853 24.7842 111.853 24.783 111.853 24.7827C111.853 24.783 111.853 24.7824 111.853 24.7827C111.853 24.7824 111.853 24.7812 111.853 24.7809C111.853 24.7812 111.853 24.7806 111.853 24.7809C111.853 24.7806 111.853 24.7794 111.853 24.7791C111.853 24.7794 111.853 24.7788 111.853 24.7791C111.853 24.7788 111.853 24.7776 111.853 24.7773C111.853 24.7776 111.853 24.777 111.853 24.7773C111.853 24.777 111.853 24.7758 111.853 24.7755C111.853 24.7758 111.853 24.7752 111.853 24.7755C111.853 24.7752 111.853 24.774 111.853 24.7737C111.853 24.774 111.853 24.7734 111.853 24.7737C111.853 24.7734 111.853 24.7722 111.853 24.7719C111.853 24.7722 111.853 24.7716 111.853 24.7719C111.853 24.7716 111.853 24.7704 111.853 24.7701C111.853 24.7704 111.853 24.7698 111.853 24.7701C111.853 24.7698 111.853 24.7686 111.853 24.7683C111.853 24.7686 111.853 24.7681 111.853 24.7683C111.853 24.768 111.853 24.7669 111.853 24.7666C111.853 24.7669 111.853 24.7663 111.853 24.7666C111.853 24.7663 111.853 24.7651 111.853 24.7648C111.853 24.7651 111.853 24.7645 111.853 24.7648C111.853 24.7645 111.853 24.7633 111.853 24.763C111.853 24.7633 111.853 24.7627 111.853 24.763C111.853 24.7627 111.853 24.7615 111.853 24.7612C111.853 24.7615 111.853 24.7609 111.853 24.7612C111.853 24.7609 111.853 24.7597 111.853 24.7594C111.853 24.7596 111.853 24.7591 111.853 24.7594C111.853 24.7591 111.853 24.758 111.853 24.7577C111.853 24.758 111.853 24.7574 111.853 24.7577C111.853 24.7574 111.853 24.7562 111.853 24.7559C111.853 24.7562 111.853 24.7556 111.853 24.7559C111.853 24.7556 111.853 24.7544 111.853 24.7541C111.853 24.7544 111.853 24.7538 111.853 24.7541C111.853 24.7538 111.853 24.7526 111.853 24.7523C111.853 24.7525 111.853 24.752 111.853 24.7523C111.853 24.752 111.853 24.7509 111.853 24.7506C111.853 24.7509 111.853 24.7503 111.853 24.7506C111.853 24.7503 111.853 24.7491 111.853 24.7488C111.853 24.7491 111.853 24.7485 111.853 24.7488C111.853 24.7485 111.853 24.7473 111.853 24.747C111.853 24.7473 111.853 24.7467 111.853 24.747C111.853 24.7467 111.853 24.7456 111.853 24.7453C111.853 24.7456 111.853 24.745 111.853 24.7453C111.853 24.745 111.853 24.7438 111.853 24.7435C111.853 24.7438 111.853 24.7432 111.853 24.7435C111.853 24.7432 111.853 24.742 111.853 24.7417C111.853 24.742 111.853 24.7414 111.853 24.7417C111.853 24.7415 111.853 24.7403 111.853 24.74C111.853 24.7403 111.853 24.7397 111.853 24.74C111.853 24.7397 111.853 24.7385 111.853 24.7382C111.853 24.7385 111.853 24.7379 111.853 24.7382C111.853 24.7379 111.853 24.7367 111.853 24.7364C111.853 24.7367 111.853 24.7362 111.853 24.7364C111.853 24.7361 111.853 24.735 111.853 24.7347C111.853 24.735 111.853 24.7344 111.853 24.7347C111.853 24.7344 111.853 24.7332 111.853 24.7329C111.853 24.7331 111.853 24.7326 111.853 24.7329C111.853 24.7326 111.853 24.7315 111.853 24.7312C111.853 24.7315 111.853 24.7309 111.853 24.7312C111.853 24.7309 111.853 24.7297 111.853 24.7294C111.853 24.7297 111.853 24.7291 111.853 24.7294C111.853 24.7292 111.853 24.728 111.853 24.7277C111.853 24.728 111.853 24.7274 111.853 24.7277C111.853 24.7274 111.853 24.7262 111.853 24.7259C111.853 24.7262 111.853 24.7256 111.853 24.7259C111.853 24.7256 111.853 24.7245 111.853 24.7242C111.853 24.7245 111.853 24.7239 111.853 24.7242C111.853 24.7239 111.853 24.7227 111.853 24.7224C111.853 24.7227 111.853 24.7221 111.853 24.7224C111.853 24.7222 111.853 24.721 111.853 24.7207C111.853 24.721 111.853 24.7204 111.853 24.7207C111.853 24.7204 111.853 24.7192 111.853 24.7189C111.853 24.7191 111.853 24.7186 111.853 24.7189C111.853 24.7186 111.853 24.7175 111.853 24.7172C111.853 24.7175 111.853 24.7169 111.853 24.7172C111.853 24.7169 111.853 24.7157 111.853 24.7154C111.853 24.7157 111.853 24.7151 111.853 24.7154C111.853 24.7151 111.853 24.714 111.853 24.7137C111.853 24.714 111.853 24.7134 111.853 24.7137C111.853 24.7134 111.853 24.7122 111.853 24.712C111.853 24.7123 111.853 24.7117 111.853 24.712C111.853 24.7117 111.853 24.7105 111.853 24.7102C111.853 24.7104 111.853 24.7099 111.853 24.7102C111.853 24.7099 111.853 24.7088 111.853 24.7085C111.853 24.7088 111.853 24.7082 111.853 24.7085C111.853 24.7082 111.853 24.707 111.853 24.7067C111.853 24.707 111.853 24.7065 111.853 24.7067C111.853 24.7064 111.853 24.7053 111.853 24.705C111.853 24.7053 111.853 24.7047 111.853 24.705C111.853 24.7048 111.853 24.7036 111.853 24.7033C111.853 24.7036 111.853 24.703 111.853 24.7033C111.853 24.703 111.853 24.7018 111.853 24.7016C111.853 24.7019 111.853 24.7013 111.853 24.7016C111.853 24.7013 111.853 24.7001 111.853 24.6998C111.853 24.7 111.853 24.6995 111.853 24.6998C111.853 24.6995 111.853 24.6984 111.853 24.6981C111.853 24.6984 111.853 24.6978 111.853 24.6981C111.853 24.6978 111.853 24.6967 111.853 24.6964C111.853 24.6967 111.853 24.6961 111.853 24.6964C111.853 24.6961 111.853 24.6949 111.853 24.6946C111.853 24.6949 111.853 24.6944 111.853 24.6946C111.853 24.6943 111.853 24.6932 111.853 24.6929C111.853 24.6931 111.853 24.6926 111.853 24.6929C111.853 24.6926 111.853 24.6915 111.853 24.6912C111.853 24.6915 111.853 24.6909 111.853 24.6912C111.853 24.691 111.853 24.6898 111.853 24.6895C111.853 24.6898 111.853 24.6892 111.853 24.6895C111.853 24.6892 111.853 24.688 111.853 24.6878C111.853 24.6881 111.853 24.6875 111.853 24.6878C111.853 24.6875 111.853 24.6863 111.853 24.686C111.853 24.6863 111.853 24.6858 111.853 24.686C111.853 24.6857 111.853 24.6846 111.853 24.6843C111.853 24.6846 111.853 24.684 111.853 24.6843C111.853 24.684 111.853 24.6829 111.853 24.6826C111.853 24.6828 111.853 24.6823 111.853 24.6826C111.853 24.6823 111.853 24.6812 111.853 24.6809C111.853 24.6812 111.853 24.6806 111.853 24.6809C111.853 24.6807 111.853 24.6795 111.853 24.6792C111.853 24.6795 111.853 24.6789 111.853 24.6792C111.853 24.6789 111.853 24.6778 111.853 24.6775C111.853 24.6778 111.853 24.6772 111.853 24.6775C111.853 24.6772 111.853 24.6761 111.853 24.6758C111.853 24.6761 111.853 24.6755 111.853 24.6758C111.853 24.6755 111.853 24.6743 111.853 24.6741C111.853 24.6744 111.853 24.6738 111.853 24.6741C111.853 24.6738 111.853 24.6726 111.853 24.6724C111.853 24.6727 111.853 24.6721 111.853 24.6724C111.853 24.6721 111.853 24.6709 111.853 24.6707C111.853 24.671 111.853 24.6704 111.853 24.6707C111.853 24.6704 111.853 24.6692 111.853 24.6689C111.853 24.6692 111.853 24.6687 111.853 24.6689C111.853 24.6686 111.853 24.6675 111.853 24.6672C111.853 24.6675 111.853 24.667 111.853 24.6672C111.853 24.6669 111.853 24.6658 111.853 24.6655C111.853 24.6658 111.853 24.6653 111.853 24.6655C111.853 24.6652 111.853 24.6641 111.853 24.6638C111.853 24.6641 111.853 24.6636 111.853 24.6638C111.853 24.6635 111.853 24.6624 111.853 24.6622C111.853 24.6625 111.853 24.6619 111.853 24.6622C111.853 24.6619 111.853 24.6607 111.853 24.6605C111.853 24.6608 111.853 24.6602 111.853 24.6605C111.853 24.6602 111.853 24.659 111.853 24.6588C111.853 24.6591 111.853 24.6585 111.853 24.6588C111.853 24.6585 111.853 24.6574 111.853 24.6571C111.853 24.6574 111.853 24.6568 111.853 24.6571C111.853 24.6568 111.853 24.6557 111.853 24.6554C111.853 24.6557 111.853 24.6551 111.853 24.6554C111.853 24.6552 111.853 24.654 111.853 24.6537C111.853 24.654 111.853 24.6534 111.853 24.6537C111.853 24.6535 111.853 24.6523 111.853 24.652C111.853 24.6522 111.853 24.6517 111.853 24.652C111.853 24.6517 111.853 24.6506 111.853 24.6503C111.853 24.6506 111.853 24.65 111.853 24.6503C111.853 24.65 111.853 24.6489 111.853 24.6486C111.853 24.6489 111.853 24.6483 111.853 24.6486C111.853 24.6483 111.853 24.6472 111.853 24.6469C111.853 24.6472 111.853 24.6467 111.853 24.6469C111.853 24.6466 111.853 24.6455 111.853 24.6453C111.853 24.6456 111.853 24.645 111.853 24.6453C111.853 24.645 111.853 24.6439 111.853 24.6436C111.853 24.6439 111.853 24.6433 111.853 24.6436C111.853 24.6434 111.853 24.6422 111.853 24.6419C111.853 24.6421 111.853 24.6416 111.853 24.6419C111.853 24.6416 111.853 24.6405 111.853 24.6402C111.853 24.6405 111.853 24.6399 111.853 24.6402C111.853 24.6399 111.853 24.6388 111.853 24.6385C111.853 24.6388 111.853 24.6383 111.853 24.6385C111.853 24.6382 111.853 24.6372 111.853 24.6369C111.853 24.6372 111.853 24.6366 111.853 24.6369C111.853 24.6367 111.853 24.6355 111.853 24.6352C111.853 24.6354 111.853 24.6349 111.853 24.6352C111.853 24.6349 111.853 24.6338 111.853 24.6335C111.853 24.6338 111.853 24.6332 111.853 24.6335C111.853 24.6332 111.853 24.6321 111.853 24.6319C111.853 24.6322 111.853 24.6316 111.853 24.6319C111.853 24.6316 111.853 24.6305 111.853 24.6302C111.853 24.6304 111.853 24.6299 111.853 24.6302C111.853 24.6299 111.853 24.6288 111.853 24.6285C111.853 24.6288 111.853 24.6282 111.853 24.6285C111.853 24.6282 111.853 24.6271 111.853 24.6269C111.853 24.6272 111.853 24.6266 111.853 24.6269C111.853 24.6266 111.853 24.6255 111.853 24.6252C111.853 24.6254 111.853 24.6249 111.853 24.6252C111.853 24.6249 111.853 24.6238 111.853 24.6235C111.853 24.6238 111.853 24.6232 111.853 24.6235C111.853 24.6232 111.853 24.6221 111.853 24.6219C111.853 24.6222 111.853 24.6216 111.853 24.6219C111.853 24.6217 111.853 24.6205 111.853 24.6202C111.853 24.6204 111.853 24.6199 111.853 24.6202C111.853 24.6199 111.853 24.6188 111.853 24.6185C111.853 24.6188 111.853 24.6183 111.853 24.6185C111.853 24.6182 111.853 24.6172 111.853 24.6169C111.853 24.6171 111.853 24.6166 111.853 24.6169C111.853 24.6166 111.853 24.6155 111.853 24.6152C111.853 24.6155 111.853 24.615 111.853 24.6152C111.853 24.6149 111.853 24.6138 111.853 24.6136C111.853 24.6139 111.853 24.6133 111.853 24.6136C111.853 24.6134 111.853 24.6122 111.853 24.6119C111.853 24.6122 111.853 24.6116 111.853 24.6119C111.853 24.6116 111.853 24.6105 111.853 24.6103C111.853 24.6106 111.853 24.61 111.853 24.6103C111.853 24.6101 111.853 24.6089 111.853 24.6086C111.853 24.6089 111.853 24.6083 111.853 24.6086C111.853 24.6083 111.853 24.6072 111.853 24.607C111.853 24.6073 111.853 24.6067 111.853 24.607C111.853 24.6068 111.853 24.6056 111.853 24.6053C111.853 24.6056 111.853 24.605 111.853 24.6053C111.853 24.605 111.853 24.604 111.853 24.6037C111.853 24.6039 111.853 24.6034 111.853 24.6037C111.853 24.6034 111.853 24.6023 111.853 24.602C111.853 24.6023 111.853 24.6018 111.853 24.602C111.853 24.6017 111.853 24.6007 111.853 24.6004C111.853 24.6006 111.853 24.6001 111.853 24.6004C111.853 24.6001 111.853 24.599 111.853 24.5987C111.853 24.599 111.853 24.5985 111.853 24.5987C111.853 24.5985 111.853 24.5974 111.853 24.5971C111.853 24.5974 111.853 24.5968 111.853 24.5971C111.853 24.5968 111.853 24.5957 111.853 24.5955C111.853 24.5957 111.853 24.5952 111.853 24.5955C111.853 24.5952 111.853 24.5941 111.853 24.5938C111.853 24.5941 111.853 24.5936 111.853 24.5938C111.853 24.5935 111.853 24.5925 111.853 24.5922C111.853 24.5925 111.853 24.5919 111.853 24.5922C111.853 24.5919 111.853 24.5908 111.853 24.5906C111.853 24.5909 111.853 24.5903 111.853 24.5906C111.853 24.5904 111.853 24.5892 111.853 24.5889C111.853 24.5892 111.853 24.5887 111.853 24.5889C111.853 24.5886 111.853 24.5876 111.853 24.5873C111.853 24.5876 111.853 24.587 111.853 24.5873C111.853 24.587 111.853 24.5859 111.853 24.5857C111.853 24.5859 111.853 24.5854 111.853 24.5857C111.853 24.5854 111.853 24.5843 111.853 24.584C111.853 24.5843 111.853 24.5838 111.853 24.584C111.853 24.5838 111.853 24.5827 111.853 24.5824C111.853 24.5827 111.853 24.5821 111.853 24.5824C111.853 24.5821 111.853 24.5811 111.853 24.5808C111.853 24.581 111.853 24.5805 111.853 24.5808C111.853 24.5805 111.853 24.5794 111.853 24.5792C111.853 24.5794 111.853 24.5789 111.853 24.5792C111.853 24.5789 111.853 24.5778 111.853 24.5775C111.853 24.5778 111.853 24.5773 111.853 24.5775C111.853 24.5773 111.853 24.5762 111.853 24.5759C111.853 24.5762 111.853 24.5757 111.853 24.5759C111.853 24.5756 111.853 24.5746 111.853 24.5743C111.853 24.5746 111.853 24.574 111.853 24.5743C111.853 24.574 111.853 24.573 111.853 24.5727C111.853 24.5729 111.853 24.5724 111.853 24.5727C111.853 24.5724 111.853 24.5713 111.853 24.5711C111.853 24.5713 111.853 24.5708 111.853 24.5711C111.853 24.5708 111.853 24.5697 111.853 24.5695C111.853 24.5698 111.853 24.5692 111.853 24.5695C111.853 24.5693 111.853 24.5681 111.853 24.5678C111.853 24.5681 111.853 24.5676 111.853 24.5678C111.853 24.5676 111.853 24.5665 111.853 24.5662C111.853 24.5665 111.853 24.566 111.853 24.5662C111.853 24.566 111.853 24.5649 111.853 24.5646C111.853 24.5649 111.853 24.5644 111.853 24.5646C111.853 24.5643 111.853 24.5633 111.853 24.563C111.853 24.5633 111.853 24.5627 111.853 24.563C111.853 24.5627 111.853 24.5617 111.853 24.5614C111.853 24.5617 111.853 24.5611 111.853 24.5614C111.853 24.5611 111.853 24.5601 111.853 24.5598C111.853 24.5601 111.853 24.5595 111.853 24.5598C111.853 24.5595 111.853 24.5585 111.853 24.5582C111.853 24.5585 111.853 24.5579 111.853 24.5582C111.853 24.5579 111.853 24.5569 111.853 24.5566C111.853 24.5569 111.853 24.5563 111.853 24.5566C111.853 24.5563 111.853 24.5553 111.853 24.555C111.853 24.5553 111.853 24.5547 111.853 24.555C111.853 24.5547 111.853 24.5537 111.853 24.5534C111.853 24.5537 111.853 24.5531 111.853 24.5534C111.853 24.5531 111.853 24.5521 111.853 24.5518C111.853 24.5521 111.853 24.5515 111.853 24.5518C111.853 24.5515 111.853 24.5505 111.853 24.5502C111.853 24.5505 111.853 24.5499 111.853 24.5502C111.853 24.5499 111.853 24.5489 111.853 24.5486C111.853 24.5489 111.853 24.5483 111.853 24.5486C111.853 24.5483 111.853 24.5473 111.853 24.547C111.853 24.5473 111.853 24.5467 111.853 24.547C111.853 24.5467 111.853 24.5457 111.853 24.5454C111.853 24.5457 111.853 24.5451 111.853 24.5454C111.853 24.5451 111.853 24.5441 111.853 24.5438C111.853 24.5441 111.853 24.5435 111.853 24.5438C111.853 24.5436 111.853 24.5425 111.853 24.5422C111.853 24.5425 111.853 24.542 111.853 24.5422C111.853 24.542 111.853 24.5409 111.853 24.5406C111.853 24.5409 111.853 24.5404 111.853 24.5406C111.853 24.5404 111.853 24.5393 111.853 24.539C111.853 24.5392 111.853 24.5388 111.853 24.539C111.853 24.5387 111.853 24.5377 111.853 24.5375C111.853 24.5377 111.853 24.5372 111.853 24.5375C111.853 24.5372 111.853 24.5361 111.853 24.5359C111.853 24.5362 111.853 24.5356 111.853 24.5359C111.853 24.5356 111.853 24.5346 111.853 24.5343C111.853 24.5346 111.853 24.534 111.853 24.5343C111.853 24.534 111.853 24.533 111.853 24.5327C111.853 24.533 111.853 24.5325 111.853 24.5327C111.853 24.5325 111.853 24.5314 111.853 24.5311C111.853 24.5314 111.853 24.5309 111.853 24.5311C111.853 24.5309 111.853 24.5298 111.853 24.5296C111.853 24.5298 111.853 24.5293 111.853 24.5296C111.853 24.5293 111.853 24.5282 111.853 24.528C111.853 24.5283 111.853 24.5277 111.853 24.528C111.853 24.5277 111.853 24.5267 111.853 24.5264C111.853 24.5267 111.853 24.5261 111.853 24.5264C111.853 24.5262 111.853 24.5251 111.853 24.5248C111.853 24.5251 111.853 24.5246 111.853 24.5248C111.853 24.5246 111.853 24.5235 111.853 24.5233C111.853 24.5235 111.853 24.523 111.853 24.5233C111.853 24.523 111.853 24.5219 111.853 24.5217C111.853 24.522 111.853 24.5214 111.853 24.5217C111.853 24.5214 111.853 24.5204 111.853 24.5201C111.853 24.5204 111.853 24.5199 111.853 24.5201C111.853 24.5199 111.853 24.5188 111.853 24.5185C111.853 24.5187 111.853 24.5183 111.853 24.5185C111.853 24.5182 111.853 24.5172 111.853 24.517C111.853 24.5173 111.853 24.5167 111.853 24.517C111.853 24.5167 111.853 24.5157 111.853 24.5154C111.853 24.5157 111.853 24.5152 111.853 24.5154C111.853 24.5152 111.853 24.5141 111.853 24.5139C111.853 24.5141 111.853 24.5136 111.853 24.5139C111.853 24.5136 111.853 24.5126 111.853 24.5123C111.853 24.5126 111.853 24.512 111.853 24.5123C111.853 24.5121 111.853 24.511 111.853 24.5107C111.853 24.5109 111.853 24.5105 111.853 24.5107C111.853 24.5104 111.853 24.5094 111.853 24.5092C111.853 24.5095 111.853 24.5089 111.853 24.5092C111.853 24.5089 111.853 24.5079 111.853 24.5076C111.853 24.5079 111.853 24.5074 111.853 24.5076C111.853 24.5074 111.853 24.5063 111.853 24.5061C111.853 24.5063 111.853 24.5058 111.853 24.5061C111.853 24.5058 111.853 24.5048 111.853 24.5045C111.853 24.5048 111.853 24.5042 111.853 24.5045C111.853 24.5043 111.853 24.5032 111.853 24.5029C111.853 24.5031 111.853 24.5027 111.853 24.5029C111.853 24.5026 111.853 24.5017 111.853 24.5014C111.853 24.5017 111.853 24.5011 111.853 24.5014C111.853 24.5012 111.853 24.5001 111.853 24.4998C111.853 24.5 111.853 24.4996 111.853 24.4998C111.853 24.4995 111.853 24.4986 111.853 24.4983C111.853 24.4986 111.853 24.498 111.853 24.4983C111.853 24.4981 111.853 24.497 111.853 24.4967C111.853 24.4969 111.853 24.4965 111.853 24.4967C111.853 24.4964 111.853 24.4955 111.853 24.4952C111.853 24.4955 111.853 24.4949 111.853 24.4952C111.853 24.495 111.853 24.4939 111.853 24.4937C111.853 24.4939 111.853 24.4934 111.853 24.4937C111.853 24.4934 111.853 24.4924 111.853 24.4921C111.853 24.4924 111.853 24.4919 111.853 24.4921C111.853 24.4919 111.853 24.4908 111.853 24.4906C111.853 24.4909 111.853 24.4903 111.853 24.4906C111.853 24.4903 111.853 24.4893 111.853 24.489C111.853 24.4892 111.853 24.4888 111.853 24.489C111.853 24.4887 111.853 24.4878 111.853 24.4875C111.853 24.4878 111.853 24.4872 111.853 24.4875C111.853 24.4873 111.853 24.4862 111.853 24.486C111.853 24.4862 111.853 24.4857 111.853 24.486C111.853 24.4857 111.853 24.4847 111.853 24.4844C111.853 24.4846 111.853 24.4842 111.853 24.4844C111.853 24.4841 111.853 24.4831 111.853 24.4829C111.853 24.4832 111.853 24.4826 111.853 24.4829C111.853 24.4827 111.853 24.4816 111.853 24.4814C111.853 24.4816 111.853 24.4811 111.853 24.4814C111.853 24.4811 111.853 24.4801 111.853 24.4798C111.853 24.48 111.853 24.4796 111.853 24.4798C111.853 24.4795 111.853 24.4785 111.853 24.4783C111.853 24.4786 111.853 24.478 111.853 24.4783C111.853 24.4781 111.853 24.477 111.853 24.4768C111.853 24.4771 111.853 24.4765 111.853 24.4768C111.853 24.4765 111.853 24.4755 111.853 24.4752C111.853 24.4754 111.853 24.475 111.853 24.4752C111.853 24.4749 111.853 24.474 111.853 24.4737C111.853 24.474 111.853 24.4735 111.853 24.4737C111.853 24.4735 111.853 24.4724 111.853 24.4722C111.853 24.4725 111.853 24.4719 111.853 24.4722C111.853 24.472 111.853 24.4709 111.853 24.4707C111.853 24.471 111.853 24.4704 111.853 24.4707C111.853 24.4705 111.853 24.4694 111.853 24.4691C111.853 24.4693 111.853 24.4689 111.853 24.4691C111.853 24.4688 111.853 24.4679 111.853 24.4676C111.853 24.4678 111.853 24.4674 111.853 24.4676C111.853 24.4673 111.853 24.4664 111.853 24.4661C111.853 24.4664 111.853 24.4659 111.853 24.4661C111.853 24.4659 111.853 24.4648 111.853 24.4646C111.853 24.4649 111.853 24.4643 111.853 24.4646C111.853 24.4644 111.853 24.4633 111.853 24.4631C111.853 24.4634 111.853 24.4628 111.853 24.4631C111.853 24.4629 111.853 24.4618 111.853 24.4616C111.853 24.4619 111.853 24.4613 111.853 24.4616C111.853 24.4614 111.853 24.4603 111.853 24.46C111.853 24.4602 111.853 24.4598 111.853 24.46C111.853 24.4597 111.853 24.4588 111.853 24.4585C111.853 24.4587 111.853 24.4583 111.853 24.4585C111.853 24.4582 111.853 24.4573 111.853 24.457C111.853 24.4572 111.853 24.4568 111.853 24.457C111.853 24.4567 111.853 24.4558 111.853 24.4555C111.853 24.4557 111.853 24.4553 111.853 24.4555C111.853 24.4552 111.853 24.4543 111.853 24.454C111.853 24.4542 111.853 24.4538 111.853 24.454C111.853 24.4537 111.853 24.4528 111.853 24.4525C111.853 24.4527 111.853 24.4523 111.853 24.4525C111.853 24.4522 111.853 24.4513 111.853 24.451C111.853 24.4512 111.853 24.4508 111.853 24.451C111.853 24.4507 111.853 24.4498 111.853 24.4495C111.853 24.4497 111.853 24.4493 111.853 24.4495C111.853 24.4492 111.853 24.4482 111.853 24.448H109.853C109.853 24.4477 109.853 24.4482 109.853 24.448C109.853 24.4482 109.853 24.4493 109.853 24.4495C109.853 24.4492 109.853 24.4498 109.853 24.4495C109.853 24.4497 109.853 24.4508 109.853 24.451C109.853 24.4507 109.853 24.4513 109.853 24.451C109.853 24.4512 109.853 24.4523 109.853 24.4525C109.853 24.4522 109.853 24.4528 109.853 24.4525C109.853 24.4527 109.853 24.4538 109.853 24.454C109.853 24.4537 109.853 24.4543 109.853 24.454C109.853 24.4542 109.853 24.4553 109.853 24.4555C109.853 24.4552 109.853 24.4558 109.853 24.4555C109.853 24.4557 109.853 24.4568 109.853 24.457C109.853 24.4567 109.853 24.4573 109.853 24.457C109.853 24.4572 109.853 24.4583 109.853 24.4585C109.853 24.4582 109.853 24.4588 109.853 24.4585C109.853 24.4587 109.853 24.4598 109.853 24.46C109.853 24.4598 109.853 24.4603 109.853 24.46C109.853 24.4603 109.853 24.4613 109.853 24.4616C109.853 24.4614 109.853 24.4618 109.853 24.4616C109.853 24.4619 109.853 24.4628 109.853 24.4631C109.853 24.4629 109.853 24.4633 109.853 24.4631C109.853 24.4634 109.853 24.4643 109.853 24.4646C109.853 24.4644 109.853 24.4648 109.853 24.4646C109.853 24.4649 109.853 24.4659 109.853 24.4661C109.853 24.4658 109.853 24.4664 109.853 24.4661C109.853 24.4663 109.853 24.4674 109.853 24.4676C109.853 24.4673 109.853 24.4679 109.853 24.4676C109.853 24.4678 109.853 24.4689 109.853 24.4691C109.853 24.4689 109.853 24.4694 109.853 24.4691C109.853 24.4694 109.853 24.4704 109.853 24.4707C109.853 24.4705 109.853 24.4709 109.853 24.4707C109.853 24.471 109.853 24.4719 109.853 24.4722C109.853 24.472 109.853 24.4724 109.853 24.4722C109.853 24.4725 109.853 24.4735 109.853 24.4737C109.853 24.4734 109.853 24.474 109.853 24.4737C109.853 24.4739 109.853 24.475 109.853 24.4752C109.853 24.4749 109.853 24.4755 109.853 24.4752C109.853 24.4755 109.853 24.4765 109.853 24.4768C109.853 24.4766 109.853 24.477 109.853 24.4768C109.853 24.4771 109.853 24.478 109.853 24.4783C109.853 24.478 109.853 24.4785 109.853 24.4783C109.853 24.4785 109.853 24.4796 109.853 24.4798C109.853 24.4795 109.853 24.4801 109.853 24.4798C109.853 24.48 109.853 24.4811 109.853 24.4814C109.853 24.4812 109.853 24.4816 109.853 24.4814C109.853 24.4817 109.853 24.4826 109.853 24.4829C109.853 24.4826 109.853 24.4831 109.853 24.4829C109.853 24.4831 109.853 24.4842 109.853 24.4844C109.853 24.4841 109.853 24.4847 109.853 24.4844C109.853 24.4846 109.853 24.4857 109.853 24.486C109.853 24.4858 109.853 24.4862 109.853 24.486C109.853 24.4863 109.853 24.4872 109.853 24.4875C109.853 24.4872 109.853 24.4878 109.853 24.4875C109.853 24.4877 109.853 24.4888 109.853 24.489C109.853 24.4887 109.853 24.4893 109.853 24.489C109.853 24.4893 109.853 24.4903 109.853 24.4906C109.853 24.4904 109.853 24.4908 109.853 24.4906C109.853 24.4909 109.853 24.4919 109.853 24.4921C109.853 24.4918 109.853 24.4924 109.853 24.4921C109.853 24.4923 109.853 24.4934 109.853 24.4937C109.853 24.4935 109.853 24.4939 109.853 24.4937C109.853 24.494 109.853 24.4949 109.853 24.4952C109.853 24.4949 109.853 24.4955 109.853 24.4952C109.853 24.4954 109.853 24.4965 109.853 24.4967C109.853 24.4965 109.853 24.497 109.853 24.4967C109.853 24.497 109.853 24.498 109.853 24.4983C109.853 24.498 109.853 24.4986 109.853 24.4983C109.853 24.4985 109.853 24.4996 109.853 24.4998C109.853 24.4996 109.853 24.5001 109.853 24.4998C109.853 24.5001 109.853 24.5011 109.853 24.5014C109.853 24.5011 109.853 24.5017 109.853 24.5014C109.853 24.5016 109.853 24.5027 109.853 24.5029C109.853 24.5027 109.853 24.5032 109.853 24.5029C109.853 24.5032 109.853 24.5042 109.853 24.5045C109.853 24.5042 109.853 24.5048 109.853 24.5045C109.853 24.5047 109.853 24.5058 109.853 24.5061C109.853 24.5059 109.853 24.5063 109.853 24.5061C109.853 24.5064 109.853 24.5074 109.853 24.5076C109.853 24.5073 109.853 24.5079 109.853 24.5076C109.853 24.5079 109.853 24.5089 109.853 24.5092C109.853 24.5089 109.853 24.5094 109.853 24.5092C109.853 24.5094 109.853 24.5105 109.853 24.5107C109.853 24.5105 109.853 24.511 109.853 24.5107C109.853 24.511 109.853 24.512 109.853 24.5123C109.853 24.512 109.853 24.5126 109.853 24.5123C109.853 24.5125 109.853 24.5136 109.853 24.5139C109.853 24.5137 109.853 24.5141 109.853 24.5139C109.853 24.5142 109.853 24.5152 109.853 24.5154C109.853 24.5151 109.853 24.5157 109.853 24.5154C109.853 24.5157 109.853 24.5167 109.853 24.517C109.853 24.5167 109.853 24.5172 109.853 24.517C109.853 24.5172 109.853 24.5183 109.853 24.5185C109.853 24.5183 109.853 24.5188 109.853 24.5185C109.853 24.5188 109.853 24.5199 109.853 24.5201C109.853 24.5198 109.853 24.5204 109.853 24.5201C109.853 24.5204 109.853 24.5214 109.853 24.5217C109.853 24.5214 109.853 24.5219 109.853 24.5217C109.853 24.5219 109.853 24.523 109.853 24.5233C109.853 24.5231 109.853 24.5235 109.853 24.5233C109.853 24.5236 109.853 24.5246 109.853 24.5248C109.853 24.5246 109.853 24.5251 109.853 24.5248C109.853 24.5251 109.853 24.5261 109.853 24.5264C109.853 24.5261 109.853 24.5267 109.853 24.5264C109.853 24.5267 109.853 24.5277 109.853 24.528C109.853 24.5277 109.853 24.5282 109.853 24.528C109.853 24.5282 109.853 24.5293 109.853 24.5296C109.853 24.5294 109.853 24.5298 109.853 24.5296C109.853 24.5299 109.853 24.5309 109.853 24.5311C109.853 24.5309 109.853 24.5314 109.853 24.5311C109.853 24.5314 109.853 24.5325 109.853 24.5327C109.853 24.5324 109.853 24.533 109.853 24.5327C109.853 24.533 109.853 24.534 109.853 24.5343C109.853 24.534 109.853 24.5346 109.853 24.5343C109.853 24.5346 109.853 24.5356 109.853 24.5359C109.853 24.5356 109.853 24.5361 109.853 24.5359C109.853 24.5361 109.853 24.5372 109.853 24.5375C109.853 24.5372 109.853 24.5377 109.853 24.5375C109.853 24.5377 109.853 24.5388 109.853 24.539C109.853 24.5388 109.853 24.5393 109.853 24.539C109.853 24.5393 109.853 24.5404 109.853 24.5406C109.853 24.5404 109.853 24.5409 109.853 24.5406C109.853 24.5409 109.853 24.542 109.853 24.5422C109.853 24.542 109.853 24.5425 109.853 24.5422C109.853 24.5425 109.853 24.5435 109.853 24.5438C109.853 24.5435 109.853 24.5441 109.853 24.5438C109.853 24.5441 109.853 24.5451 109.853 24.5454C109.853 24.5451 109.853 24.5457 109.853 24.5454C109.853 24.5457 109.853 24.5467 109.853 24.547C109.853 24.5467 109.853 24.5473 109.853 24.547C109.853 24.5473 109.853 24.5483 109.853 24.5486C109.853 24.5483 109.853 24.5489 109.853 24.5486C109.853 24.5489 109.853 24.5499 109.853 24.5502C109.853 24.5499 109.853 24.5505 109.853 24.5502C109.853 24.5505 109.853 24.5515 109.853 24.5518C109.853 24.5515 109.853 24.5521 109.853 24.5518C109.853 24.5521 109.853 24.5531 109.853 24.5534C109.853 24.5531 109.853 24.5537 109.853 24.5534C109.853 24.5537 109.853 24.5547 109.853 24.555C109.853 24.5547 109.853 24.5553 109.853 24.555C109.853 24.5553 109.853 24.5563 109.853 24.5566C109.853 24.5563 109.853 24.5569 109.853 24.5566C109.853 24.5569 109.853 24.5579 109.853 24.5582C109.853 24.5579 109.853 24.5585 109.853 24.5582C109.853 24.5585 109.853 24.5595 109.853 24.5598C109.853 24.5595 109.853 24.5601 109.853 24.5598C109.853 24.5601 109.853 24.5611 109.853 24.5614C109.853 24.5611 109.853 24.5617 109.853 24.5614C109.853 24.5617 109.853 24.5627 109.853 24.563C109.853 24.5627 109.853 24.5633 109.853 24.563C109.853 24.5633 109.853 24.5644 109.853 24.5646C109.853 24.5644 109.853 24.5649 109.853 24.5646C109.853 24.5649 109.853 24.566 109.853 24.5662C109.853 24.566 109.853 24.5665 109.853 24.5662C109.853 24.5665 109.853 24.5676 109.853 24.5678C109.853 24.5676 109.853 24.5681 109.853 24.5678C109.853 24.5681 109.853 24.5692 109.853 24.5695C109.853 24.5692 109.853 24.5697 109.853 24.5695C109.853 24.5697 109.853 24.5708 109.853 24.5711C109.853 24.5708 109.853 24.5713 109.853 24.5711C109.853 24.5713 109.853 24.5724 109.853 24.5727C109.853 24.5724 109.853 24.573 109.853 24.5727C109.853 24.573 109.853 24.574 109.853 24.5743C109.853 24.574 109.853 24.5746 109.853 24.5743C109.853 24.5746 109.853 24.5757 109.853 24.5759C109.853 24.5757 109.853 24.5762 109.853 24.5759C109.853 24.5762 109.853 24.5773 109.853 24.5775C109.853 24.5772 109.853 24.5778 109.853 24.5775C109.853 24.5777 109.853 24.5789 109.853 24.5792C109.853 24.5789 109.853 24.5794 109.853 24.5792C109.853 24.5794 109.853 24.5805 109.853 24.5808C109.853 24.5805 109.853 24.5811 109.853 24.5808C109.853 24.5811 109.853 24.5821 109.853 24.5824C109.853 24.5822 109.853 24.5827 109.853 24.5824C109.853 24.5827 109.853 24.5838 109.853 24.584C109.853 24.5837 109.853 24.5843 109.853 24.584C109.853 24.5842 109.853 24.5854 109.853 24.5857C109.853 24.5854 109.853 24.5859 109.853 24.5857C109.853 24.586 109.853 24.587 109.853 24.5873C109.853 24.587 109.853 24.5876 109.853 24.5873C109.853 24.5876 109.853 24.5887 109.853 24.5889C109.853 24.5887 109.853 24.5892 109.853 24.5889C109.853 24.5892 109.853 24.5903 109.853 24.5906C109.853 24.5903 109.853 24.5908 109.853 24.5906C109.853 24.5909 109.853 24.5919 109.853 24.5922C109.853 24.5919 109.853 24.5925 109.853 24.5922C109.853 24.5925 109.853 24.5936 109.853 24.5938C109.853 24.5935 109.853 24.5941 109.853 24.5938C109.853 24.594 109.853 24.5952 109.853 24.5955C109.853 24.5952 109.853 24.5957 109.853 24.5955C109.853 24.5958 109.853 24.5968 109.853 24.5971C109.853 24.5969 109.853 24.5974 109.853 24.5971C109.853 24.5974 109.853 24.5985 109.853 24.5987C109.853 24.5984 109.853 24.599 109.853 24.5987C109.853 24.5989 109.853 24.6001 109.853 24.6004C109.853 24.6001 109.853 24.6007 109.853 24.6004C109.853 24.6007 109.853 24.6018 109.853 24.602C109.853 24.6017 109.853 24.6023 109.853 24.602C109.853 24.6022 109.853 24.6034 109.853 24.6037C109.853 24.6034 109.853 24.604 109.853 24.6037C109.853 24.604 109.853 24.605 109.853 24.6053C109.853 24.6051 109.853 24.6056 109.853 24.6053C109.853 24.6056 109.853 24.6067 109.853 24.607C109.853 24.6067 109.853 24.6072 109.853 24.607C109.853 24.6073 109.853 24.6083 109.853 24.6086C109.853 24.6084 109.853 24.6089 109.853 24.6086C109.853 24.6089 109.853 24.61 109.853 24.6103C109.853 24.61 109.853 24.6105 109.853 24.6103C109.853 24.6106 109.853 24.6116 109.853 24.6119C109.853 24.6117 109.853 24.6122 109.853 24.6119C109.853 24.6122 109.853 24.6133 109.853 24.6136C109.853 24.6133 109.853 24.6138 109.853 24.6136C109.853 24.6139 109.853 24.615 109.853 24.6152C109.853 24.6149 109.853 24.6155 109.853 24.6152C109.853 24.6154 109.853 24.6166 109.853 24.6169C109.853 24.6166 109.853 24.6172 109.853 24.6169C109.853 24.6172 109.853 24.6183 109.853 24.6185C109.853 24.6182 109.853 24.6188 109.853 24.6185C109.853 24.6187 109.853 24.6199 109.853 24.6202C109.853 24.62 109.853 24.6205 109.853 24.6202C109.853 24.6205 109.853 24.6216 109.853 24.6219C109.853 24.6216 109.853 24.6221 109.853 24.6219C109.853 24.6222 109.853 24.6232 109.853 24.6235C109.853 24.6232 109.853 24.6238 109.853 24.6235C109.853 24.6237 109.853 24.6249 109.853 24.6252C109.853 24.6249 109.853 24.6255 109.853 24.6252C109.853 24.6255 109.853 24.6266 109.853 24.6269C109.853 24.6266 109.853 24.6271 109.853 24.6269C109.853 24.6272 109.853 24.6282 109.853 24.6285C109.853 24.6282 109.853 24.6288 109.853 24.6285C109.853 24.6287 109.853 24.6299 109.853 24.6302C109.853 24.6299 109.853 24.6305 109.853 24.6302C109.853 24.6305 109.853 24.6316 109.853 24.6319C109.853 24.6316 109.853 24.6321 109.853 24.6319C109.853 24.6322 109.853 24.6332 109.853 24.6335C109.853 24.6332 109.853 24.6338 109.853 24.6335C109.853 24.6337 109.853 24.6349 109.853 24.6352C109.853 24.635 109.853 24.6355 109.853 24.6352C109.853 24.6355 109.853 24.6366 109.853 24.6369C109.853 24.6366 109.853 24.6372 109.853 24.6369C109.853 24.6372 109.853 24.6383 109.853 24.6385C109.853 24.6382 109.853 24.6388 109.853 24.6385C109.853 24.6388 109.853 24.6399 109.853 24.6402C109.853 24.6399 109.853 24.6405 109.853 24.6402C109.853 24.6404 109.853 24.6416 109.853 24.6419C109.853 24.6417 109.853 24.6422 109.853 24.6419C109.853 24.6422 109.853 24.6433 109.853 24.6436C109.853 24.6433 109.853 24.6439 109.853 24.6436C109.853 24.6439 109.853 24.645 109.853 24.6453C109.853 24.645 109.853 24.6455 109.853 24.6453C109.853 24.6456 109.853 24.6467 109.853 24.6469C109.853 24.6466 109.853 24.6472 109.853 24.6469C109.853 24.6472 109.853 24.6483 109.853 24.6486C109.853 24.6483 109.853 24.6489 109.853 24.6486C109.853 24.6489 109.853 24.65 109.853 24.6503C109.853 24.65 109.853 24.6506 109.853 24.6503C109.853 24.6505 109.853 24.6517 109.853 24.652C109.853 24.6518 109.853 24.6523 109.853 24.652C109.853 24.6523 109.853 24.6534 109.853 24.6537C109.853 24.6535 109.853 24.654 109.853 24.6537C109.853 24.654 109.853 24.6551 109.853 24.6554C109.853 24.6551 109.853 24.6557 109.853 24.6554C109.853 24.6557 109.853 24.6568 109.853 24.6571C109.853 24.6568 109.853 24.6574 109.853 24.6571C109.853 24.6574 109.853 24.6585 109.853 24.6588C109.853 24.6585 109.853 24.659 109.853 24.6588C109.853 24.6591 109.853 24.6602 109.853 24.6605C109.853 24.6602 109.853 24.6607 109.853 24.6605C109.853 24.6608 109.853 24.6619 109.853 24.6622C109.853 24.6619 109.853 24.6624 109.853 24.6622C109.853 24.6625 109.853 24.6636 109.853 24.6638C109.853 24.6635 109.853 24.6641 109.853 24.6638C109.853 24.6641 109.853 24.6653 109.853 24.6655C109.853 24.6652 109.853 24.6658 109.853 24.6655C109.853 24.6658 109.853 24.667 109.853 24.6672C109.853 24.6669 109.853 24.6675 109.853 24.6672C109.853 24.6675 109.853 24.6687 109.853 24.6689C109.853 24.6686 109.853 24.6692 109.853 24.6689C109.853 24.6692 109.853 24.6704 109.853 24.6707C109.853 24.6704 109.853 24.6709 109.853 24.6707C109.853 24.671 109.853 24.6721 109.853 24.6724C109.853 24.6721 109.853 24.6726 109.853 24.6724C109.853 24.6727 109.853 24.6738 109.853 24.6741C109.853 24.6738 109.853 24.6743 109.853 24.6741C109.853 24.6744 109.853 24.6755 109.853 24.6758C109.853 24.6755 109.853 24.6761 109.853 24.6758C109.853 24.6761 109.853 24.6772 109.853 24.6775C109.853 24.6772 109.853 24.6778 109.853 24.6775C109.853 24.6778 109.853 24.6789 109.853 24.6792C109.853 24.679 109.853 24.6795 109.853 24.6792C109.853 24.6795 109.853 24.6806 109.853 24.6809C109.853 24.6806 109.853 24.6812 109.853 24.6809C109.853 24.6811 109.853 24.6823 109.853 24.6826C109.853 24.6823 109.853 24.6829 109.853 24.6826C109.853 24.6829 109.853 24.684 109.853 24.6843C109.853 24.684 109.853 24.6846 109.853 24.6843C109.853 24.6846 109.853 24.6858 109.853 24.686C109.853 24.6857 109.853 24.6863 109.853 24.686C109.853 24.6863 109.853 24.6875 109.853 24.6878C109.853 24.6875 109.853 24.688 109.853 24.6878C109.853 24.6881 109.853 24.6892 109.853 24.6895C109.853 24.6893 109.853 24.6898 109.853 24.6895C109.853 24.6898 109.853 24.6909 109.853 24.6912C109.853 24.6909 109.853 24.6915 109.853 24.6912C109.853 24.6914 109.853 24.6926 109.853 24.6929C109.853 24.6926 109.853 24.6932 109.853 24.6929C109.853 24.6932 109.853 24.6944 109.853 24.6946C109.853 24.6943 109.853 24.6949 109.853 24.6946C109.853 24.6949 109.853 24.6961 109.853 24.6964C109.853 24.6961 109.853 24.6967 109.853 24.6964C109.853 24.6967 109.853 24.6978 109.853 24.6981C109.853 24.6978 109.853 24.6984 109.853 24.6981C109.853 24.6983 109.853 24.6995 109.853 24.6998C109.853 24.6995 109.853 24.7001 109.853 24.6998C109.853 24.7001 109.853 24.7013 109.853 24.7016C109.853 24.7013 109.853 24.7018 109.853 24.7016C109.853 24.7019 109.853 24.703 109.853 24.7033C109.853 24.7031 109.853 24.7036 109.853 24.7033C109.853 24.7036 109.853 24.7047 109.853 24.705C109.853 24.7047 109.853 24.7053 109.853 24.705C109.853 24.7053 109.853 24.7065 109.853 24.7067C109.853 24.7064 109.853 24.707 109.853 24.7067C109.853 24.707 109.853 24.7082 109.853 24.7085C109.853 24.7082 109.853 24.7088 109.853 24.7085C109.853 24.7087 109.853 24.7099 109.853 24.7102C109.853 24.7099 109.853 24.7105 109.853 24.7102C109.853 24.7105 109.853 24.7117 109.853 24.712C109.853 24.7117 109.853 24.7122 109.853 24.712C109.853 24.7123 109.853 24.7134 109.853 24.7137C109.853 24.7134 109.853 24.714 109.853 24.7137C109.853 24.714 109.853 24.7151 109.853 24.7154C109.853 24.7151 109.853 24.7157 109.853 24.7154C109.853 24.7157 109.853 24.7169 109.853 24.7172C109.853 24.7169 109.853 24.7175 109.853 24.7172C109.853 24.7174 109.853 24.7186 109.853 24.7189C109.853 24.7186 109.853 24.7192 109.853 24.7189C109.853 24.7192 109.853 24.7204 109.853 24.7207C109.853 24.7205 109.853 24.721 109.853 24.7207C109.853 24.721 109.853 24.7221 109.853 24.7224C109.853 24.7221 109.853 24.7227 109.853 24.7224C109.853 24.7227 109.853 24.7239 109.853 24.7242C109.853 24.7239 109.853 24.7245 109.853 24.7242C109.853 24.7245 109.853 24.7256 109.853 24.7259C109.853 24.7256 109.853 24.7262 109.853 24.7259C109.853 24.7262 109.853 24.7274 109.853 24.7277C109.853 24.7275 109.853 24.728 109.853 24.7277C109.853 24.728 109.853 24.7291 109.853 24.7294C109.853 24.7291 109.853 24.7297 109.853 24.7294C109.853 24.7297 109.853 24.7309 109.853 24.7312C109.853 24.7309 109.853 24.7315 109.853 24.7312C109.853 24.7314 109.853 24.7326 109.853 24.7329C109.853 24.7326 109.853 24.7332 109.853 24.7329C109.853 24.7332 109.853 24.7344 109.853 24.7347C109.853 24.7344 109.853 24.735 109.853 24.7347C109.853 24.735 109.853 24.7362 109.853 24.7364C109.853 24.7361 109.853 24.7367 109.853 24.7364C109.853 24.7367 109.853 24.7379 109.853 24.7382C109.853 24.7379 109.853 24.7385 109.853 24.7382C109.853 24.7385 109.853 24.7397 109.853 24.74C109.853 24.7398 109.853 24.7403 109.853 24.74C109.853 24.7403 109.853 24.7414 109.853 24.7417C109.853 24.7414 109.853 24.742 109.853 24.7417C109.853 24.742 109.853 24.7432 109.853 24.7435C109.853 24.7432 109.853 24.7438 109.853 24.7435C109.853 24.7438 109.853 24.745 109.853 24.7453C109.853 24.745 109.853 24.7456 109.853 24.7453C109.853 24.7456 109.853 24.7467 109.853 24.747C109.853 24.7467 109.853 24.7473 109.853 24.747C109.853 24.7473 109.853 24.7485 109.853 24.7488C109.853 24.7485 109.853 24.7491 109.853 24.7488C109.853 24.7491 109.853 24.7503 109.853 24.7506C109.853 24.7503 109.853 24.7509 109.853 24.7506C109.853 24.7508 109.853 24.752 109.853 24.7523C109.853 24.752 109.853 24.7526 109.853 24.7523C109.853 24.7526 109.853 24.7538 109.853 24.7541C109.853 24.7538 109.853 24.7544 109.853 24.7541C109.853 24.7544 109.853 24.7556 109.853 24.7559C109.853 24.7556 109.853 24.7562 109.853 24.7559C109.853 24.7562 109.853 24.7574 109.853 24.7577C109.853 24.7574 109.853 24.758 109.853 24.7577C109.853 24.7579 109.853 24.7591 109.853 24.7594C109.853 24.7591 109.853 24.7597 109.853 24.7594C109.853 24.7597 109.853 24.7609 109.853 24.7612C109.853 24.7609 109.853 24.7615 109.853 24.7612C109.853 24.7615 109.853 24.7627 109.853 24.763C109.853 24.7627 109.853 24.7633 109.853 24.763C109.853 24.7633 109.853 24.7645 109.853 24.7648C109.853 24.7645 109.853 24.7651 109.853 24.7648C109.853 24.7651 109.853 24.7663 109.853 24.7666C109.853 24.7663 109.853 24.7669 109.853 24.7666C109.853 24.7669 109.853 24.7681 109.853 24.7683C109.853 24.768 109.853 24.7686 109.853 24.7683C109.853 24.7686 109.853 24.7698 109.853 24.7701C109.853 24.7698 109.853 24.7704 109.853 24.7701C109.853 24.7704 109.853 24.7716 109.853 24.7719C109.853 24.7716 109.853 24.7722 109.853 24.7719C109.853 24.7722 109.853 24.7734 109.853 24.7737C109.853 24.7734 109.853 24.774 109.853 24.7737C109.853 24.774 109.853 24.7752 109.853 24.7755C109.853 24.7752 109.853 24.7758 109.853 24.7755C109.853 24.7758 109.853 24.777 109.853 24.7773C109.853 24.777 109.853 24.7776 109.853 24.7773C109.853 24.7776 109.853 24.7788 109.853 24.7791C109.853 24.7788 109.853 24.7794 109.853 24.7791C109.853 24.7794 109.853 24.7806 109.853 24.7809C109.853 24.7806 109.853 24.7812 109.853 24.7809C109.853 24.7812 109.853 24.7824 109.853 24.7827C109.853 24.7824 109.853 24.783 109.853 24.7827C109.853 24.783 109.853 24.7842 109.853 24.7845C109.853 24.7842 109.853 24.7848 109.853 24.7845C109.853 24.7848 109.853 24.786 109.853 24.7863C109.853 24.786 109.853 24.7866 109.853 24.7863C109.853 24.7866 109.853 24.7878 109.853 24.7881C109.853 24.7878 109.853 24.7884 109.853 24.7881C109.853 24.7884 109.853 24.7896 109.853 24.7899C109.853 24.7896 109.853 24.7902 109.853 24.7899C109.853 24.7902 109.853 24.7914 109.853 24.7917C109.853 24.7914 109.853 24.792 109.853 24.7917C109.853 24.792 109.853 24.7932 109.853 24.7935C109.853 24.7932 109.853 24.7938 109.853 24.7935C109.853 24.7938 109.853 24.795 109.853 24.7953C109.853 24.795 109.853 24.7956 109.853 24.7953C109.853 24.7956 109.853 24.7968 109.853 24.7971C109.853 24.7968 109.853 24.7974 109.853 24.7971C109.853 24.7974 109.853 24.7986 109.853 24.7989C109.853 24.7986 109.853 24.7992 109.853 24.7989C109.853 24.7992 109.853 24.8004 109.853 24.8007C109.853 24.8004 109.853 24.801 109.853 24.8007C109.853 24.801 109.853 24.8022 109.853 24.8025C109.853 24.8022 109.853 24.8028 109.853 24.8025C109.853 24.8029 109.853 24.8041 109.853 24.8044C109.853 24.8041 109.853 24.8047 109.853 24.8044C109.853 24.8047 109.853 24.8059 109.853 24.8062C109.853 24.8059 109.853 24.8065 109.853 24.8062C109.853 24.8065 109.853 24.8077 109.853 24.808C109.853 24.8077 109.853 24.8083 109.853 24.808C109.853 24.8083 109.853 24.8095 109.853 24.8098C109.853 24.8095 109.853 24.8101 109.853 24.8098C109.853 24.8101 109.853 24.8113 109.853 24.8116C109.853 24.8113 109.853 24.8119 109.853 24.8116C109.853 24.8119 109.853 24.8131 109.853 24.8134C109.853 24.8131 109.853 24.8138 109.853 24.8134C109.853 24.8137 109.853 24.815 109.853 24.8153C109.853 24.815 109.853 24.8156 109.853 24.8153C109.853 24.8156 109.853 24.8168 109.853 24.8171C109.853 24.8168 109.853 24.8174 109.853 24.8171C109.853 24.8174 109.853 24.8186 109.853 24.8189C109.853 24.8186 109.853 24.8192 109.853 24.8189C109.853 24.8192 109.853 24.8204 109.853 24.8207C109.853 24.8204 109.853 24.8211 109.853 24.8207C109.853 24.821 109.853 24.8223 109.853 24.8226C109.853 24.8223 109.853 24.8229 109.853 24.8226C109.853 24.8229 109.853 24.8241 109.853 24.8244C109.853 24.8241 109.853 24.8247 109.853 24.8244C109.853 24.8247 109.853 24.8259 109.853 24.8262C109.853 24.8259 109.853 24.8265 109.853 24.8262C109.853 24.8265 109.853 24.8278 109.853 24.8281C109.853 24.8278 109.853 24.8284 109.853 24.8281C109.853 24.8284 109.853 24.8296 109.853 24.8299C109.853 24.8296 109.853 24.8302 109.853 24.8299C109.853 24.8302 109.853 24.8314 109.853 24.8317C109.853 24.8321 109.853 24.8324 109.853 24.8327C109.853 24.8324 109.853 24.833 109.853 24.8327C109.853 24.833 109.853 24.8342 109.853 24.8345C109.853 24.8342 109.853 24.8348 109.853 24.8345C109.853 24.8348 109.853 24.836 109.853 24.8363C109.853 24.836 109.853 24.8366 109.853 24.8363C109.853 24.8366 109.853 24.8379 109.853 24.8382C109.853 24.8379 109.853 24.8385 109.853 24.8382C109.853 24.8385 109.853 24.8397 109.853 24.84C109.853 24.8397 109.853 24.8403 109.853 24.84C109.853 24.8404 109.853 24.8416 109.853 24.8419C109.853 24.8416 109.853 24.8422 109.853 24.8419C109.853 24.8422 109.853 24.8434 109.853 24.8437C109.853 24.8434 109.853 24.844 109.853 24.8437C109.853 24.844 109.853 24.8453 109.853 24.8456C109.853 24.8453 109.853 24.8459 109.853 24.8456C109.853 24.8459 109.853 24.8471 109.853 24.8474C109.853 24.8471 109.853 24.8477 109.853 24.8474C109.853 24.8477 109.853 24.849 109.853 24.8493C109.853 24.849 109.853 24.8496 109.853 24.8493C109.853 24.8496 109.853 24.8508 109.853 24.8511C109.853 24.8508 109.853 24.8514 109.853 24.8511C109.853 24.8514 109.853 24.8527 109.853 24.853C109.853 24.8527 109.853 24.8533 109.853 24.853C109.853 24.8533 109.853 24.8545 109.853 24.8548C109.853 24.8545 109.853 24.8551 109.853 24.8548C109.853 24.8552 109.853 24.8564 109.853 24.8567C109.853 24.8564 109.853 24.857 109.853 24.8567C109.853 24.857 109.853 24.8582 109.853 24.8585C109.853 24.8588 109.853 24.8592 109.853 24.8595C109.853 24.8592 109.853 24.8598 109.853 24.8595C109.853 24.8598 109.853 24.861 109.853 24.8613C109.853 24.8616 109.853 24.8619 109.853 24.8623C109.853 24.862 109.853 24.8626 109.853 24.8623C109.853 24.8626 109.853 24.8638 109.853 24.8641C109.853 24.8638 109.853 24.8644 109.853 24.8641C109.853 24.8645 109.853 24.8657 109.853 24.866C109.853 24.8657 109.853 24.8663 109.853 24.866C109.853 24.8663 109.853 24.8675 109.853 24.8678C109.853 24.8675 109.853 24.8682 109.853 24.8678C109.853 24.8681 109.853 24.8694 109.853 24.8697C109.853 24.8694 109.853 24.87 109.853 24.8697C109.853 24.8701 109.853 24.8713 109.853 24.8716C109.853 24.8713 109.853 24.8719 109.853 24.8716C109.853 24.8719 109.853 24.8731 109.853 24.8734C109.853 24.8731 109.853 24.8738 109.853 24.8734C109.853 24.8737 109.853 24.875 109.853 24.8753C109.853 24.8756 109.853 24.8759 109.853 24.8763C109.853 24.876 109.853 24.8766 109.853 24.8763C109.853 24.8766 109.853 24.8778 109.853 24.8781C109.853 24.8784 109.853 24.8796 109.853 24.88C109.853 24.8797 109.853 24.8803 109.853 24.88H111.853ZM111.853 24.448C111.853 22.7253 111.363 21.2595 110.221 20.2446L108.892 21.7394C109.478 22.2605 109.853 23.0987 109.853 24.448H111.853ZM110.221 20.2446C109.164 19.3049 107.884 18.84 106.437 18.84V20.84C107.421 20.84 108.221 21.1431 108.892 21.7394L110.221 20.2446ZM122.492 4.47998V3.47998H121.492V4.47998H122.492ZM128.012 4.47998H129.012V3.47998H128.012V4.47998ZM128.348 34.528L127.453 34.9752L127.473 35.0146L127.496 35.0521L128.348 34.528ZM130.556 35.152H131.556V34.152H130.556V35.152ZM130.556 40.24V41.24H131.556V40.24H130.556ZM123.02 36.496L122.068 36.8038L122.072 36.8164L122.077 36.8288L123.02 36.496ZM123.492 33.136V4.47998H121.492V33.136H123.492ZM122.492 5.47998H128.012V3.47998H122.492V5.47998ZM127.012 4.47998V33.136H129.012V4.47998H127.012ZM127.012 33.136C127.012 33.7781 127.163 34.3946 127.453 34.9752L129.242 34.0808C129.084 33.7654 129.012 33.4539 129.012 33.136H127.012ZM127.496 35.0521C128.007 35.8828 128.904 36.152 129.788 36.152V34.152C129.528 34.152 129.377 34.1127 129.297 34.0784C129.231 34.0499 129.212 34.0247 129.199 34.0039L127.496 35.0521ZM129.788 36.152H130.556V34.152H129.788V36.152ZM129.556 35.152V40.24H131.556V35.152H129.556ZM130.556 39.24H129.212V41.24H130.556V39.24ZM129.212 39.24C127.494 39.24 126.346 38.9048 125.627 38.3776L124.444 39.9904C125.645 40.8712 127.281 41.24 129.212 41.24V39.24ZM125.627 38.3776C124.824 37.7885 124.278 37.0552 123.963 36.1632L122.077 36.8288C122.53 38.1128 123.328 39.1715 124.444 39.9904L125.627 38.3776ZM123.971 36.1882C123.652 35.2004 123.492 34.1843 123.492 33.136H121.492C121.492 34.3917 121.684 35.6156 122.068 36.8038L123.971 36.1882ZM146.231 40H145.231V41H146.231V40ZM146.231 7.35998V6.35998H145.231V7.35998H146.231ZM161.927 8.41598L161.48 9.31044L161.488 9.31436L161.927 8.41598ZM164.999 11.392L164.095 11.8211L164.1 11.8302L164.104 11.8392L164.999 11.392ZM162.695 23.056L162.169 22.2052L160.474 23.2524L162.327 23.9858L162.695 23.056ZM166.439 35.824L167.338 36.2624L167.342 36.2539L166.439 35.824ZM151.991 12.64V11.64H150.991V12.64H151.991ZM151.991 20.8H150.991V21.8H151.991V20.8ZM159.047 19.936L159.716 20.6793L159.718 20.6775L159.047 19.936ZM159.047 13.504L158.378 14.2473L158.387 14.2554L158.396 14.2633L159.047 13.504ZM151.991 26.08V25.08H150.991V26.08H151.991ZM151.991 34.72H150.991V35.72H151.991V34.72ZM160.439 27.04L159.766 27.7799L159.775 27.7885L159.785 27.7968L160.439 27.04ZM147.231 40V7.35998H145.231V40H147.231ZM146.231 8.35998H156.167V6.35998H146.231V8.35998ZM156.167 8.35998C158.52 8.35998 160.266 8.70348 161.48 9.31044L162.374 7.52155C160.772 6.7205 158.677 6.35998 156.167 6.35998V8.35998ZM161.488 9.31436C162.752 9.9327 163.597 10.7721 164.095 11.8211L165.902 10.9629C165.184 9.45187 163.981 8.30726 162.366 7.51759L161.488 9.31436ZM164.104 11.8392C164.662 12.9545 164.959 14.2994 164.959 15.904H166.959C166.959 14.0526 166.616 12.3895 165.893 10.9448L164.104 11.8392ZM164.959 15.904V17.248H166.959V15.904H164.959ZM164.959 17.248C164.959 19.4244 164.055 21.0408 162.169 22.2052L163.22 23.9068C165.687 22.3832 166.959 20.1276 166.959 17.248H164.959ZM162.327 23.9858C163.713 24.5344 164.709 25.3033 165.377 26.2664L167.02 25.1256C166.089 23.7847 164.749 22.7936 163.063 22.1262L162.327 23.9858ZM165.377 26.2664C166.045 27.2281 166.399 28.3982 166.399 29.824H168.399C168.399 28.0498 167.952 26.4679 167.02 25.1256L165.377 26.2664ZM166.399 29.824V31.168H168.399V29.824H166.399ZM166.399 31.168C166.399 32.8061 166.101 34.2067 165.536 35.3941L167.342 36.2539C168.056 34.7533 168.399 33.0499 168.399 31.168H166.399ZM165.54 35.3856C165.008 36.4752 164.125 37.3507 162.824 38.0016L163.718 39.7904C165.36 38.9693 166.589 37.7968 167.338 36.2624L165.54 35.3856ZM162.824 38.0016C161.542 38.6422 159.746 39 157.367 39V41C159.915 41 162.055 40.6218 163.718 39.7904L162.824 38.0016ZM157.367 39H146.231V41H157.367V39ZM156.167 11.64H151.991V13.64H156.167V11.64ZM150.991 12.64V20.8H152.991V12.64H150.991ZM151.991 21.8H156.167V19.8H151.991V21.8ZM156.167 21.8C157.576 21.8 158.82 21.4851 159.716 20.6793L158.378 19.1927C157.993 19.5389 157.317 19.8 156.167 19.8V21.8ZM159.718 20.6775C160.628 19.8543 161.055 18.7539 161.055 17.488H159.055C159.055 18.2701 158.81 18.8017 158.376 19.1945L159.718 20.6775ZM161.055 17.488V15.904H159.055V17.488H161.055ZM161.055 15.904C161.055 14.639 160.627 13.5415 159.698 12.7447L158.396 14.2633C158.81 14.6185 159.055 15.121 159.055 15.904H161.055ZM159.716 12.7607C158.82 11.9549 157.576 11.64 156.167 11.64V13.64C157.317 13.64 157.993 13.9011 158.378 14.2473L159.716 12.7607ZM157.367 25.08H151.991V27.08H157.367V25.08ZM150.991 26.08V34.72H152.991V26.08H150.991ZM151.991 35.72H157.367V33.72H151.991V35.72ZM157.367 35.72C158.857 35.72 160.16 35.3653 161.111 34.4999L159.766 33.0201C159.31 33.4347 158.564 33.72 157.367 33.72V35.72ZM161.111 34.4999C162.055 33.6423 162.495 32.4931 162.495 31.168H160.495C160.495 32.0189 160.231 32.5976 159.766 33.0201L161.111 34.4999ZM162.495 31.168V29.584H160.495V31.168H162.495ZM162.495 29.584C162.495 28.2599 162.054 27.1141 161.092 26.2832L159.785 27.7968C160.231 28.1819 160.495 28.7321 160.495 29.584H162.495ZM161.111 26.3001C160.16 25.4347 158.857 25.08 157.367 25.08V27.08C158.564 27.08 159.31 27.3653 159.766 27.7799L161.111 26.3001ZM173.445 4.47998V3.47998H172.445V4.47998H173.445ZM178.965 4.47998H179.965V3.47998H178.965V4.47998ZM179.301 34.528L178.406 34.9752L178.426 35.0146L178.449 35.0521L179.301 34.528ZM181.509 35.152H182.509V34.152H181.509V35.152ZM181.509 40.24V41.24H182.509V40.24H181.509ZM173.973 36.496L173.021 36.8038L173.025 36.8164L173.03 36.8288L173.973 36.496ZM174.445 33.136V4.47998H172.445V33.136H174.445ZM173.445 5.47998H178.965V3.47998H173.445V5.47998ZM177.965 4.47998V33.136H179.965V4.47998H177.965ZM177.965 33.136C177.965 33.7781 178.116 34.3946 178.406 34.9752L180.195 34.0808C180.038 33.7654 179.965 33.4539 179.965 33.136H177.965ZM178.449 35.0521C178.96 35.8828 179.857 36.152 180.741 36.152V34.152C180.481 34.152 180.33 34.1127 180.25 34.0784C180.185 34.0499 180.165 34.0247 180.153 34.0039L178.449 35.0521ZM180.741 36.152H181.509V34.152H180.741V36.152ZM180.509 35.152V40.24H182.509V35.152H180.509ZM181.509 39.24H180.165V41.24H181.509V39.24ZM180.165 39.24C178.447 39.24 177.299 38.9048 176.58 38.3776L175.398 39.9904C176.599 40.8712 178.235 41.24 180.165 41.24V39.24ZM176.58 38.3776C175.777 37.7885 175.231 37.0552 174.916 36.1632L173.03 36.8288C173.483 38.1128 174.281 39.1715 175.398 39.9904L176.58 38.3776ZM174.924 36.1882C174.605 35.2004 174.445 34.1843 174.445 33.136H172.445C172.445 34.3917 172.637 35.6156 173.021 36.8038L174.924 36.1882ZM188.199 18.256L187.458 17.5845L187.457 17.5851L188.199 18.256ZM203.991 18.256L203.244 18.9211L203.249 18.9272L203.255 18.9333L203.991 18.256ZM199.815 21.808L199.023 22.4189L199.031 22.4299L199.815 21.808ZM192.423 21.808L193.206 22.4299L193.214 22.4188L192.423 21.808ZM205.775 26.368V29.248H207.775V26.368H205.775ZM205.775 29.248C205.775 32.4508 204.903 34.9119 203.25 36.7365L204.731 38.0795C206.79 35.8081 207.775 32.8292 207.775 29.248H205.775ZM203.25 36.7365C201.625 38.529 199.297 39.48 196.119 39.48V41.48C199.724 41.48 202.644 40.383 204.731 38.0795L203.25 36.7365ZM196.119 39.48C192.94 39.48 190.612 38.529 188.987 36.7365L187.506 38.0795C189.593 40.383 192.513 41.48 196.119 41.48V39.48ZM188.987 36.7365C187.334 34.9119 186.463 32.4508 186.463 29.248H184.463C184.463 32.8292 185.447 35.8081 187.506 38.0795L188.987 36.7365ZM186.463 29.248V26.368H184.463V29.248H186.463ZM186.463 26.368C186.463 23.16 187.321 20.7166 188.94 18.9269L187.457 17.5851C185.428 19.8274 184.463 22.792 184.463 26.368H186.463ZM188.939 18.9275C190.562 17.137 192.904 16.184 196.119 16.184V14.184C192.485 14.184 189.547 15.279 187.458 17.5845L188.939 18.9275ZM196.119 16.184C199.334 16.184 201.655 17.1372 203.244 18.9211L204.737 17.5909C202.678 15.2788 199.751 14.184 196.119 14.184V16.184ZM203.255 18.9333C204.903 20.7234 205.775 23.1645 205.775 26.368H207.775C207.775 22.7875 206.79 19.8206 204.726 17.5787L203.255 18.9333ZM202.111 26.368C202.111 24.2799 201.649 22.5104 200.598 21.1861L199.031 22.4299C199.708 23.2816 200.111 24.5521 200.111 26.368H202.111ZM200.606 21.1972C199.526 19.7973 197.982 19.128 196.119 19.128V21.128C197.455 21.128 198.375 21.5788 199.023 22.4189L200.606 21.1972ZM196.119 19.128C194.255 19.128 192.711 19.7973 191.631 21.1972L193.214 22.4188C193.862 21.5787 194.782 21.128 196.119 21.128V19.128ZM191.639 21.1861C190.588 22.5104 190.127 24.2799 190.127 26.368H192.127C192.127 24.5521 192.529 23.2816 193.206 22.4299L191.639 21.1861ZM190.127 26.368V29.248H192.127V26.368H190.127ZM190.127 29.248C190.127 31.3384 190.589 33.116 191.631 34.4668L193.214 33.2452C192.528 32.356 192.127 31.0616 192.127 29.248H190.127ZM191.631 34.4668C192.711 35.8667 194.255 36.536 196.119 36.536V34.536C194.782 34.536 193.862 34.0853 193.214 33.2452L191.631 34.4668ZM196.119 36.536C197.982 36.536 199.526 35.8667 200.606 34.4668L199.023 33.2452C198.375 34.0853 197.455 34.536 196.119 34.536V36.536ZM200.606 34.4668C201.648 33.116 202.111 31.3384 202.111 29.248H200.111C200.111 31.0616 199.709 32.356 199.023 33.2452L200.606 34.4668ZM202.111 29.248V26.368H200.111V29.248H202.111ZM230.1 48.496L229.525 47.678L229.517 47.6831L229.51 47.6884L230.1 48.496ZM211.044 48.208L210.104 47.8671L209.814 48.6655L210.555 49.0805L211.044 48.208ZM212.628 43.84L213.075 42.9456L212.071 42.4433L211.688 43.4991L212.628 43.84ZM217.188 45.472L217.416 44.4983L217.406 44.496L217.396 44.4939L217.188 45.472ZM213.684 38.224L212.803 38.6981L212.807 38.7054L212.811 38.7126L213.684 38.224ZM213.588 33.04L212.693 32.5928L212.69 32.6L212.686 32.6073L213.588 33.04ZM215.268 30.736L215.975 31.4431L216.873 30.545L215.789 29.8827L215.268 30.736ZM212.484 27.904L211.614 28.3976L211.619 28.4064L211.624 28.4151L212.484 27.904ZM215.94 16.144L216.344 17.0587L216.354 17.0544L215.94 16.144ZM223.284 15.328L223.128 16.3158L223.153 16.3198L223.179 16.3225L223.284 15.328ZM225.012 15.664L224.73 16.6234L224.868 16.664H225.012V15.664ZM233.7 15.664H234.7V14.664H233.7V15.664ZM233.7 20.368L233.542 21.3554L234.7 21.5407V20.368H233.7ZM228.9 19.6L229.058 18.6126L226.17 18.1505L228.17 20.2839L228.9 19.6ZM230.004 21.52L229.055 21.8362L229.063 21.8605L229.073 21.8844L230.004 21.52ZM229.188 28.48L228.37 27.905L228.367 27.9096L229.188 28.48ZM225.924 31.168L226.336 32.0792L226.346 32.0747L225.924 31.168ZM218.772 31.936L218.936 30.9496L218.401 30.8604L218.035 31.2603L218.772 31.936ZM218.004 33.136L218.927 33.5206L218.932 33.5079L218.937 33.495L218.004 33.136ZM231.108 37.648L230.457 38.4073L230.467 38.4155L230.477 38.4236L231.108 37.648ZM224.004 26.56L223.345 25.8074L223.337 25.8144L223.33 25.8215L224.004 26.56ZM224.004 20.704L223.33 21.4425L223.337 21.4496L223.345 21.4566L224.004 20.704ZM217.908 20.704L217.249 19.9514L217.241 19.9584L217.234 19.9655L217.908 20.704ZM217.908 26.56L217.234 27.2985L217.241 27.3056L217.249 27.3126L217.908 26.56ZM232.172 42.448C232.172 44.7281 231.295 46.433 229.525 47.678L230.675 49.314C233 47.679 234.172 45.3519 234.172 42.448H232.172ZM229.51 47.6884C227.727 48.9905 225.147 49.704 221.652 49.704V51.704C225.389 51.704 228.441 50.9455 230.69 49.3036L229.51 47.6884ZM221.652 49.704C220.031 49.704 218.306 49.5205 216.475 49.1481L216.077 51.1079C218.021 51.5035 219.881 51.704 221.652 51.704V49.704ZM216.475 49.1481C214.683 48.7836 213.038 48.1784 211.532 47.3355L210.555 49.0805C212.25 50.0296 214.092 50.7044 216.077 51.1079L216.475 49.1481ZM211.984 48.5489L213.568 44.1809L211.688 43.4991L210.104 47.8671L211.984 48.5489ZM212.181 44.7344C213.784 45.536 215.384 46.1105 216.98 46.4501L217.396 44.4939C215.984 44.1935 214.544 43.68 213.075 42.9456L212.181 44.7344ZM216.96 46.4457C218.533 46.8139 220.082 47 221.604 47V45C220.246 45 218.85 44.8341 217.416 44.4983L216.96 46.4457ZM221.604 47C223.682 47 225.406 46.7242 226.67 46.073L225.754 44.295C224.906 44.7318 223.557 45 221.604 45V47ZM226.67 46.073C227.932 45.4226 228.796 44.418 228.796 43.024H226.796C226.796 43.422 226.603 43.8574 225.754 44.295L226.67 46.073ZM228.796 43.024C228.796 42.1329 228.524 41.2975 227.828 40.7115C227.166 40.153 226.28 39.96 225.348 39.96V41.96C226.047 41.96 226.386 42.111 226.539 42.2405C226.66 42.3425 226.796 42.5391 226.796 43.024H228.796ZM225.348 39.96H219.588V41.96H225.348V39.96ZM219.588 39.96C218.116 39.96 217.032 39.7178 216.266 39.3096L215.325 41.0744C216.48 41.6902 217.923 41.96 219.588 41.96V39.96ZM216.266 39.3096C215.443 38.8707 214.895 38.3394 214.556 37.7354L212.811 38.7126C213.369 39.7086 214.228 40.4893 215.325 41.0744L216.266 39.3096ZM214.564 37.7499C214.19 37.0554 214.012 36.3534 214.012 35.632H212.012C212.012 36.7026 212.281 37.7286 212.803 38.6981L214.564 37.7499ZM214.012 35.632C214.012 34.8468 214.173 34.1315 214.489 33.4727L212.686 32.6073C212.235 33.5485 212.012 34.5612 212.012 35.632H214.012ZM214.482 33.4872C214.847 32.7579 215.342 32.0765 215.975 31.4431L214.561 30.0289C213.786 30.8035 213.161 31.6581 212.693 32.5928L214.482 33.4872ZM215.789 29.8827C214.779 29.2654 213.966 28.44 213.343 27.3929L211.624 28.4151C212.41 29.736 213.453 30.7986 214.746 31.5893L215.789 29.8827ZM213.354 27.4104C212.784 26.407 212.476 25.1612 212.476 23.632H210.476C210.476 25.4308 210.84 27.033 211.614 28.3976L213.354 27.4104ZM212.476 23.632C212.476 21.8834 212.846 20.5159 213.518 19.4677L211.834 18.3883C210.906 19.8361 210.476 21.6046 210.476 23.632H212.476ZM213.518 19.4677C214.21 18.3875 215.145 17.5886 216.344 17.0587L215.536 15.2293C213.983 15.9154 212.742 16.9725 211.834 18.3883L213.518 19.4677ZM216.354 17.0544C217.62 16.4789 219.029 16.184 220.596 16.184V14.184C218.771 14.184 217.076 14.5291 215.526 15.2336L216.354 17.0544ZM220.596 16.184H221.412V14.184H220.596V16.184ZM221.412 16.184C222.002 16.184 222.574 16.2282 223.128 16.3158L223.44 14.3402C222.778 14.2358 222.102 14.184 221.412 14.184V16.184ZM223.179 16.3225C223.732 16.3807 224.248 16.4817 224.73 16.6234L225.294 14.7046C224.688 14.5263 224.052 14.4033 223.389 14.3335L223.179 16.3225ZM225.012 16.664H233.7V14.664H225.012V16.664ZM232.7 15.664V20.368H234.7V15.664H232.7ZM233.858 19.3806L229.058 18.6126L228.742 20.5874L233.542 21.3554L233.858 19.3806ZM228.17 20.2839C228.538 20.6756 228.838 21.1842 229.055 21.8362L230.953 21.2038C230.658 20.3198 230.222 19.5484 229.629 18.9161L228.17 20.2839ZM229.073 21.8844C229.302 22.4695 229.436 23.2489 229.436 24.256H231.436C231.436 23.0871 231.282 22.0425 230.935 21.1556L229.073 21.8844ZM229.436 24.256C229.436 25.7096 229.069 26.9104 228.37 27.905L230.006 29.0549C230.971 27.6815 231.436 26.0664 231.436 24.256H229.436ZM228.367 27.9096C227.676 28.9042 226.731 29.6897 225.502 30.2613L226.346 32.0747C227.869 31.3663 229.1 30.3598 230.009 29.0504L228.367 27.9096ZM225.512 30.2569C224.313 30.7992 222.952 31.08 221.412 31.08V33.08C223.2 33.08 224.847 32.7529 226.336 32.0792L225.512 30.2569ZM221.412 31.08H220.596V33.08H221.412V31.08ZM220.596 31.08C220.006 31.08 219.453 31.0357 218.936 30.9496L218.607 32.9224C219.243 33.0283 219.906 33.08 220.596 33.08V31.08ZM218.035 31.2603C217.612 31.7213 217.282 32.2261 217.071 32.777L218.937 33.495C219.045 33.2139 219.228 32.9187 219.509 32.6117L218.035 31.2603ZM217.081 32.7514C216.879 33.2355 216.764 33.7343 216.764 34.24H218.764C218.764 34.0417 218.809 33.8045 218.927 33.5206L217.081 32.7514ZM216.764 34.24C216.764 35.0306 217.031 35.7767 217.69 36.2894C218.301 36.7649 219.102 36.92 219.924 36.92V34.92C219.306 34.92 219.026 34.7951 218.918 34.7106C218.857 34.6633 218.764 34.5694 218.764 34.24H216.764ZM219.924 36.92H225.78V34.92H219.924V36.92ZM225.78 36.92C227.81 36.92 229.336 37.4462 230.457 38.4073L231.759 36.8887C230.192 35.5458 228.166 34.92 225.78 34.92V36.92ZM230.477 38.4236C231.578 39.3199 232.172 40.611 232.172 42.448H234.172C234.172 40.125 233.39 38.2161 231.739 36.8724L230.477 38.4236ZM221.412 28.568C222.655 28.568 223.759 28.1379 224.678 27.2985L223.33 25.8215C222.777 26.3261 222.153 26.568 221.412 26.568V28.568ZM224.662 27.3126C225.701 26.4042 226.156 25.1213 226.156 23.632H224.156C224.156 24.7027 223.843 25.3718 223.345 25.8074L224.662 27.3126ZM226.156 23.632C226.156 22.1427 225.701 20.8598 224.662 19.9514L223.345 21.4566C223.843 21.8922 224.156 22.5613 224.156 23.632H226.156ZM224.678 19.9655C223.759 19.1261 222.655 18.696 221.412 18.696V20.696C222.153 20.696 222.777 20.9379 223.33 21.4425L224.678 19.9655ZM221.412 18.696H220.596V20.696H221.412V18.696ZM220.596 18.696C219.331 18.696 218.2 19.1193 217.249 19.9514L218.566 21.4566C219.151 20.9447 219.813 20.696 220.596 20.696V18.696ZM217.234 19.9655C216.235 20.8775 215.804 22.1559 215.804 23.632H217.804C217.804 22.5481 218.109 21.8745 218.582 21.4425L217.234 19.9655ZM215.804 23.632C215.804 25.1081 216.235 26.3865 217.234 27.2985L218.582 25.8215C218.109 25.3895 217.804 24.7159 217.804 23.632H215.804ZM217.249 27.3126C218.2 28.1447 219.331 28.568 220.596 28.568V26.568C219.813 26.568 219.151 26.3193 218.566 25.8074L217.249 27.3126ZM220.596 28.568H221.412V26.568H220.596V28.568Z" fill="#2D319E"/>
</g>
<defs>
<filter id="filter0_f_125_4" x="-0.0478516" y="-0.52002" width="238.748" height="56.224" filterUnits="userSpaceOnUse" color-interpolation-filters="sRGB">
<feFlood flood-opacity="0" result="BackgroundImageFix"/>
<feBlend mode="normal" in="SourceGraphic" in2="BackgroundImageFix" result="shape"/>
<feGaussianBlur stdDeviation="2" result="effect1_foregroundBlur_125_4"/>
</filter>
</defs>
</svg>
