<svg width="235" height="49" viewBox="0 0 235 49" fill="none" xmlns="http://www.w3.org/2000/svg">
<g style="mix-blend-mode:darken" filter="url(#filter0_i_125_4)">
<path d="M1.96643 9.87998V4.35998H26.3096V9.87998H17.0592V37H11.2168V9.87998H1.96643ZM43.2571 17.704C41.7316 17.704 40.271 17.944 38.8753 18.424C37.5121 18.872 36.1975 19.608 34.9317 20.632V37H29.3328V12.664H34.6396V16.408C36.2949 14.872 37.7717 13.784 39.07 13.144C40.3684 12.504 41.764 12.184 43.2571 12.184V17.704ZM66.8563 37.24C65.201 37.24 63.8702 36.904 62.864 36.232C61.8903 35.56 61.1762 34.728 60.7218 33.736C59.3262 35.016 57.9792 35.96 56.6809 36.568C55.3825 37.176 53.9869 37.48 52.4938 37.48C50.3192 37.48 48.7125 36.792 47.6739 35.416C46.6677 34.04 46.1646 32.296 46.1646 30.184C46.1646 28.776 46.4242 27.544 46.9436 26.488C47.4953 25.4 48.3879 24.552 49.6213 23.944C50.8547 23.336 52.5425 23.032 54.6847 23.032C55.5286 23.032 56.405 23.096 57.3138 23.224C58.2226 23.32 59.1314 23.448 60.0402 23.608V20.776C60.0402 19.432 59.667 18.52 58.9204 18.04C58.1739 17.528 57.1677 17.272 55.9019 17.272C54.9281 17.272 53.857 17.4 52.6886 17.656C51.5525 17.912 50.3192 18.312 48.9884 18.856L47.3817 14.152C50.66 12.84 53.6298 12.184 56.2914 12.184C58.6932 12.184 60.5433 12.584 61.8416 13.384C63.1724 14.184 64.0974 15.24 64.6168 16.552C65.1361 17.864 65.3957 19.272 65.3957 20.776V30.136C65.3957 30.616 65.5256 31.08 65.7852 31.528C66.0773 31.944 66.6291 32.152 67.4406 32.152H67.9761V37.24H66.8563ZM51.5688 30.088C51.5688 30.952 51.7635 31.64 52.153 32.152C52.5425 32.632 53.1105 32.872 53.857 32.872C54.6036 32.872 55.4475 32.68 56.3887 32.296C57.33 31.912 58.5472 31.016 60.0402 29.608V27.544C58.3524 27.256 56.6971 27.112 55.0742 27.112C53.8084 27.112 52.8995 27.368 52.3478 27.88C51.8284 28.392 51.5688 29.128 51.5688 30.088ZM91.7442 12.664L82.9807 37H77.8686L69.105 12.664H74.7527L78.9884 24.808L80.595 29.848L82.153 24.808L86.194 12.664H91.7442ZM114.689 35.608C113.001 36.28 111.41 36.76 109.917 37.048C108.424 37.336 107.012 37.48 105.682 37.48C102.014 37.48 99.2388 36.456 97.3558 34.408C95.4732 32.36 94.5319 29.64 94.5319 26.248V23.368C94.5319 21.096 94.9539 19.128 95.7978 17.464C96.6417 15.8 97.8426 14.504 99.4011 13.576C100.959 12.648 102.793 12.184 104.903 12.184C106.623 12.184 108.23 12.536 109.723 13.24C111.248 13.912 112.482 14.984 113.423 16.456C114.397 17.896 114.883 19.752 114.883 22.024C114.883 22.696 114.835 23.416 114.737 24.184C114.64 24.92 114.478 25.704 114.25 26.536H99.9366C100.002 28.52 100.505 30.008 101.446 31C102.387 31.992 103.896 32.488 105.974 32.488C107.077 32.488 108.213 32.36 109.382 32.104C110.583 31.848 111.816 31.464 113.082 30.952L114.689 35.608ZM104.903 16.84C103.41 16.84 102.241 17.32 101.397 18.28C100.586 19.208 100.115 20.552 99.9853 22.312H109.333C109.366 22.152 109.382 22.008 109.382 21.88C109.382 21.72 109.382 21.576 109.382 21.448C109.382 19.912 108.944 18.76 108.067 17.992C107.191 17.224 106.136 16.84 104.903 16.84ZM121.187 30.136V1.47998H126.786V30.136C126.786 30.616 126.9 31.08 127.127 31.528C127.387 31.944 127.874 32.152 128.588 32.152H129.367V37.24H128.003C126.153 37.24 124.741 36.888 123.768 36.184C122.794 35.48 122.112 34.584 121.723 33.496C121.366 32.408 121.187 31.288 121.187 30.136ZM145.266 37V4.35998H155.344C157.811 4.35998 159.758 4.71198 161.186 5.41598C162.647 6.11998 163.685 7.11198 164.302 8.39198C164.951 9.67198 165.276 11.176 165.276 12.904V14.248C165.276 16.776 164.172 18.712 161.965 20.056C163.523 20.664 164.708 21.544 165.519 22.696C166.331 23.848 166.737 25.224 166.737 26.824V28.168C166.737 29.928 166.412 31.48 165.763 32.824C165.114 34.136 164.043 35.16 162.549 35.896C161.056 36.632 159.06 37 156.561 37H145.266ZM155.344 9.63998H151.108V17.8H155.344C156.642 17.8 157.616 17.512 158.265 16.936C158.947 16.328 159.287 15.512 159.287 14.488V12.904C159.287 11.88 158.947 11.08 158.265 10.504C157.616 9.92798 156.642 9.63998 155.344 9.63998ZM156.561 23.08H151.108V31.72H156.561C157.924 31.72 158.963 31.4 159.677 30.76C160.391 30.12 160.748 29.256 160.748 28.168V26.584C160.748 25.496 160.391 24.648 159.677 24.04C158.963 23.4 157.924 23.08 156.561 23.08ZM172.869 30.136V1.47998H178.468V30.136C178.468 30.616 178.582 31.08 178.809 31.528C179.068 31.944 179.555 32.152 180.269 32.152H181.048V37.24H179.685C177.835 37.24 176.423 36.888 175.449 36.184C174.476 35.48 173.794 34.584 173.405 33.496C173.047 32.408 172.869 31.288 172.869 30.136ZM206.676 23.368V26.248C206.676 29.64 205.734 32.36 203.852 34.408C201.969 36.456 199.308 37.48 195.867 37.48C192.427 37.48 189.765 36.456 187.883 34.408C186 32.36 185.059 29.64 185.059 26.248V23.368C185.059 19.976 185.984 17.272 187.834 15.256C189.717 13.208 192.394 12.184 195.867 12.184C199.34 12.184 202.002 13.208 203.852 15.256C205.734 17.272 206.676 19.976 206.676 23.368ZM200.931 23.368C200.931 21.416 200.492 19.896 199.616 18.808C198.74 17.688 197.49 17.128 195.867 17.128C194.244 17.128 192.995 17.688 192.118 18.808C191.242 19.896 190.804 21.416 190.804 23.368V26.248C190.804 28.2 191.242 29.736 192.118 30.856C192.995 31.976 194.244 32.536 195.867 32.536C197.49 32.536 198.74 31.976 199.616 30.856C200.492 29.736 200.931 28.2 200.931 26.248V23.368ZM233.45 39.448C233.45 42.04 232.412 44.056 230.334 45.496C228.289 46.968 225.433 47.704 221.765 47.704C220.045 47.704 218.228 47.512 216.313 47.128C214.398 46.744 212.629 46.104 211.006 45.208L212.612 40.84C214.17 41.608 215.712 42.152 217.238 42.472C218.763 42.824 220.256 43 221.717 43C223.762 43 225.32 42.728 226.391 42.184C227.462 41.64 227.997 40.92 227.997 40.024C227.997 38.648 227.17 37.96 225.514 37.96H219.672C218.081 37.96 216.799 37.704 215.826 37.192C214.852 36.68 214.138 36.024 213.683 35.224C213.229 34.392 213.002 33.528 213.002 32.632C213.002 31.704 213.197 30.84 213.586 30.04C214.008 29.208 214.576 28.44 215.29 27.736C214.122 27.032 213.18 26.088 212.466 24.904C211.785 23.72 211.444 22.296 211.444 20.632C211.444 18.744 211.85 17.176 212.661 15.928C213.472 14.68 214.576 13.752 215.972 13.144C217.4 12.504 218.974 12.184 220.694 12.184H221.522C222.171 12.184 222.804 12.232 223.421 12.328C224.037 12.392 224.622 12.504 225.173 12.664H233.986V17.368L229.117 16.6C229.604 17.112 229.977 17.752 230.237 18.52C230.529 19.256 230.675 20.168 230.675 21.256C230.675 22.888 230.253 24.296 229.409 25.48C228.598 26.632 227.494 27.528 226.098 28.168C224.735 28.776 223.21 29.08 221.522 29.08H220.694C220.045 29.08 219.428 29.032 218.844 28.936C218.487 29.32 218.228 29.72 218.065 30.136C217.903 30.52 217.822 30.888 217.822 31.24C217.822 32.36 218.552 32.92 220.013 32.92H225.952C228.192 32.92 229.993 33.496 231.357 34.648C232.752 35.768 233.45 37.368 233.45 39.448ZM221.522 24.568C222.528 24.568 223.404 24.232 224.151 23.56C224.93 22.888 225.32 21.912 225.32 20.632C225.32 19.352 224.93 18.376 224.151 17.704C223.404 17.032 222.528 16.696 221.522 16.696H220.694C219.656 16.696 218.747 17.032 217.968 17.704C217.221 18.376 216.848 19.352 216.848 20.632C216.848 21.912 217.221 22.888 217.968 23.56C218.747 24.232 219.656 24.568 220.694 24.568H221.522Z" fill="#059669"/>
<path d="M1.96645 9.87998H0.952148V10.88H1.96645V9.87998ZM1.96645 4.35998V3.35998H0.952148V4.35998H1.96645ZM26.3097 4.35998H27.324V3.35998H26.3097V4.35998ZM26.3097 9.87998V10.88H27.324V9.87998H26.3097ZM17.0592 9.87998V8.87998H16.0449V9.87998H17.0592ZM17.0592 37V38H18.0735V37H17.0592ZM11.2168 37H10.2025V38H11.2168V37ZM11.2168 9.87998H12.2311V8.87998H11.2168V9.87998ZM2.98075 9.87998V4.35998H0.952148V9.87998H2.98075ZM1.96645 5.35998H26.3097V3.35998H1.96645V5.35998ZM25.2954 4.35998V9.87998H27.324V4.35998H25.2954ZM26.3097 8.87998H17.0592V10.88H26.3097V8.87998ZM16.0449 9.87998V37H18.0735V9.87998H16.0449ZM17.0592 36H11.2168V38H17.0592V36ZM12.2311 37V9.87998H10.2025V37H12.2311ZM11.2168 8.87998H1.96645V10.88H11.2168V8.87998ZM43.2571 17.704V18.704H44.2714V17.704H43.2571ZM38.8753 18.424L39.1961 19.3728L39.2094 19.3682L38.8753 18.424ZM34.9317 20.632L34.2883 19.8589L33.9174 20.159V20.632H34.9317ZM34.9317 37V38H35.946V37H34.9317ZM29.3328 37H28.3185V38H29.3328V37ZM29.3328 12.664V11.664H28.3185V12.664H29.3328ZM34.6396 12.664H35.6539V11.664H34.6396V12.664ZM34.6396 16.408H33.6253V18.7224L35.3348 17.1362L34.6396 16.408ZM43.2571 12.184H44.2714V11.184H43.2571V12.184ZM43.2571 16.704C41.6215 16.704 40.0478 16.9617 38.5413 17.4798L39.2094 19.3682C40.4942 18.9263 41.8416 18.704 43.2571 18.704V16.704ZM38.5546 17.4753C37.0586 17.9669 35.6368 18.7682 34.2883 19.8589L35.5751 21.4051C36.7585 20.4478 37.9656 19.7772 39.1961 19.3728L38.5546 17.4753ZM33.9174 20.632V37H35.946V20.632H33.9174ZM34.9317 36H29.3328V38H34.9317V36ZM30.3471 37V12.664H28.3185V37H30.3471ZM29.3328 13.664H34.6396V11.664H29.3328V13.664ZM33.6253 12.664V16.408H35.6539V12.664H33.6253ZM35.3348 17.1362C36.954 15.6337 38.3489 14.6175 39.5237 14.0384L38.6165 12.2496C37.1947 12.9504 35.636 14.1103 33.9445 15.6798L35.3348 17.1362ZM39.5237 14.0384C40.677 13.4699 41.9169 13.184 43.2571 13.184V11.184C41.6113 11.184 40.0597 11.5381 38.6165 12.2496L39.5237 14.0384ZM42.2428 12.184V17.704H44.2714V12.184H42.2428ZM62.8641 36.232L62.2825 37.0512L62.2887 37.0556L62.2952 37.0599L62.8641 36.232ZM60.7219 33.736L61.6463 33.3244L61.065 32.0555L60.031 33.0038L60.7219 33.736ZM47.6739 35.416L46.8511 36.0008L46.8556 36.0069L46.8602 36.013L47.6739 35.416ZM46.9436 26.488L46.0363 26.0408L46.0309 26.0517L46.9436 26.488ZM57.3138 23.224L57.1704 24.2139L57.188 24.2164L57.2058 24.2183L57.3138 23.224ZM60.0402 23.608L59.8619 24.5924L61.0545 24.8024V23.608H60.0402ZM58.9205 18.04L58.3413 18.8609L58.3537 18.8694L58.3664 18.8776L58.9205 18.04ZM52.6886 17.656L52.4686 16.6798L52.4626 16.6811L52.6886 17.656ZM48.9884 18.856L48.0272 19.1751L48.3737 20.1898L49.3769 19.7797L48.9884 18.856ZM47.3818 14.152L47.0003 13.2254L46.1159 13.5794L46.4205 14.4711L47.3818 14.152ZM61.8416 13.384L61.3041 14.232L61.3136 14.2378L61.8416 13.384ZM65.7852 31.528L64.9046 32.0241L64.9263 32.0617L64.9513 32.0972L65.7852 31.528ZM67.9761 32.152H68.9904V31.152H67.9761V32.152ZM67.9761 37.24V38.24H68.9904V37.24H67.9761ZM52.153 32.152L51.3416 32.752L51.3511 32.7645L51.3611 32.7767L52.153 32.152ZM60.0402 29.608L60.7413 30.3306L61.0545 30.0353V29.608H60.0402ZM60.0402 27.544H61.0545V26.7022L60.2133 26.5586L60.0402 27.544ZM52.3478 27.88L51.6527 27.1518L51.6414 27.1622L51.6306 27.1729L52.3478 27.88ZM66.8563 36.24C65.3323 36.24 64.2204 35.93 63.433 35.4041L62.2952 37.0599C63.5201 37.878 65.0698 38.24 66.8563 38.24V36.24ZM63.4458 35.4128C62.6095 34.8356 62.02 34.1401 61.6463 33.3244L59.7975 34.1476C60.3327 35.3159 61.1712 36.2844 62.2825 37.0512L63.4458 35.4128ZM60.031 33.0038C58.6881 34.2355 57.4256 35.1122 56.2457 35.6647L57.1161 37.4713C58.5328 36.8078 59.9644 35.7965 61.4127 34.4682L60.031 33.0038ZM56.2457 35.6647C55.0887 36.2065 53.8424 36.48 52.4938 36.48V38.48C54.1314 38.48 55.6765 38.1455 57.1161 37.4713L56.2457 35.6647ZM52.4938 36.48C50.5507 36.48 49.2873 35.8784 48.4877 34.819L46.8602 36.013C48.1378 37.7056 50.0876 38.48 52.4938 38.48V36.48ZM48.4967 34.8312C47.6426 33.6633 47.1789 32.1381 47.1789 30.184H45.1503C45.1503 32.4539 45.6927 34.4167 46.8511 36.0008L48.4967 34.8312ZM47.1789 30.184C47.1789 28.8973 47.4158 27.8198 47.8563 26.9243L46.0309 26.0517C45.4327 27.2682 45.1503 28.6547 45.1503 30.184H47.1789ZM47.8509 26.9352C48.293 26.0634 49.0136 25.3616 50.0749 24.8384L49.1677 23.0496C47.7623 23.7424 46.6977 24.7366 46.0363 26.0408L47.8509 26.9352ZM50.0749 24.8384C51.1108 24.3278 52.6213 24.032 54.6847 24.032V22.032C52.4638 22.032 50.5986 22.3442 49.1677 23.0496L50.0749 24.8384ZM54.6847 24.032C55.4767 24.032 56.305 24.0921 57.1704 24.2139L57.4572 22.2341C56.505 22.0999 55.5807 22.032 54.6847 22.032V24.032ZM57.2058 24.2183C58.0909 24.3118 58.9762 24.4365 59.8619 24.5924L60.2186 22.6236C59.2867 22.4595 58.3545 22.3282 57.4219 22.2297L57.2058 24.2183ZM61.0545 23.608V20.776H59.0259V23.608H61.0545ZM61.0545 20.776C61.0545 19.2828 60.6382 17.9506 59.4746 17.2024L58.3664 18.8776C58.6958 19.0894 59.0259 19.5812 59.0259 20.776H61.0545ZM59.4997 17.2191C58.5283 16.5529 57.2962 16.272 55.9019 16.272V18.272C57.0393 18.272 57.8195 18.5031 58.3413 18.8609L59.4997 17.2191ZM55.9019 16.272C54.8396 16.272 53.6936 16.4114 52.4686 16.6798L52.9087 18.6322C54.0207 18.3886 55.0168 18.272 55.9019 18.272V16.272ZM52.4626 16.6811C51.2599 16.9522 49.9716 17.3716 48.5999 17.9323L49.3769 19.7797C50.6669 19.2524 51.8453 18.8718 52.9147 18.6309L52.4626 16.6811ZM49.9497 18.5369L48.343 13.8329L46.4205 14.4711L48.0272 19.1751L49.9497 18.5369ZM47.7633 15.0786C50.9581 13.8 53.796 13.184 56.2914 13.184V11.184C53.4638 11.184 50.362 11.88 47.0003 13.2254L47.7633 15.0786ZM56.2914 13.184C58.6022 13.184 60.2343 13.5728 61.3041 14.232L62.3792 12.536C60.8525 11.5952 58.7843 11.184 56.2914 11.184V13.184ZM61.3136 14.2378C62.473 14.9348 63.2408 15.8264 63.6718 16.9155L65.5617 16.1885C64.9541 14.6536 63.8719 13.4332 62.3697 12.5302L61.3136 14.2378ZM63.6718 16.9155C64.1423 18.104 64.3814 19.3879 64.3814 20.776H66.41C66.41 19.1561 66.1299 17.624 65.5617 16.1885L63.6718 16.9155ZM64.3814 20.776V30.136H66.41V20.776H64.3814ZM64.3814 30.136C64.3814 30.803 64.5641 31.4367 64.9046 32.0241L66.666 31.0319C66.487 30.7233 66.41 30.429 66.41 30.136H64.3814ZM64.9513 32.0972C65.5232 32.9117 66.4952 33.152 67.4406 33.152V31.152C66.763 31.152 66.6315 30.9763 66.6192 30.9588L64.9513 32.0972ZM67.4406 33.152H67.9761V31.152H67.4406V33.152ZM66.9618 32.152V37.24H68.9904V32.152H66.9618ZM67.9761 36.24H66.8563V38.24H67.9761V36.24ZM50.5545 30.088C50.5545 31.0935 50.7812 32.0153 51.3416 32.752L52.9645 31.552C52.7459 31.2647 52.5831 30.8105 52.5831 30.088H50.5545ZM51.3611 32.7767C51.9816 33.5415 52.87 33.872 53.8571 33.872V31.872C53.3511 31.872 53.1035 31.7225 52.9451 31.5273L51.3611 32.7767ZM53.8571 33.872C54.7756 33.872 55.7544 33.637 56.7766 33.22L56.001 31.372C55.1407 31.723 54.4316 31.872 53.8571 31.872V33.872ZM56.7766 33.22C57.9012 32.7612 59.2313 31.7546 60.7413 30.3306L59.3392 28.8854C57.863 30.2774 56.759 31.0628 56.001 31.372L56.7766 33.22ZM61.0545 29.608V27.544H59.0259V29.608H61.0545ZM60.2133 26.5586C58.4714 26.2614 56.7582 26.112 55.0742 26.112V28.112C56.636 28.112 58.2335 28.2506 59.8673 28.5293L60.2133 26.5586ZM55.0742 26.112C53.7122 26.112 52.4844 26.38 51.6527 27.1518L53.043 28.6082C53.3148 28.356 53.9045 28.112 55.0742 28.112V26.112ZM51.6306 27.1729C50.8653 27.9274 50.5545 28.9522 50.5545 30.088H52.5831C52.5831 29.3038 52.7916 28.8566 53.065 28.5871L51.6306 27.1729ZM91.7443 12.664L92.7001 12.9986L93.1807 11.664H91.7443V12.664ZM82.9807 37V38H83.6969L83.9366 37.3346L82.9807 37ZM77.8686 37L76.9128 37.3346L77.1524 38H77.8686V37ZM69.105 12.664V11.664H67.6686L68.1493 12.9986L69.105 12.664ZM74.7527 12.664L75.7119 12.3388L75.4765 11.664H74.7527V12.664ZM78.9884 24.808L79.956 24.5082L79.952 24.4954L79.9476 24.4828L78.9884 24.808ZM80.5951 29.848L79.6274 30.1478L80.61 33.23L81.5653 30.1395L80.5951 29.848ZM82.153 24.808L81.1893 24.4963L81.186 24.5063L81.1828 24.5165L82.153 24.808ZM86.194 12.664V11.664H85.4593L85.2303 12.3523L86.194 12.664ZM90.7885 12.3294L82.0249 36.6654L83.9366 37.3346L92.7001 12.9986L90.7885 12.3294ZM82.9807 36H77.8686V38H82.9807V36ZM78.8245 36.6654L70.0609 12.3294L68.1493 12.9986L76.9128 37.3346L78.8245 36.6654ZM69.105 13.664H74.7527V11.664H69.105V13.664ZM73.7936 12.9892L78.0293 25.1332L79.9476 24.4828L75.7119 12.3388L73.7936 12.9892ZM78.0208 25.1078L79.6274 30.1478L81.5627 29.5482L79.956 24.5082L78.0208 25.1078ZM81.5653 30.1395L83.1233 25.0995L81.1828 24.5165L79.6249 29.5565L81.5653 30.1395ZM83.1168 25.1197L87.1578 12.9757L85.2303 12.3523L81.1893 24.4963L83.1168 25.1197ZM86.194 13.664H91.7443V11.664H86.194V13.664ZM114.689 35.608L115.068 36.5352L115.958 36.1811L115.648 35.2859L114.689 35.608ZM109.723 13.24L109.284 14.1421L109.297 14.1477L109.309 14.153L109.723 13.24ZM113.423 16.456L112.565 16.9893L112.571 17.0001L112.578 17.0107L113.423 16.456ZM114.737 24.184L115.743 24.3133L115.744 24.308L114.737 24.184ZM114.25 26.536V27.536H115.027L115.229 26.796L114.25 26.536ZM99.9367 26.536V25.536H98.8889L98.9224 26.5682L99.9367 26.536ZM109.382 32.104L109.167 31.1266L109.162 31.1278L109.382 32.104ZM113.082 30.952L114.042 30.6299L113.695 29.6232L112.697 30.0268L113.082 30.952ZM101.397 18.28L100.63 17.6251L100.628 17.6271L101.397 18.28ZM99.9853 22.312L98.9731 22.2395L98.894 23.312H99.9853V22.312ZM109.333 22.312V23.312H110.164L110.327 22.5081L109.333 22.312ZM114.308 34.6808C112.669 35.3334 111.141 35.7929 109.722 36.0666L110.112 38.0294C111.679 37.7271 113.332 37.2266 115.068 36.5352L114.308 34.6808ZM109.722 36.0666C108.284 36.344 106.938 36.48 105.682 36.48V38.48C107.085 38.48 108.563 38.328 110.112 38.0294L109.722 36.0666ZM105.682 36.48C102.207 36.48 99.7429 35.5157 98.1074 33.7365L96.6042 35.0795C98.7337 37.3963 101.82 38.48 105.682 38.48V36.48ZM98.1074 33.7365C96.4302 31.9119 95.5463 29.4508 95.5463 26.248H93.5177C93.5177 29.8292 94.5162 32.8081 96.6042 35.0795L98.1074 33.7365ZM95.5463 26.248V23.368H93.5177V26.248H95.5463ZM95.5463 23.368C95.5463 21.2174 95.9454 19.409 96.705 17.9112L94.8906 17.0168C93.9624 18.847 93.5177 20.9746 93.5177 23.368H95.5463ZM96.705 17.9112C97.4664 16.4099 98.5379 15.2584 99.9255 14.4319L98.8757 12.7201C97.1477 13.7496 95.817 15.1901 94.8906 17.0168L96.705 17.9112ZM99.9255 14.4319C101.301 13.6123 102.947 13.184 104.903 13.184V11.184C102.638 11.184 100.616 11.6837 98.8757 12.7201L99.9255 14.4319ZM104.903 13.184C106.477 13.184 107.933 13.5051 109.284 14.1421L110.16 12.3379C108.525 11.5669 106.768 11.184 104.903 11.184V13.184ZM109.309 14.153C110.641 14.7398 111.724 15.6744 112.565 16.9893L114.28 15.9227C113.238 14.2936 111.855 13.0842 110.135 12.327L109.309 14.153ZM112.578 17.0107C113.411 18.2422 113.869 19.8886 113.869 22.024H115.898C115.898 19.6154 115.381 17.5498 114.267 15.9013L112.578 17.0107ZM113.869 22.024C113.869 22.6489 113.823 23.3271 113.73 24.06L115.744 24.308C115.845 23.5049 115.898 22.7431 115.898 22.024H113.869ZM113.731 24.0547C113.64 24.7402 113.488 25.4803 113.271 26.276L115.229 26.796C115.467 25.9277 115.639 25.0998 115.743 24.3133L113.731 24.0547ZM114.25 25.536H99.9367V27.536H114.25V25.536ZM98.9224 26.5682C98.9913 28.6851 99.532 30.4477 100.704 31.6832L102.186 30.3168C101.476 29.5683 101.011 28.3549 100.95 26.5038L98.9224 26.5682ZM100.704 31.6832C101.917 32.9608 103.758 33.488 105.974 33.488V31.488C104.034 31.488 102.857 31.0232 102.186 30.3168L100.704 31.6832ZM105.974 33.488C107.156 33.488 108.367 33.3507 109.601 33.0802L109.162 31.1278C108.059 31.3693 106.997 31.488 105.974 31.488V33.488ZM109.596 33.0814C110.861 32.8117 112.152 32.409 113.466 31.8772L112.697 30.0268C111.479 30.519 110.304 30.8843 109.167 31.1266L109.596 33.0814ZM112.121 31.2741L113.728 35.9301L115.648 35.2859L114.042 30.6299L112.121 31.2741ZM104.903 15.84C103.166 15.84 101.699 16.4101 100.63 17.6251L102.163 18.9349C102.783 18.2299 103.652 17.84 104.903 17.84V15.84ZM100.628 17.6271C99.6243 18.7754 99.112 20.3562 98.9731 22.2395L100.997 22.3845C101.117 20.7478 101.546 19.6406 102.165 18.9329L100.628 17.6271ZM99.9853 23.312H109.333V21.312H99.9853V23.312ZM110.327 22.5081C110.37 22.3002 110.396 22.0889 110.396 21.88H108.368C108.368 21.9271 108.36 22.0038 108.338 22.1159L110.327 22.5081ZM110.396 21.88C110.396 21.8803 110.396 21.8797 110.396 21.88C110.396 21.8796 110.396 21.8784 110.396 21.8781C110.396 21.8784 110.396 21.8778 110.396 21.8781C110.396 21.8778 110.396 21.8766 110.396 21.8763C110.396 21.8759 110.396 21.8756 110.396 21.8753C110.396 21.8756 110.396 21.875 110.396 21.8753C110.396 21.875 110.396 21.8738 110.396 21.8734C110.396 21.8737 110.396 21.8731 110.396 21.8734C110.396 21.8731 110.396 21.8719 110.396 21.8716C110.396 21.872 110.396 21.8713 110.396 21.8716C110.396 21.8713 110.396 21.87 110.396 21.8697C110.396 21.87 110.396 21.8694 110.396 21.8697C110.396 21.8694 110.396 21.8682 110.396 21.8678C110.396 21.8681 110.396 21.8675 110.396 21.8678C110.396 21.8675 110.396 21.8663 110.396 21.866C110.396 21.8664 110.396 21.8657 110.396 21.866C110.396 21.8657 110.396 21.8644 110.396 21.8641C110.396 21.8644 110.396 21.8638 110.396 21.8641C110.396 21.8638 110.396 21.8626 110.396 21.8623C110.396 21.8619 110.396 21.8616 110.396 21.8613C110.396 21.8616 110.396 21.861 110.396 21.8613C110.396 21.861 110.396 21.8598 110.396 21.8595C110.396 21.8592 110.396 21.8588 110.396 21.8585C110.396 21.8588 110.396 21.8582 110.396 21.8585C110.396 21.8582 110.396 21.857 110.396 21.8567C110.396 21.8564 110.396 21.8561 110.396 21.8557C110.396 21.856 110.396 21.8554 110.396 21.8557C110.396 21.8554 110.396 21.8542 110.396 21.8539C110.396 21.8542 110.396 21.8536 110.396 21.8539C110.396 21.8536 110.396 21.8523 110.396 21.852C110.396 21.8523 110.396 21.8517 110.396 21.852C110.396 21.8517 110.396 21.8505 110.396 21.8502C110.396 21.8505 110.396 21.8499 110.396 21.8502C110.396 21.8499 110.396 21.8486 110.396 21.8483C110.396 21.8486 110.396 21.848 110.396 21.8483C110.396 21.848 110.396 21.8468 110.396 21.8465C110.396 21.8468 110.396 21.8462 110.396 21.8465C110.396 21.8462 110.396 21.8449 110.396 21.8446C110.396 21.8449 110.396 21.8443 110.396 21.8446C110.396 21.8443 110.396 21.8431 110.396 21.8428C110.396 21.8431 110.396 21.8425 110.396 21.8428C110.396 21.8425 110.396 21.8413 110.396 21.8409C110.396 21.8412 110.396 21.8406 110.396 21.8409C110.396 21.8406 110.396 21.8394 110.396 21.8391C110.396 21.8394 110.396 21.8388 110.396 21.8391C110.396 21.8388 110.396 21.8376 110.396 21.8373C110.396 21.8376 110.396 21.837 110.396 21.8373C110.396 21.837 110.396 21.8357 110.396 21.8354C110.396 21.8357 110.396 21.8351 110.396 21.8354C110.396 21.8351 110.396 21.8339 110.396 21.8336C110.396 21.8339 110.396 21.8333 110.396 21.8336C110.396 21.8333 110.396 21.8321 110.396 21.8317C110.396 21.832 110.396 21.8314 110.396 21.8317C110.396 21.8314 110.396 21.8302 110.396 21.8299C110.396 21.8302 110.396 21.8296 110.396 21.8299C110.396 21.8296 110.396 21.8284 110.396 21.8281C110.396 21.8284 110.396 21.8278 110.396 21.8281C110.396 21.8278 110.396 21.8265 110.396 21.8262C110.396 21.8265 110.396 21.8259 110.396 21.8262C110.396 21.8259 110.396 21.8247 110.396 21.8244C110.396 21.8247 110.396 21.8241 110.396 21.8244C110.396 21.8241 110.396 21.8229 110.396 21.8226C110.396 21.8229 110.396 21.8223 110.396 21.8226C110.396 21.8223 110.396 21.8211 110.396 21.8207C110.396 21.821 110.396 21.8204 110.396 21.8207C110.396 21.8204 110.396 21.8192 110.396 21.8189C110.396 21.8192 110.396 21.8186 110.396 21.8189C110.396 21.8186 110.396 21.8174 110.396 21.8171C110.396 21.8174 110.396 21.8168 110.396 21.8171C110.396 21.8168 110.396 21.8156 110.396 21.8153C110.396 21.8156 110.396 21.815 110.396 21.8153C110.396 21.815 110.396 21.8138 110.396 21.8134C110.396 21.8137 110.396 21.8131 110.396 21.8134C110.396 21.8131 110.396 21.8119 110.396 21.8116C110.396 21.8119 110.396 21.8113 110.396 21.8116C110.396 21.8113 110.396 21.8101 110.396 21.8098C110.396 21.8101 110.396 21.8095 110.396 21.8098C110.396 21.8095 110.396 21.8083 110.396 21.808C110.396 21.8083 110.396 21.8077 110.396 21.808C110.396 21.8077 110.396 21.8065 110.396 21.8062C110.396 21.8065 110.396 21.8059 110.396 21.8062C110.396 21.8059 110.396 21.8047 110.396 21.8044C110.396 21.8048 110.396 21.8041 110.396 21.8044C110.396 21.8041 110.396 21.8028 110.396 21.8025C110.396 21.8028 110.396 21.8022 110.396 21.8025C110.396 21.8022 110.396 21.801 110.396 21.8007C110.396 21.801 110.396 21.8004 110.396 21.8007C110.396 21.8004 110.396 21.7992 110.396 21.7989C110.396 21.7992 110.396 21.7986 110.396 21.7989C110.396 21.7986 110.396 21.7974 110.396 21.7971C110.396 21.7974 110.396 21.7968 110.396 21.7971C110.396 21.7968 110.396 21.7956 110.396 21.7953C110.396 21.7956 110.396 21.795 110.396 21.7953C110.396 21.795 110.396 21.7938 110.396 21.7935C110.396 21.7938 110.396 21.7932 110.396 21.7935C110.396 21.7932 110.396 21.792 110.396 21.7917C110.396 21.792 110.396 21.7914 110.396 21.7917C110.396 21.7914 110.396 21.7902 110.396 21.7899C110.396 21.7902 110.396 21.7896 110.396 21.7899C110.396 21.7896 110.396 21.7884 110.396 21.7881C110.396 21.7884 110.396 21.7878 110.396 21.7881C110.396 21.7878 110.396 21.7866 110.396 21.7863C110.396 21.7866 110.396 21.786 110.396 21.7863C110.396 21.786 110.396 21.7848 110.396 21.7845C110.396 21.7848 110.396 21.7842 110.396 21.7845C110.396 21.7842 110.396 21.783 110.396 21.7827C110.396 21.783 110.396 21.7824 110.396 21.7827C110.396 21.7824 110.396 21.7812 110.396 21.7809C110.396 21.7812 110.396 21.7806 110.396 21.7809C110.396 21.7806 110.396 21.7794 110.396 21.7791C110.396 21.7794 110.396 21.7788 110.396 21.7791C110.396 21.7788 110.396 21.7776 110.396 21.7773C110.396 21.7776 110.396 21.777 110.396 21.7773C110.396 21.777 110.396 21.7758 110.396 21.7755C110.396 21.7758 110.396 21.7752 110.396 21.7755C110.396 21.7752 110.396 21.774 110.396 21.7737C110.396 21.774 110.396 21.7734 110.396 21.7737C110.396 21.7734 110.396 21.7722 110.396 21.7719C110.396 21.7722 110.396 21.7716 110.396 21.7719C110.396 21.7716 110.396 21.7704 110.396 21.7701C110.396 21.7704 110.396 21.7698 110.396 21.7701C110.396 21.7698 110.396 21.7686 110.396 21.7683C110.396 21.7686 110.396 21.7681 110.396 21.7683C110.396 21.768 110.396 21.7669 110.396 21.7666C110.396 21.7669 110.396 21.7663 110.396 21.7666C110.396 21.7663 110.396 21.7651 110.396 21.7648C110.396 21.7651 110.396 21.7645 110.396 21.7648C110.396 21.7645 110.396 21.7633 110.396 21.763C110.396 21.7633 110.396 21.7627 110.396 21.763C110.396 21.7627 110.396 21.7615 110.396 21.7612C110.396 21.7615 110.396 21.7609 110.396 21.7612C110.396 21.7609 110.396 21.7597 110.396 21.7594C110.396 21.7596 110.396 21.7591 110.396 21.7594C110.396 21.7591 110.396 21.758 110.396 21.7577C110.396 21.758 110.396 21.7574 110.396 21.7577C110.396 21.7574 110.396 21.7562 110.396 21.7559C110.396 21.7562 110.396 21.7556 110.396 21.7559C110.396 21.7556 110.396 21.7544 110.396 21.7541C110.396 21.7544 110.396 21.7538 110.396 21.7541C110.396 21.7538 110.396 21.7526 110.396 21.7523C110.396 21.7525 110.396 21.752 110.396 21.7523C110.396 21.752 110.396 21.7509 110.396 21.7506C110.396 21.7509 110.396 21.7503 110.396 21.7506C110.396 21.7503 110.396 21.7491 110.396 21.7488C110.396 21.7491 110.396 21.7485 110.396 21.7488C110.396 21.7485 110.396 21.7473 110.396 21.747C110.396 21.7473 110.396 21.7467 110.396 21.747C110.396 21.7467 110.396 21.7456 110.396 21.7453C110.396 21.7456 110.396 21.745 110.396 21.7453C110.396 21.745 110.396 21.7438 110.396 21.7435C110.396 21.7438 110.396 21.7432 110.396 21.7435C110.396 21.7432 110.396 21.742 110.396 21.7417C110.396 21.742 110.396 21.7414 110.396 21.7417C110.396 21.7415 110.396 21.7403 110.396 21.74C110.396 21.7403 110.396 21.7397 110.396 21.74C110.396 21.7397 110.396 21.7385 110.396 21.7382C110.396 21.7385 110.396 21.7379 110.396 21.7382C110.396 21.7379 110.396 21.7367 110.396 21.7364C110.396 21.7367 110.396 21.7362 110.396 21.7364C110.396 21.7361 110.396 21.735 110.396 21.7347C110.396 21.735 110.396 21.7344 110.396 21.7347C110.396 21.7344 110.396 21.7332 110.396 21.7329C110.396 21.7331 110.396 21.7326 110.396 21.7329C110.396 21.7326 110.396 21.7315 110.396 21.7312C110.396 21.7315 110.396 21.7309 110.396 21.7312C110.396 21.7309 110.396 21.7297 110.396 21.7294C110.396 21.7297 110.396 21.7291 110.396 21.7294C110.396 21.7292 110.396 21.728 110.396 21.7277C110.396 21.728 110.396 21.7274 110.396 21.7277C110.396 21.7274 110.396 21.7262 110.396 21.7259C110.396 21.7262 110.396 21.7256 110.396 21.7259C110.396 21.7256 110.396 21.7245 110.396 21.7242C110.396 21.7245 110.396 21.7239 110.396 21.7242C110.396 21.7239 110.396 21.7227 110.396 21.7224C110.396 21.7227 110.396 21.7221 110.396 21.7224C110.396 21.7222 110.396 21.721 110.396 21.7207C110.396 21.721 110.396 21.7204 110.396 21.7207C110.396 21.7204 110.396 21.7192 110.396 21.7189C110.396 21.7191 110.396 21.7186 110.396 21.7189C110.396 21.7186 110.396 21.7175 110.396 21.7172C110.396 21.7175 110.396 21.7169 110.396 21.7172C110.396 21.7169 110.396 21.7157 110.396 21.7154C110.396 21.7157 110.396 21.7151 110.396 21.7154C110.396 21.7151 110.396 21.714 110.396 21.7137C110.396 21.714 110.396 21.7134 110.396 21.7137C110.396 21.7134 110.396 21.7122 110.396 21.712C110.396 21.7123 110.396 21.7117 110.396 21.712C110.396 21.7117 110.396 21.7105 110.396 21.7102C110.396 21.7104 110.396 21.7099 110.396 21.7102C110.396 21.7099 110.396 21.7088 110.396 21.7085C110.396 21.7088 110.396 21.7082 110.396 21.7085C110.396 21.7082 110.396 21.707 110.396 21.7067C110.396 21.707 110.396 21.7065 110.396 21.7067C110.396 21.7064 110.396 21.7053 110.396 21.705C110.396 21.7053 110.396 21.7047 110.396 21.705C110.396 21.7048 110.396 21.7036 110.396 21.7033C110.396 21.7036 110.396 21.703 110.396 21.7033C110.396 21.703 110.396 21.7018 110.396 21.7016C110.396 21.7019 110.396 21.7013 110.396 21.7016C110.396 21.7013 110.396 21.7001 110.396 21.6998C110.396 21.7 110.396 21.6995 110.396 21.6998C110.396 21.6995 110.396 21.6984 110.396 21.6981C110.396 21.6984 110.396 21.6978 110.396 21.6981C110.396 21.6978 110.396 21.6967 110.396 21.6964C110.396 21.6967 110.396 21.6961 110.396 21.6964C110.396 21.6961 110.396 21.6949 110.396 21.6946C110.396 21.6949 110.396 21.6944 110.396 21.6946C110.396 21.6943 110.396 21.6932 110.396 21.6929C110.396 21.6931 110.396 21.6926 110.396 21.6929C110.396 21.6926 110.396 21.6915 110.396 21.6912C110.396 21.6915 110.396 21.6909 110.396 21.6912C110.396 21.691 110.396 21.6898 110.396 21.6895C110.396 21.6898 110.396 21.6892 110.396 21.6895C110.396 21.6892 110.396 21.688 110.396 21.6878C110.396 21.6881 110.396 21.6875 110.396 21.6878C110.396 21.6875 110.396 21.6863 110.396 21.686C110.396 21.6863 110.396 21.6858 110.396 21.686C110.396 21.6857 110.396 21.6846 110.396 21.6843C110.396 21.6846 110.396 21.684 110.396 21.6843C110.396 21.684 110.396 21.6829 110.396 21.6826C110.396 21.6828 110.396 21.6823 110.396 21.6826C110.396 21.6823 110.396 21.6812 110.396 21.6809C110.396 21.6812 110.396 21.6806 110.396 21.6809C110.396 21.6807 110.396 21.6795 110.396 21.6792C110.396 21.6795 110.396 21.6789 110.396 21.6792C110.396 21.6789 110.396 21.6778 110.396 21.6775C110.396 21.6778 110.396 21.6772 110.396 21.6775C110.396 21.6772 110.396 21.6761 110.396 21.6758C110.396 21.6761 110.396 21.6755 110.396 21.6758C110.396 21.6755 110.396 21.6743 110.396 21.6741C110.396 21.6744 110.396 21.6738 110.396 21.6741C110.396 21.6738 110.396 21.6726 110.396 21.6724C110.396 21.6727 110.396 21.6721 110.396 21.6724C110.396 21.6721 110.396 21.6709 110.396 21.6707C110.396 21.671 110.396 21.6704 110.396 21.6707C110.396 21.6704 110.396 21.6692 110.396 21.6689C110.396 21.6692 110.396 21.6687 110.396 21.6689C110.396 21.6686 110.396 21.6675 110.396 21.6672C110.396 21.6675 110.396 21.667 110.396 21.6672C110.396 21.6669 110.396 21.6658 110.396 21.6655C110.396 21.6658 110.396 21.6653 110.396 21.6655C110.396 21.6652 110.396 21.6641 110.396 21.6638C110.396 21.6641 110.396 21.6636 110.396 21.6638C110.396 21.6635 110.396 21.6624 110.396 21.6622C110.396 21.6625 110.396 21.6619 110.396 21.6622C110.396 21.6619 110.396 21.6607 110.396 21.6605C110.396 21.6608 110.396 21.6602 110.396 21.6605C110.396 21.6602 110.396 21.659 110.396 21.6588C110.396 21.6591 110.396 21.6585 110.396 21.6588C110.396 21.6585 110.396 21.6574 110.396 21.6571C110.396 21.6574 110.396 21.6568 110.396 21.6571C110.396 21.6568 110.396 21.6557 110.396 21.6554C110.396 21.6557 110.396 21.6551 110.396 21.6554C110.396 21.6552 110.396 21.654 110.396 21.6537C110.396 21.654 110.396 21.6534 110.396 21.6537C110.396 21.6535 110.396 21.6523 110.396 21.652C110.396 21.6522 110.396 21.6517 110.396 21.652C110.396 21.6517 110.396 21.6506 110.396 21.6503C110.396 21.6506 110.396 21.65 110.396 21.6503C110.396 21.65 110.396 21.6489 110.396 21.6486C110.396 21.6489 110.396 21.6483 110.396 21.6486C110.396 21.6483 110.396 21.6472 110.396 21.6469C110.396 21.6472 110.396 21.6467 110.396 21.6469C110.396 21.6466 110.396 21.6455 110.396 21.6453C110.396 21.6456 110.396 21.645 110.396 21.6453C110.396 21.645 110.396 21.6439 110.396 21.6436C110.396 21.6439 110.396 21.6433 110.396 21.6436C110.396 21.6434 110.396 21.6422 110.396 21.6419C110.396 21.6421 110.396 21.6416 110.396 21.6419C110.396 21.6416 110.396 21.6405 110.396 21.6402C110.396 21.6405 110.396 21.6399 110.396 21.6402C110.396 21.6399 110.396 21.6388 110.396 21.6385C110.396 21.6388 110.396 21.6383 110.396 21.6385C110.396 21.6382 110.396 21.6372 110.396 21.6369C110.396 21.6372 110.396 21.6366 110.396 21.6369C110.396 21.6367 110.396 21.6355 110.396 21.6352C110.396 21.6354 110.396 21.6349 110.396 21.6352C110.396 21.6349 110.396 21.6338 110.396 21.6335C110.396 21.6338 110.396 21.6332 110.396 21.6335C110.396 21.6332 110.396 21.6321 110.396 21.6319C110.396 21.6322 110.396 21.6316 110.396 21.6319C110.396 21.6316 110.396 21.6305 110.396 21.6302C110.396 21.6304 110.396 21.6299 110.396 21.6302C110.396 21.6299 110.396 21.6288 110.396 21.6285C110.396 21.6288 110.396 21.6282 110.396 21.6285C110.396 21.6282 110.396 21.6271 110.396 21.6269C110.396 21.6272 110.396 21.6266 110.396 21.6269C110.396 21.6266 110.396 21.6255 110.396 21.6252C110.396 21.6254 110.396 21.6249 110.396 21.6252C110.396 21.6249 110.396 21.6238 110.396 21.6235C110.396 21.6238 110.396 21.6232 110.396 21.6235C110.396 21.6232 110.396 21.6221 110.396 21.6219C110.396 21.6222 110.396 21.6216 110.396 21.6219C110.396 21.6217 110.396 21.6205 110.396 21.6202C110.396 21.6204 110.396 21.6199 110.396 21.6202C110.396 21.6199 110.396 21.6188 110.396 21.6185C110.396 21.6188 110.396 21.6183 110.396 21.6185C110.396 21.6182 110.396 21.6172 110.396 21.6169C110.396 21.6171 110.396 21.6166 110.396 21.6169C110.396 21.6166 110.396 21.6155 110.396 21.6152C110.396 21.6155 110.396 21.615 110.396 21.6152C110.396 21.6149 110.396 21.6138 110.396 21.6136C110.396 21.6139 110.396 21.6133 110.396 21.6136C110.396 21.6134 110.396 21.6122 110.396 21.6119C110.396 21.6122 110.396 21.6116 110.396 21.6119C110.396 21.6116 110.396 21.6105 110.396 21.6103C110.396 21.6106 110.396 21.61 110.396 21.6103C110.396 21.6101 110.396 21.6089 110.396 21.6086C110.396 21.6089 110.396 21.6083 110.396 21.6086C110.396 21.6083 110.396 21.6072 110.396 21.607C110.396 21.6073 110.396 21.6067 110.396 21.607C110.396 21.6068 110.396 21.6056 110.396 21.6053C110.396 21.6056 110.396 21.605 110.396 21.6053C110.396 21.605 110.396 21.604 110.396 21.6037C110.396 21.6039 110.396 21.6034 110.396 21.6037C110.396 21.6034 110.396 21.6023 110.396 21.602C110.396 21.6023 110.396 21.6018 110.396 21.602C110.396 21.6017 110.396 21.6007 110.396 21.6004C110.396 21.6006 110.396 21.6001 110.396 21.6004C110.396 21.6001 110.396 21.599 110.396 21.5987C110.396 21.599 110.396 21.5985 110.396 21.5987C110.396 21.5985 110.396 21.5974 110.396 21.5971C110.396 21.5974 110.396 21.5968 110.396 21.5971C110.396 21.5968 110.396 21.5957 110.396 21.5955C110.396 21.5957 110.396 21.5952 110.396 21.5955C110.396 21.5952 110.396 21.5941 110.396 21.5938C110.396 21.5941 110.396 21.5936 110.396 21.5938C110.396 21.5935 110.396 21.5925 110.396 21.5922C110.396 21.5925 110.396 21.5919 110.396 21.5922C110.396 21.5919 110.396 21.5908 110.396 21.5906C110.396 21.5909 110.396 21.5903 110.396 21.5906C110.396 21.5904 110.396 21.5892 110.396 21.5889C110.396 21.5892 110.396 21.5887 110.396 21.5889C110.396 21.5886 110.396 21.5876 110.396 21.5873C110.396 21.5876 110.396 21.587 110.396 21.5873C110.396 21.587 110.396 21.5859 110.396 21.5857C110.396 21.5859 110.396 21.5854 110.396 21.5857C110.396 21.5854 110.396 21.5843 110.396 21.584C110.396 21.5843 110.396 21.5838 110.396 21.584C110.396 21.5838 110.396 21.5827 110.396 21.5824C110.396 21.5827 110.396 21.5821 110.396 21.5824C110.396 21.5821 110.396 21.5811 110.396 21.5808C110.396 21.581 110.396 21.5805 110.396 21.5808C110.396 21.5805 110.396 21.5794 110.396 21.5792C110.396 21.5794 110.396 21.5789 110.396 21.5792C110.396 21.5789 110.396 21.5778 110.396 21.5775C110.396 21.5778 110.396 21.5773 110.396 21.5775C110.396 21.5773 110.396 21.5762 110.396 21.5759C110.396 21.5762 110.396 21.5757 110.396 21.5759C110.396 21.5756 110.396 21.5746 110.396 21.5743C110.396 21.5746 110.396 21.574 110.396 21.5743C110.396 21.574 110.396 21.573 110.396 21.5727C110.396 21.5729 110.396 21.5724 110.396 21.5727C110.396 21.5724 110.396 21.5713 110.396 21.5711C110.396 21.5713 110.396 21.5708 110.396 21.5711C110.396 21.5708 110.396 21.5697 110.396 21.5695C110.396 21.5698 110.396 21.5692 110.396 21.5695C110.396 21.5693 110.396 21.5681 110.396 21.5678C110.396 21.5681 110.396 21.5676 110.396 21.5678C110.396 21.5676 110.396 21.5665 110.396 21.5662C110.396 21.5665 110.396 21.566 110.396 21.5662C110.396 21.566 110.396 21.5649 110.396 21.5646C110.396 21.5649 110.396 21.5644 110.396 21.5646C110.396 21.5643 110.396 21.5633 110.396 21.563C110.396 21.5633 110.396 21.5627 110.396 21.563C110.396 21.5627 110.396 21.5617 110.396 21.5614C110.396 21.5617 110.396 21.5611 110.396 21.5614C110.396 21.5611 110.396 21.5601 110.396 21.5598C110.396 21.5601 110.396 21.5595 110.396 21.5598C110.396 21.5595 110.396 21.5585 110.396 21.5582C110.396 21.5585 110.396 21.5579 110.396 21.5582C110.396 21.5579 110.396 21.5569 110.396 21.5566C110.396 21.5569 110.396 21.5563 110.396 21.5566C110.396 21.5563 110.396 21.5553 110.396 21.555C110.396 21.5553 110.396 21.5547 110.396 21.555C110.396 21.5547 110.396 21.5537 110.396 21.5534C110.396 21.5537 110.396 21.5531 110.396 21.5534C110.396 21.5531 110.396 21.5521 110.396 21.5518C110.396 21.5521 110.396 21.5515 110.396 21.5518C110.396 21.5515 110.396 21.5505 110.396 21.5502C110.396 21.5505 110.396 21.5499 110.396 21.5502C110.396 21.5499 110.396 21.5489 110.396 21.5486C110.396 21.5489 110.396 21.5483 110.396 21.5486C110.396 21.5483 110.396 21.5473 110.396 21.547C110.396 21.5473 110.396 21.5467 110.396 21.547C110.396 21.5467 110.396 21.5457 110.396 21.5454C110.396 21.5457 110.396 21.5451 110.396 21.5454C110.396 21.5451 110.396 21.5441 110.396 21.5438C110.396 21.5441 110.396 21.5435 110.396 21.5438C110.396 21.5436 110.396 21.5425 110.396 21.5422C110.396 21.5425 110.396 21.542 110.396 21.5422C110.396 21.542 110.396 21.5409 110.396 21.5406C110.396 21.5409 110.396 21.5404 110.396 21.5406C110.396 21.5404 110.396 21.5393 110.396 21.539C110.396 21.5392 110.396 21.5388 110.396 21.539C110.396 21.5387 110.396 21.5377 110.396 21.5375C110.396 21.5377 110.396 21.5372 110.396 21.5375C110.396 21.5372 110.396 21.5361 110.396 21.5359C110.396 21.5362 110.396 21.5356 110.396 21.5359C110.396 21.5356 110.396 21.5346 110.396 21.5343C110.396 21.5346 110.396 21.534 110.396 21.5343C110.396 21.534 110.396 21.533 110.396 21.5327C110.396 21.533 110.396 21.5325 110.396 21.5327C110.396 21.5325 110.396 21.5314 110.396 21.5311C110.396 21.5314 110.396 21.5309 110.396 21.5311C110.396 21.5309 110.396 21.5298 110.396 21.5296C110.396 21.5298 110.396 21.5293 110.396 21.5296C110.396 21.5293 110.396 21.5282 110.396 21.528C110.396 21.5283 110.396 21.5277 110.396 21.528C110.396 21.5277 110.396 21.5267 110.396 21.5264C110.396 21.5267 110.396 21.5261 110.396 21.5264C110.396 21.5262 110.396 21.5251 110.396 21.5248C110.396 21.5251 110.396 21.5246 110.396 21.5248C110.396 21.5246 110.396 21.5235 110.396 21.5233C110.396 21.5235 110.396 21.523 110.396 21.5233C110.396 21.523 110.396 21.5219 110.396 21.5217C110.396 21.522 110.396 21.5214 110.396 21.5217C110.396 21.5214 110.396 21.5204 110.396 21.5201C110.396 21.5204 110.396 21.5199 110.396 21.5201C110.396 21.5199 110.396 21.5188 110.396 21.5185C110.396 21.5187 110.396 21.5183 110.396 21.5185C110.396 21.5182 110.396 21.5172 110.396 21.517C110.396 21.5173 110.396 21.5167 110.396 21.517C110.396 21.5167 110.396 21.5157 110.396 21.5154C110.396 21.5157 110.396 21.5152 110.396 21.5154C110.396 21.5152 110.396 21.5141 110.396 21.5139C110.396 21.5141 110.396 21.5136 110.396 21.5139C110.396 21.5136 110.396 21.5126 110.396 21.5123C110.396 21.5126 110.396 21.512 110.396 21.5123C110.396 21.5121 110.396 21.511 110.396 21.5107C110.396 21.5109 110.396 21.5105 110.396 21.5107C110.396 21.5104 110.396 21.5094 110.396 21.5092C110.396 21.5095 110.396 21.5089 110.396 21.5092C110.396 21.5089 110.396 21.5079 110.396 21.5076C110.396 21.5079 110.396 21.5074 110.396 21.5076C110.396 21.5074 110.396 21.5063 110.396 21.5061C110.396 21.5063 110.396 21.5058 110.396 21.5061C110.396 21.5058 110.396 21.5048 110.396 21.5045C110.396 21.5048 110.396 21.5042 110.396 21.5045C110.396 21.5043 110.396 21.5032 110.396 21.5029C110.396 21.5031 110.396 21.5027 110.396 21.5029C110.396 21.5026 110.396 21.5017 110.396 21.5014C110.396 21.5017 110.396 21.5011 110.396 21.5014C110.396 21.5012 110.396 21.5001 110.396 21.4998C110.396 21.5 110.396 21.4996 110.396 21.4998C110.396 21.4995 110.396 21.4986 110.396 21.4983C110.396 21.4986 110.396 21.498 110.396 21.4983C110.396 21.4981 110.396 21.497 110.396 21.4967C110.396 21.4969 110.396 21.4965 110.396 21.4967C110.396 21.4964 110.396 21.4955 110.396 21.4952C110.396 21.4955 110.396 21.4949 110.396 21.4952C110.396 21.495 110.396 21.4939 110.396 21.4937C110.396 21.4939 110.396 21.4934 110.396 21.4937C110.396 21.4934 110.396 21.4924 110.396 21.4921C110.396 21.4924 110.396 21.4919 110.396 21.4921C110.396 21.4919 110.396 21.4908 110.396 21.4906C110.396 21.4909 110.396 21.4903 110.396 21.4906C110.396 21.4903 110.396 21.4893 110.396 21.489C110.396 21.4892 110.396 21.4888 110.396 21.489C110.396 21.4887 110.396 21.4878 110.396 21.4875C110.396 21.4878 110.396 21.4872 110.396 21.4875C110.396 21.4873 110.396 21.4862 110.396 21.486C110.396 21.4862 110.396 21.4857 110.396 21.486C110.396 21.4857 110.396 21.4847 110.396 21.4844C110.396 21.4846 110.396 21.4842 110.396 21.4844C110.396 21.4841 110.396 21.4831 110.396 21.4829C110.396 21.4832 110.396 21.4826 110.396 21.4829C110.396 21.4827 110.396 21.4816 110.396 21.4814C110.396 21.4816 110.396 21.4811 110.396 21.4814C110.396 21.4811 110.396 21.4801 110.396 21.4798C110.396 21.48 110.396 21.4796 110.396 21.4798C110.396 21.4795 110.396 21.4785 110.396 21.4783C110.396 21.4786 110.396 21.478 110.396 21.4783C110.396 21.4781 110.396 21.477 110.396 21.4768C110.396 21.4771 110.396 21.4765 110.396 21.4768C110.396 21.4765 110.396 21.4755 110.396 21.4752C110.396 21.4754 110.396 21.475 110.396 21.4752C110.396 21.4749 110.396 21.474 110.396 21.4737C110.396 21.474 110.396 21.4735 110.396 21.4737C110.396 21.4735 110.396 21.4724 110.396 21.4722C110.396 21.4725 110.396 21.4719 110.396 21.4722C110.396 21.472 110.396 21.4709 110.396 21.4707C110.396 21.471 110.396 21.4704 110.396 21.4707C110.396 21.4705 110.396 21.4694 110.396 21.4691C110.396 21.4693 110.396 21.4689 110.396 21.4691C110.396 21.4688 110.396 21.4679 110.396 21.4676C110.396 21.4678 110.396 21.4674 110.396 21.4676C110.396 21.4673 110.396 21.4664 110.396 21.4661C110.396 21.4664 110.396 21.4659 110.396 21.4661C110.396 21.4659 110.396 21.4648 110.396 21.4646C110.396 21.4649 110.396 21.4643 110.396 21.4646C110.396 21.4644 110.396 21.4633 110.396 21.4631C110.396 21.4634 110.396 21.4628 110.396 21.4631C110.396 21.4629 110.396 21.4618 110.396 21.4616C110.396 21.4619 110.396 21.4613 110.396 21.4616C110.396 21.4614 110.396 21.4603 110.396 21.46C110.396 21.4602 110.396 21.4598 110.396 21.46C110.396 21.4597 110.396 21.4588 110.396 21.4585C110.396 21.4587 110.396 21.4583 110.396 21.4585C110.396 21.4582 110.396 21.4573 110.396 21.457C110.396 21.4572 110.396 21.4568 110.396 21.457C110.396 21.4567 110.396 21.4558 110.396 21.4555C110.396 21.4557 110.396 21.4553 110.396 21.4555C110.396 21.4552 110.396 21.4543 110.396 21.454C110.396 21.4542 110.396 21.4538 110.396 21.454C110.396 21.4537 110.396 21.4528 110.396 21.4525C110.396 21.4527 110.396 21.4523 110.396 21.4525C110.396 21.4522 110.396 21.4513 110.396 21.451C110.396 21.4512 110.396 21.4508 110.396 21.451C110.396 21.4507 110.396 21.4498 110.396 21.4495C110.396 21.4497 110.396 21.4493 110.396 21.4495C110.396 21.4492 110.396 21.4482 110.396 21.448H108.368C108.368 21.4477 108.368 21.4482 108.368 21.448C108.368 21.4482 108.368 21.4493 108.368 21.4495C108.368 21.4492 108.368 21.4498 108.368 21.4495C108.368 21.4497 108.368 21.4508 108.368 21.451C108.368 21.4507 108.368 21.4513 108.368 21.451C108.368 21.4512 108.368 21.4523 108.368 21.4525C108.368 21.4522 108.368 21.4528 108.368 21.4525C108.368 21.4527 108.368 21.4538 108.368 21.454C108.368 21.4537 108.368 21.4543 108.368 21.454C108.368 21.4542 108.368 21.4553 108.368 21.4555C108.368 21.4552 108.368 21.4558 108.368 21.4555C108.368 21.4557 108.368 21.4568 108.368 21.457C108.368 21.4567 108.368 21.4573 108.368 21.457C108.368 21.4572 108.368 21.4583 108.368 21.4585C108.368 21.4582 108.368 21.4588 108.368 21.4585C108.368 21.4587 108.368 21.4598 108.368 21.46C108.368 21.4598 108.368 21.4603 108.368 21.46C108.368 21.4603 108.368 21.4613 108.368 21.4616C108.368 21.4614 108.368 21.4618 108.368 21.4616C108.368 21.4619 108.368 21.4628 108.368 21.4631C108.368 21.4629 108.368 21.4633 108.368 21.4631C108.368 21.4634 108.368 21.4643 108.368 21.4646C108.368 21.4644 108.368 21.4648 108.368 21.4646C108.368 21.4649 108.368 21.4659 108.368 21.4661C108.368 21.4658 108.368 21.4664 108.368 21.4661C108.368 21.4663 108.368 21.4674 108.368 21.4676C108.368 21.4673 108.368 21.4679 108.368 21.4676C108.368 21.4678 108.368 21.4689 108.368 21.4691C108.368 21.4689 108.368 21.4694 108.368 21.4691C108.368 21.4694 108.368 21.4704 108.368 21.4707C108.368 21.4705 108.368 21.4709 108.368 21.4707C108.368 21.471 108.368 21.4719 108.368 21.4722C108.368 21.472 108.368 21.4724 108.368 21.4722C108.368 21.4725 108.368 21.4735 108.368 21.4737C108.368 21.4734 108.368 21.474 108.368 21.4737C108.368 21.4739 108.368 21.475 108.368 21.4752C108.368 21.4749 108.368 21.4755 108.368 21.4752C108.368 21.4755 108.368 21.4765 108.368 21.4768C108.368 21.4766 108.368 21.477 108.368 21.4768C108.368 21.4771 108.368 21.478 108.368 21.4783C108.368 21.478 108.368 21.4785 108.368 21.4783C108.368 21.4785 108.368 21.4796 108.368 21.4798C108.368 21.4795 108.368 21.4801 108.368 21.4798C108.368 21.48 108.368 21.4811 108.368 21.4814C108.368 21.4812 108.368 21.4816 108.368 21.4814C108.368 21.4817 108.368 21.4826 108.368 21.4829C108.368 21.4826 108.368 21.4831 108.368 21.4829C108.368 21.4831 108.368 21.4842 108.368 21.4844C108.368 21.4841 108.368 21.4847 108.368 21.4844C108.368 21.4846 108.368 21.4857 108.368 21.486C108.368 21.4858 108.368 21.4862 108.368 21.486C108.368 21.4863 108.368 21.4872 108.368 21.4875C108.368 21.4872 108.368 21.4878 108.368 21.4875C108.368 21.4877 108.368 21.4888 108.368 21.489C108.368 21.4887 108.368 21.4893 108.368 21.489C108.368 21.4893 108.368 21.4903 108.368 21.4906C108.368 21.4904 108.368 21.4908 108.368 21.4906C108.368 21.4909 108.368 21.4919 108.368 21.4921C108.368 21.4918 108.368 21.4924 108.368 21.4921C108.368 21.4923 108.368 21.4934 108.368 21.4937C108.368 21.4935 108.368 21.4939 108.368 21.4937C108.368 21.494 108.368 21.4949 108.368 21.4952C108.368 21.4949 108.368 21.4955 108.368 21.4952C108.368 21.4954 108.368 21.4965 108.368 21.4967C108.368 21.4965 108.368 21.497 108.368 21.4967C108.368 21.497 108.368 21.498 108.368 21.4983C108.368 21.498 108.368 21.4986 108.368 21.4983C108.368 21.4985 108.368 21.4996 108.368 21.4998C108.368 21.4996 108.368 21.5001 108.368 21.4998C108.368 21.5001 108.368 21.5011 108.368 21.5014C108.368 21.5011 108.368 21.5017 108.368 21.5014C108.368 21.5016 108.368 21.5027 108.368 21.5029C108.368 21.5027 108.368 21.5032 108.368 21.5029C108.368 21.5032 108.368 21.5042 108.368 21.5045C108.368 21.5042 108.368 21.5048 108.368 21.5045C108.368 21.5047 108.368 21.5058 108.368 21.5061C108.368 21.5059 108.368 21.5063 108.368 21.5061C108.368 21.5064 108.368 21.5074 108.368 21.5076C108.368 21.5073 108.368 21.5079 108.368 21.5076C108.368 21.5079 108.368 21.5089 108.368 21.5092C108.368 21.5089 108.368 21.5094 108.368 21.5092C108.368 21.5094 108.368 21.5105 108.368 21.5107C108.368 21.5105 108.368 21.511 108.368 21.5107C108.368 21.511 108.368 21.512 108.368 21.5123C108.368 21.512 108.368 21.5126 108.368 21.5123C108.368 21.5125 108.368 21.5136 108.368 21.5139C108.368 21.5137 108.368 21.5141 108.368 21.5139C108.368 21.5142 108.368 21.5152 108.368 21.5154C108.368 21.5151 108.368 21.5157 108.368 21.5154C108.368 21.5157 108.368 21.5167 108.368 21.517C108.368 21.5167 108.368 21.5172 108.368 21.517C108.368 21.5172 108.368 21.5183 108.368 21.5185C108.368 21.5183 108.368 21.5188 108.368 21.5185C108.368 21.5188 108.368 21.5199 108.368 21.5201C108.368 21.5198 108.368 21.5204 108.368 21.5201C108.368 21.5204 108.368 21.5214 108.368 21.5217C108.368 21.5214 108.368 21.5219 108.368 21.5217C108.368 21.5219 108.368 21.523 108.368 21.5233C108.368 21.5231 108.368 21.5235 108.368 21.5233C108.368 21.5236 108.368 21.5246 108.368 21.5248C108.368 21.5246 108.368 21.5251 108.368 21.5248C108.368 21.5251 108.368 21.5261 108.368 21.5264C108.368 21.5261 108.368 21.5267 108.368 21.5264C108.368 21.5267 108.368 21.5277 108.368 21.528C108.368 21.5277 108.368 21.5282 108.368 21.528C108.368 21.5282 108.368 21.5293 108.368 21.5296C108.368 21.5294 108.368 21.5298 108.368 21.5296C108.368 21.5299 108.368 21.5309 108.368 21.5311C108.368 21.5309 108.368 21.5314 108.368 21.5311C108.368 21.5314 108.368 21.5325 108.368 21.5327C108.368 21.5324 108.368 21.533 108.368 21.5327C108.368 21.533 108.368 21.534 108.368 21.5343C108.368 21.534 108.368 21.5346 108.368 21.5343C108.368 21.5346 108.368 21.5356 108.368 21.5359C108.368 21.5356 108.368 21.5361 108.368 21.5359C108.368 21.5361 108.368 21.5372 108.368 21.5375C108.368 21.5372 108.368 21.5377 108.368 21.5375C108.368 21.5377 108.368 21.5388 108.368 21.539C108.368 21.5388 108.368 21.5393 108.368 21.539C108.368 21.5393 108.368 21.5404 108.368 21.5406C108.368 21.5404 108.368 21.5409 108.368 21.5406C108.368 21.5409 108.368 21.542 108.368 21.5422C108.368 21.542 108.368 21.5425 108.368 21.5422C108.368 21.5425 108.368 21.5435 108.368 21.5438C108.368 21.5435 108.368 21.5441 108.368 21.5438C108.368 21.5441 108.368 21.5451 108.368 21.5454C108.368 21.5451 108.368 21.5457 108.368 21.5454C108.368 21.5457 108.368 21.5467 108.368 21.547C108.368 21.5467 108.368 21.5473 108.368 21.547C108.368 21.5473 108.368 21.5483 108.368 21.5486C108.368 21.5483 108.368 21.5489 108.368 21.5486C108.368 21.5489 108.368 21.5499 108.368 21.5502C108.368 21.5499 108.368 21.5505 108.368 21.5502C108.368 21.5505 108.368 21.5515 108.368 21.5518C108.368 21.5515 108.368 21.5521 108.368 21.5518C108.368 21.5521 108.368 21.5531 108.368 21.5534C108.368 21.5531 108.368 21.5537 108.368 21.5534C108.368 21.5537 108.368 21.5547 108.368 21.555C108.368 21.5547 108.368 21.5553 108.368 21.555C108.368 21.5553 108.368 21.5563 108.368 21.5566C108.368 21.5563 108.368 21.5569 108.368 21.5566C108.368 21.5569 108.368 21.5579 108.368 21.5582C108.368 21.5579 108.368 21.5585 108.368 21.5582C108.368 21.5585 108.368 21.5595 108.368 21.5598C108.368 21.5595 108.368 21.5601 108.368 21.5598C108.368 21.5601 108.368 21.5611 108.368 21.5614C108.368 21.5611 108.368 21.5617 108.368 21.5614C108.368 21.5617 108.368 21.5627 108.368 21.563C108.368 21.5627 108.368 21.5633 108.368 21.563C108.368 21.5633 108.368 21.5644 108.368 21.5646C108.368 21.5644 108.368 21.5649 108.368 21.5646C108.368 21.5649 108.368 21.566 108.368 21.5662C108.368 21.566 108.368 21.5665 108.368 21.5662C108.368 21.5665 108.368 21.5676 108.368 21.5678C108.368 21.5676 108.368 21.5681 108.368 21.5678C108.368 21.5681 108.368 21.5692 108.368 21.5695C108.368 21.5692 108.368 21.5697 108.368 21.5695C108.368 21.5697 108.368 21.5708 108.368 21.5711C108.368 21.5708 108.368 21.5713 108.368 21.5711C108.368 21.5713 108.368 21.5724 108.368 21.5727C108.368 21.5724 108.368 21.573 108.368 21.5727C108.368 21.573 108.368 21.574 108.368 21.5743C108.368 21.574 108.368 21.5746 108.368 21.5743C108.368 21.5746 108.368 21.5757 108.368 21.5759C108.368 21.5757 108.368 21.5762 108.368 21.5759C108.368 21.5762 108.368 21.5773 108.368 21.5775C108.368 21.5772 108.368 21.5778 108.368 21.5775C108.368 21.5777 108.368 21.5789 108.368 21.5792C108.368 21.5789 108.368 21.5794 108.368 21.5792C108.368 21.5794 108.368 21.5805 108.368 21.5808C108.368 21.5805 108.368 21.5811 108.368 21.5808C108.368 21.5811 108.368 21.5821 108.368 21.5824C108.368 21.5822 108.368 21.5827 108.368 21.5824C108.368 21.5827 108.368 21.5838 108.368 21.584C108.368 21.5837 108.368 21.5843 108.368 21.584C108.368 21.5842 108.368 21.5854 108.368 21.5857C108.368 21.5854 108.368 21.5859 108.368 21.5857C108.368 21.586 108.368 21.587 108.368 21.5873C108.368 21.587 108.368 21.5876 108.368 21.5873C108.368 21.5876 108.368 21.5887 108.368 21.5889C108.368 21.5887 108.368 21.5892 108.368 21.5889C108.368 21.5892 108.368 21.5903 108.368 21.5906C108.368 21.5903 108.368 21.5908 108.368 21.5906C108.368 21.5909 108.368 21.5919 108.368 21.5922C108.368 21.5919 108.368 21.5925 108.368 21.5922C108.368 21.5925 108.368 21.5936 108.368 21.5938C108.368 21.5935 108.368 21.5941 108.368 21.5938C108.368 21.594 108.368 21.5952 108.368 21.5955C108.368 21.5952 108.368 21.5957 108.368 21.5955C108.368 21.5958 108.368 21.5968 108.368 21.5971C108.368 21.5969 108.368 21.5974 108.368 21.5971C108.368 21.5974 108.368 21.5985 108.368 21.5987C108.368 21.5984 108.368 21.599 108.368 21.5987C108.368 21.5989 108.368 21.6001 108.368 21.6004C108.368 21.6001 108.368 21.6007 108.368 21.6004C108.368 21.6007 108.368 21.6018 108.368 21.602C108.368 21.6017 108.368 21.6023 108.368 21.602C108.368 21.6022 108.368 21.6034 108.368 21.6037C108.368 21.6034 108.368 21.604 108.368 21.6037C108.368 21.604 108.368 21.605 108.368 21.6053C108.368 21.6051 108.368 21.6056 108.368 21.6053C108.368 21.6056 108.368 21.6067 108.368 21.607C108.368 21.6067 108.368 21.6072 108.368 21.607C108.368 21.6073 108.368 21.6083 108.368 21.6086C108.368 21.6084 108.368 21.6089 108.368 21.6086C108.368 21.6089 108.368 21.61 108.368 21.6103C108.368 21.61 108.368 21.6105 108.368 21.6103C108.368 21.6106 108.368 21.6116 108.368 21.6119C108.368 21.6117 108.368 21.6122 108.368 21.6119C108.368 21.6122 108.368 21.6133 108.368 21.6136C108.368 21.6133 108.368 21.6138 108.368 21.6136C108.368 21.6139 108.368 21.615 108.368 21.6152C108.368 21.6149 108.368 21.6155 108.368 21.6152C108.368 21.6154 108.368 21.6166 108.368 21.6169C108.368 21.6166 108.368 21.6172 108.368 21.6169C108.368 21.6172 108.368 21.6183 108.368 21.6185C108.368 21.6182 108.368 21.6188 108.368 21.6185C108.368 21.6187 108.368 21.6199 108.368 21.6202C108.368 21.62 108.368 21.6205 108.368 21.6202C108.368 21.6205 108.368 21.6216 108.368 21.6219C108.368 21.6216 108.368 21.6221 108.368 21.6219C108.368 21.6222 108.368 21.6232 108.368 21.6235C108.368 21.6232 108.368 21.6238 108.368 21.6235C108.368 21.6237 108.368 21.6249 108.368 21.6252C108.368 21.6249 108.368 21.6255 108.368 21.6252C108.368 21.6255 108.368 21.6266 108.368 21.6269C108.368 21.6266 108.368 21.6271 108.368 21.6269C108.368 21.6272 108.368 21.6282 108.368 21.6285C108.368 21.6282 108.368 21.6288 108.368 21.6285C108.368 21.6287 108.368 21.6299 108.368 21.6302C108.368 21.6299 108.368 21.6305 108.368 21.6302C108.368 21.6305 108.368 21.6316 108.368 21.6319C108.368 21.6316 108.368 21.6321 108.368 21.6319C108.368 21.6322 108.368 21.6332 108.368 21.6335C108.368 21.6332 108.368 21.6338 108.368 21.6335C108.368 21.6337 108.368 21.6349 108.368 21.6352C108.368 21.635 108.368 21.6355 108.368 21.6352C108.368 21.6355 108.368 21.6366 108.368 21.6369C108.368 21.6366 108.368 21.6372 108.368 21.6369C108.368 21.6372 108.368 21.6383 108.368 21.6385C108.368 21.6382 108.368 21.6388 108.368 21.6385C108.368 21.6388 108.368 21.6399 108.368 21.6402C108.368 21.6399 108.368 21.6405 108.368 21.6402C108.368 21.6404 108.368 21.6416 108.368 21.6419C108.368 21.6417 108.368 21.6422 108.368 21.6419C108.368 21.6422 108.368 21.6433 108.368 21.6436C108.368 21.6433 108.368 21.6439 108.368 21.6436C108.368 21.6439 108.368 21.645 108.368 21.6453C108.368 21.645 108.368 21.6455 108.368 21.6453C108.368 21.6456 108.368 21.6467 108.368 21.6469C108.368 21.6466 108.368 21.6472 108.368 21.6469C108.368 21.6472 108.368 21.6483 108.368 21.6486C108.368 21.6483 108.368 21.6489 108.368 21.6486C108.368 21.6489 108.368 21.65 108.368 21.6503C108.368 21.65 108.368 21.6506 108.368 21.6503C108.368 21.6505 108.368 21.6517 108.368 21.652C108.368 21.6518 108.368 21.6523 108.368 21.652C108.368 21.6523 108.368 21.6534 108.368 21.6537C108.368 21.6535 108.368 21.654 108.368 21.6537C108.368 21.654 108.368 21.6551 108.368 21.6554C108.368 21.6551 108.368 21.6557 108.368 21.6554C108.368 21.6557 108.368 21.6568 108.368 21.6571C108.368 21.6568 108.368 21.6574 108.368 21.6571C108.368 21.6574 108.368 21.6585 108.368 21.6588C108.368 21.6585 108.368 21.659 108.368 21.6588C108.368 21.6591 108.368 21.6602 108.368 21.6605C108.368 21.6602 108.368 21.6607 108.368 21.6605C108.368 21.6608 108.368 21.6619 108.368 21.6622C108.368 21.6619 108.368 21.6624 108.368 21.6622C108.368 21.6625 108.368 21.6636 108.368 21.6638C108.368 21.6635 108.368 21.6641 108.368 21.6638C108.368 21.6641 108.368 21.6653 108.368 21.6655C108.368 21.6652 108.368 21.6658 108.368 21.6655C108.368 21.6658 108.368 21.667 108.368 21.6672C108.368 21.6669 108.368 21.6675 108.368 21.6672C108.368 21.6675 108.368 21.6687 108.368 21.6689C108.368 21.6686 108.368 21.6692 108.368 21.6689C108.368 21.6692 108.368 21.6704 108.368 21.6707C108.368 21.6704 108.368 21.6709 108.368 21.6707C108.368 21.671 108.368 21.6721 108.368 21.6724C108.368 21.6721 108.368 21.6726 108.368 21.6724C108.368 21.6727 108.368 21.6738 108.368 21.6741C108.368 21.6738 108.368 21.6743 108.368 21.6741C108.368 21.6744 108.368 21.6755 108.368 21.6758C108.368 21.6755 108.368 21.6761 108.368 21.6758C108.368 21.6761 108.368 21.6772 108.368 21.6775C108.368 21.6772 108.368 21.6778 108.368 21.6775C108.368 21.6778 108.368 21.6789 108.368 21.6792C108.368 21.679 108.368 21.6795 108.368 21.6792C108.368 21.6795 108.368 21.6806 108.368 21.6809C108.368 21.6806 108.368 21.6812 108.368 21.6809C108.368 21.6811 108.368 21.6823 108.368 21.6826C108.368 21.6823 108.368 21.6829 108.368 21.6826C108.368 21.6829 108.368 21.684 108.368 21.6843C108.368 21.684 108.368 21.6846 108.368 21.6843C108.368 21.6846 108.368 21.6858 108.368 21.686C108.368 21.6857 108.368 21.6863 108.368 21.686C108.368 21.6863 108.368 21.6875 108.368 21.6878C108.368 21.6875 108.368 21.688 108.368 21.6878C108.368 21.6881 108.368 21.6892 108.368 21.6895C108.368 21.6893 108.368 21.6898 108.368 21.6895C108.368 21.6898 108.368 21.6909 108.368 21.6912C108.368 21.6909 108.368 21.6915 108.368 21.6912C108.368 21.6914 108.368 21.6926 108.368 21.6929C108.368 21.6926 108.368 21.6932 108.368 21.6929C108.368 21.6932 108.368 21.6944 108.368 21.6946C108.368 21.6943 108.368 21.6949 108.368 21.6946C108.368 21.6949 108.368 21.6961 108.368 21.6964C108.368 21.6961 108.368 21.6967 108.368 21.6964C108.368 21.6967 108.368 21.6978 108.368 21.6981C108.368 21.6978 108.368 21.6984 108.368 21.6981C108.368 21.6983 108.368 21.6995 108.368 21.6998C108.368 21.6995 108.368 21.7001 108.368 21.6998C108.368 21.7001 108.368 21.7013 108.368 21.7016C108.368 21.7013 108.368 21.7018 108.368 21.7016C108.368 21.7019 108.368 21.703 108.368 21.7033C108.368 21.7031 108.368 21.7036 108.368 21.7033C108.368 21.7036 108.368 21.7047 108.368 21.705C108.368 21.7047 108.368 21.7053 108.368 21.705C108.368 21.7053 108.368 21.7065 108.368 21.7067C108.368 21.7064 108.368 21.707 108.368 21.7067C108.368 21.707 108.368 21.7082 108.368 21.7085C108.368 21.7082 108.368 21.7088 108.368 21.7085C108.368 21.7087 108.368 21.7099 108.368 21.7102C108.368 21.7099 108.368 21.7105 108.368 21.7102C108.368 21.7105 108.368 21.7117 108.368 21.712C108.368 21.7117 108.368 21.7122 108.368 21.712C108.368 21.7123 108.368 21.7134 108.368 21.7137C108.368 21.7134 108.368 21.714 108.368 21.7137C108.368 21.714 108.368 21.7151 108.368 21.7154C108.368 21.7151 108.368 21.7157 108.368 21.7154C108.368 21.7157 108.368 21.7169 108.368 21.7172C108.368 21.7169 108.368 21.7175 108.368 21.7172C108.368 21.7174 108.368 21.7186 108.368 21.7189C108.368 21.7186 108.368 21.7192 108.368 21.7189C108.368 21.7192 108.368 21.7204 108.368 21.7207C108.368 21.7205 108.368 21.721 108.368 21.7207C108.368 21.721 108.368 21.7221 108.368 21.7224C108.368 21.7221 108.368 21.7227 108.368 21.7224C108.368 21.7227 108.368 21.7239 108.368 21.7242C108.368 21.7239 108.368 21.7245 108.368 21.7242C108.368 21.7245 108.368 21.7256 108.368 21.7259C108.368 21.7256 108.368 21.7262 108.368 21.7259C108.368 21.7262 108.368 21.7274 108.368 21.7277C108.368 21.7275 108.368 21.728 108.368 21.7277C108.368 21.728 108.368 21.7291 108.368 21.7294C108.368 21.7291 108.368 21.7297 108.368 21.7294C108.368 21.7297 108.368 21.7309 108.368 21.7312C108.368 21.7309 108.368 21.7315 108.368 21.7312C108.368 21.7314 108.368 21.7326 108.368 21.7329C108.368 21.7326 108.368 21.7332 108.368 21.7329C108.368 21.7332 108.368 21.7344 108.368 21.7347C108.368 21.7344 108.368 21.735 108.368 21.7347C108.368 21.735 108.368 21.7362 108.368 21.7364C108.368 21.7361 108.368 21.7367 108.368 21.7364C108.368 21.7367 108.368 21.7379 108.368 21.7382C108.368 21.7379 108.368 21.7385 108.368 21.7382C108.368 21.7385 108.368 21.7397 108.368 21.74C108.368 21.7398 108.368 21.7403 108.368 21.74C108.368 21.7403 108.368 21.7414 108.368 21.7417C108.368 21.7414 108.368 21.742 108.368 21.7417C108.368 21.742 108.368 21.7432 108.368 21.7435C108.368 21.7432 108.368 21.7438 108.368 21.7435C108.368 21.7438 108.368 21.745 108.368 21.7453C108.368 21.745 108.368 21.7456 108.368 21.7453C108.368 21.7456 108.368 21.7467 108.368 21.747C108.368 21.7467 108.368 21.7473 108.368 21.747C108.368 21.7473 108.368 21.7485 108.368 21.7488C108.368 21.7485 108.368 21.7491 108.368 21.7488C108.368 21.7491 108.368 21.7503 108.368 21.7506C108.368 21.7503 108.368 21.7509 108.368 21.7506C108.368 21.7508 108.368 21.752 108.368 21.7523C108.368 21.752 108.368 21.7526 108.368 21.7523C108.368 21.7526 108.368 21.7538 108.368 21.7541C108.368 21.7538 108.368 21.7544 108.368 21.7541C108.368 21.7544 108.368 21.7556 108.368 21.7559C108.368 21.7556 108.368 21.7562 108.368 21.7559C108.368 21.7562 108.368 21.7574 108.368 21.7577C108.368 21.7574 108.368 21.758 108.368 21.7577C108.368 21.7579 108.368 21.7591 108.368 21.7594C108.368 21.7591 108.368 21.7597 108.368 21.7594C108.368 21.7597 108.368 21.7609 108.368 21.7612C108.368 21.7609 108.368 21.7615 108.368 21.7612C108.368 21.7615 108.368 21.7627 108.368 21.763C108.368 21.7627 108.368 21.7633 108.368 21.763C108.368 21.7633 108.368 21.7645 108.368 21.7648C108.368 21.7645 108.368 21.7651 108.368 21.7648C108.368 21.7651 108.368 21.7663 108.368 21.7666C108.368 21.7663 108.368 21.7669 108.368 21.7666C108.368 21.7669 108.368 21.7681 108.368 21.7683C108.368 21.768 108.368 21.7686 108.368 21.7683C108.368 21.7686 108.368 21.7698 108.368 21.7701C108.368 21.7698 108.368 21.7704 108.368 21.7701C108.368 21.7704 108.368 21.7716 108.368 21.7719C108.368 21.7716 108.368 21.7722 108.368 21.7719C108.368 21.7722 108.368 21.7734 108.368 21.7737C108.368 21.7734 108.368 21.774 108.368 21.7737C108.368 21.774 108.368 21.7752 108.368 21.7755C108.368 21.7752 108.368 21.7758 108.368 21.7755C108.368 21.7758 108.368 21.777 108.368 21.7773C108.368 21.777 108.368 21.7776 108.368 21.7773C108.368 21.7776 108.368 21.7788 108.368 21.7791C108.368 21.7788 108.368 21.7794 108.368 21.7791C108.368 21.7794 108.368 21.7806 108.368 21.7809C108.368 21.7806 108.368 21.7812 108.368 21.7809C108.368 21.7812 108.368 21.7824 108.368 21.7827C108.368 21.7824 108.368 21.783 108.368 21.7827C108.368 21.783 108.368 21.7842 108.368 21.7845C108.368 21.7842 108.368 21.7848 108.368 21.7845C108.368 21.7848 108.368 21.786 108.368 21.7863C108.368 21.786 108.368 21.7866 108.368 21.7863C108.368 21.7866 108.368 21.7878 108.368 21.7881C108.368 21.7878 108.368 21.7884 108.368 21.7881C108.368 21.7884 108.368 21.7896 108.368 21.7899C108.368 21.7896 108.368 21.7902 108.368 21.7899C108.368 21.7902 108.368 21.7914 108.368 21.7917C108.368 21.7914 108.368 21.792 108.368 21.7917C108.368 21.792 108.368 21.7932 108.368 21.7935C108.368 21.7932 108.368 21.7938 108.368 21.7935C108.368 21.7938 108.368 21.795 108.368 21.7953C108.368 21.795 108.368 21.7956 108.368 21.7953C108.368 21.7956 108.368 21.7968 108.368 21.7971C108.368 21.7968 108.368 21.7974 108.368 21.7971C108.368 21.7974 108.368 21.7986 108.368 21.7989C108.368 21.7986 108.368 21.7992 108.368 21.7989C108.368 21.7992 108.368 21.8004 108.368 21.8007C108.368 21.8004 108.368 21.801 108.368 21.8007C108.368 21.801 108.368 21.8022 108.368 21.8025C108.368 21.8022 108.368 21.8028 108.368 21.8025C108.368 21.8029 108.368 21.8041 108.368 21.8044C108.368 21.8041 108.368 21.8047 108.368 21.8044C108.368 21.8047 108.368 21.8059 108.368 21.8062C108.368 21.8059 108.368 21.8065 108.368 21.8062C108.368 21.8065 108.368 21.8077 108.368 21.808C108.368 21.8077 108.368 21.8083 108.368 21.808C108.368 21.8083 108.368 21.8095 108.368 21.8098C108.368 21.8095 108.368 21.8101 108.368 21.8098C108.368 21.8101 108.368 21.8113 108.368 21.8116C108.368 21.8113 108.368 21.8119 108.368 21.8116C108.368 21.8119 108.368 21.8131 108.368 21.8134C108.368 21.8131 108.368 21.8138 108.368 21.8134C108.368 21.8137 108.368 21.815 108.368 21.8153C108.368 21.815 108.368 21.8156 108.368 21.8153C108.368 21.8156 108.368 21.8168 108.368 21.8171C108.368 21.8168 108.368 21.8174 108.368 21.8171C108.368 21.8174 108.368 21.8186 108.368 21.8189C108.368 21.8186 108.368 21.8192 108.368 21.8189C108.368 21.8192 108.368 21.8204 108.368 21.8207C108.368 21.8204 108.368 21.8211 108.368 21.8207C108.368 21.821 108.368 21.8223 108.368 21.8226C108.368 21.8223 108.368 21.8229 108.368 21.8226C108.368 21.8229 108.368 21.8241 108.368 21.8244C108.368 21.8241 108.368 21.8247 108.368 21.8244C108.368 21.8247 108.368 21.8259 108.368 21.8262C108.368 21.8259 108.368 21.8265 108.368 21.8262C108.368 21.8265 108.368 21.8278 108.368 21.8281C108.368 21.8278 108.368 21.8284 108.368 21.8281C108.368 21.8284 108.368 21.8296 108.368 21.8299C108.368 21.8296 108.368 21.8302 108.368 21.8299C108.368 21.8302 108.368 21.8314 108.368 21.8317C108.368 21.8321 108.368 21.8324 108.368 21.8327C108.368 21.8324 108.368 21.833 108.368 21.8327C108.368 21.833 108.368 21.8342 108.368 21.8345C108.368 21.8342 108.368 21.8348 108.368 21.8345C108.368 21.8348 108.368 21.836 108.368 21.8363C108.368 21.836 108.368 21.8366 108.368 21.8363C108.368 21.8366 108.368 21.8379 108.368 21.8382C108.368 21.8379 108.368 21.8385 108.368 21.8382C108.368 21.8385 108.368 21.8397 108.368 21.84C108.368 21.8397 108.368 21.8403 108.368 21.84C108.368 21.8404 108.368 21.8416 108.368 21.8419C108.368 21.8416 108.368 21.8422 108.368 21.8419C108.368 21.8422 108.368 21.8434 108.368 21.8437C108.368 21.8434 108.368 21.844 108.368 21.8437C108.368 21.844 108.368 21.8453 108.368 21.8456C108.368 21.8453 108.368 21.8459 108.368 21.8456C108.368 21.8459 108.368 21.8471 108.368 21.8474C108.368 21.8471 108.368 21.8477 108.368 21.8474C108.368 21.8477 108.368 21.849 108.368 21.8493C108.368 21.849 108.368 21.8496 108.368 21.8493C108.368 21.8496 108.368 21.8508 108.368 21.8511C108.368 21.8508 108.368 21.8514 108.368 21.8511C108.368 21.8514 108.368 21.8527 108.368 21.853C108.368 21.8527 108.368 21.8533 108.368 21.853C108.368 21.8533 108.368 21.8545 108.368 21.8548C108.368 21.8545 108.368 21.8551 108.368 21.8548C108.368 21.8552 108.368 21.8564 108.368 21.8567C108.368 21.8564 108.368 21.857 108.368 21.8567C108.368 21.857 108.368 21.8582 108.368 21.8585C108.368 21.8588 108.368 21.8592 108.368 21.8595C108.368 21.8592 108.368 21.8598 108.368 21.8595C108.368 21.8598 108.368 21.861 108.368 21.8613C108.368 21.8616 108.368 21.8619 108.368 21.8623C108.368 21.862 108.368 21.8626 108.368 21.8623C108.368 21.8626 108.368 21.8638 108.368 21.8641C108.368 21.8638 108.368 21.8644 108.368 21.8641C108.368 21.8645 108.368 21.8657 108.368 21.866C108.368 21.8657 108.368 21.8663 108.368 21.866C108.368 21.8663 108.368 21.8675 108.368 21.8678C108.368 21.8675 108.368 21.8682 108.368 21.8678C108.368 21.8681 108.368 21.8694 108.368 21.8697C108.368 21.8694 108.368 21.87 108.368 21.8697C108.368 21.8701 108.368 21.8713 108.368 21.8716C108.368 21.8713 108.368 21.8719 108.368 21.8716C108.368 21.8719 108.368 21.8731 108.368 21.8734C108.368 21.8731 108.368 21.8738 108.368 21.8734C108.368 21.8737 108.368 21.875 108.368 21.8753C108.368 21.8756 108.368 21.8759 108.368 21.8763C108.368 21.876 108.368 21.8766 108.368 21.8763C108.368 21.8766 108.368 21.8778 108.368 21.8781C108.368 21.8784 108.368 21.8796 108.368 21.88C108.368 21.8797 108.368 21.8803 108.368 21.88H110.396ZM110.396 21.448C110.396 19.7253 109.899 18.2595 108.741 17.2446L107.393 18.7394C107.987 19.2605 108.368 20.0987 108.368 21.448H110.396ZM108.741 17.2446C107.669 16.3049 106.37 15.84 104.903 15.84V17.84C105.901 17.84 106.712 18.1431 107.393 18.7394L108.741 17.2446ZM121.187 1.47998V0.47998H120.173V1.47998H121.187ZM126.786 1.47998H127.801V0.47998H126.786V1.47998ZM127.127 31.528L126.219 31.9752L126.24 32.0146L126.263 32.0521L127.127 31.528ZM129.367 32.152H130.381V31.152H129.367V32.152ZM129.367 37.24V38.24H130.381V37.24H129.367ZM121.723 33.496L120.757 33.8038L120.761 33.8164L120.766 33.8288L121.723 33.496ZM122.202 30.136V1.47998H120.173V30.136H122.202ZM121.187 2.47998H126.786V0.47998H121.187V2.47998ZM125.772 1.47998V30.136H127.801V1.47998H125.772ZM125.772 30.136C125.772 30.7781 125.925 31.3946 126.219 31.9752L128.034 31.0808C127.874 30.7654 127.801 30.4539 127.801 30.136H125.772ZM126.263 32.0521C126.781 32.8828 127.691 33.152 128.588 33.152V31.152C128.324 31.152 128.171 31.1127 128.09 31.0784C128.023 31.0499 128.003 31.0247 127.99 31.0039L126.263 32.0521ZM128.588 33.152H129.367V31.152H128.588V33.152ZM128.352 32.152V37.24H130.381V32.152H128.352ZM129.367 36.24H128.003V38.24H129.367V36.24ZM128.003 36.24C126.261 36.24 125.096 35.9048 124.367 35.3776L123.167 36.9904C124.385 37.8712 126.045 38.24 128.003 38.24V36.24ZM124.367 35.3776C123.553 34.7885 122.999 34.0552 122.679 33.1632L120.766 33.8288C121.226 35.1128 122.035 36.1715 123.167 36.9904L124.367 35.3776ZM122.687 33.1882C122.364 32.2004 122.202 31.1843 122.202 30.136H120.173C120.173 31.3917 120.368 32.6156 120.757 33.8038L122.687 33.1882ZM145.266 37H144.251V38H145.266V37ZM145.266 4.35998V3.35998H144.251V4.35998H145.266ZM161.186 5.41598L160.733 6.31044L160.741 6.31436L161.186 5.41598ZM164.302 8.39198L163.385 8.82108L163.39 8.83018L163.394 8.83918L164.302 8.39198ZM161.965 20.056L161.432 19.2052L159.712 20.2524L161.592 20.9858L161.965 20.056ZM165.763 32.824L166.675 33.2624L166.679 33.2539L165.763 32.824ZM151.108 9.63998V8.63998H150.094V9.63998H151.108ZM151.108 17.8H150.094V18.8H151.108V17.8ZM158.265 16.936L158.944 17.6793L158.946 17.6775L158.265 16.936ZM158.265 10.504L157.587 11.2473L157.596 11.2554L157.605 11.2633L158.265 10.504ZM151.108 23.08V22.08H150.094V23.08H151.108ZM151.108 31.72H150.094V32.72H151.108V31.72ZM159.677 24.04L158.994 24.7799L159.003 24.7885L159.014 24.7968L159.677 24.04ZM146.28 37V4.35998H144.251V37H146.28ZM145.266 5.35998H155.344V3.35998H145.266V5.35998ZM155.344 5.35998C157.731 5.35998 159.502 5.70348 160.733 6.31044L161.64 4.52155C160.015 3.7205 157.89 3.35998 155.344 3.35998V5.35998ZM160.741 6.31436C162.023 6.9327 162.88 7.77208 163.385 8.82108L165.218 7.96288C164.49 6.45187 163.27 5.30726 161.632 4.51759L160.741 6.31436ZM163.394 8.83918C163.96 9.95448 164.262 11.2994 164.262 12.904H166.29C166.29 11.0526 165.942 9.38948 165.209 7.94478L163.394 8.83918ZM164.262 12.904V14.248H166.29V12.904H164.262ZM164.262 14.248C164.262 16.4244 163.345 18.0408 161.432 19.2052L162.498 20.9068C165 19.3832 166.29 17.1276 166.29 14.248H164.262ZM161.592 20.9858C162.998 21.5344 164.008 22.3033 164.686 23.2664L166.352 22.1256C165.408 20.7847 164.049 19.7936 162.339 19.1262L161.592 20.9858ZM164.686 23.2664C165.363 24.2281 165.722 25.3982 165.722 26.824H167.751C167.751 25.0498 167.297 23.4679 166.352 22.1256L164.686 23.2664ZM165.722 26.824V28.168H167.751V26.824H165.722ZM165.722 28.168C165.722 29.8061 165.42 31.2067 164.847 32.3941L166.679 33.2539C167.403 31.7533 167.751 30.0499 167.751 28.168H165.722ZM164.851 32.3856C164.311 33.4752 163.416 34.3507 162.096 35.0016L163.003 36.7904C164.668 35.9693 165.915 34.7968 166.675 33.2624L164.851 32.3856ZM162.096 35.0016C160.796 35.6422 158.974 36 156.561 36V38C159.145 38 161.316 37.6218 163.003 36.7904L162.096 35.0016ZM156.561 36H145.266V38H156.561V36ZM155.344 8.63998H151.108V10.64H155.344V8.63998ZM150.094 9.63998V17.8H152.122V9.63998H150.094ZM151.108 18.8H155.344V16.8H151.108V18.8ZM155.344 18.8C156.773 18.8 158.035 18.4851 158.944 17.6793L157.587 16.1927C157.196 16.5389 156.51 16.8 155.344 16.8V18.8ZM158.946 17.6775C159.869 16.8543 160.302 15.7539 160.302 14.488H158.273C158.273 15.2701 158.025 15.8017 157.584 16.1945L158.946 17.6775ZM160.302 14.488V12.904H158.273V14.488H160.302ZM160.302 12.904C160.302 11.639 159.868 10.5415 158.925 9.74468L157.605 11.2633C158.025 11.6185 158.273 12.121 158.273 12.904H160.302ZM158.944 9.76068C158.035 8.95488 156.773 8.63998 155.344 8.63998V10.64C156.51 10.64 157.196 10.9011 157.587 11.2473L158.944 9.76068ZM156.561 22.08H151.108V24.08H156.561V22.08ZM150.094 23.08V31.72H152.122V23.08H150.094ZM151.108 32.72H156.561V30.72H151.108V32.72ZM156.561 32.72C158.072 32.72 159.394 32.3653 160.359 31.4999L158.994 30.0201C158.532 30.4347 157.775 30.72 156.561 30.72V32.72ZM160.359 31.4999C161.316 30.6423 161.762 29.4931 161.762 28.168H159.734C159.734 29.0189 159.466 29.5976 158.994 30.0201L160.359 31.4999ZM161.762 28.168V26.584H159.734V28.168H161.762ZM161.762 26.584C161.762 25.2599 161.315 24.1141 160.339 23.2832L159.014 24.7968C159.466 25.1819 159.734 25.7321 159.734 26.584H161.762ZM160.359 23.3001C159.394 22.4347 158.072 22.08 156.561 22.08V24.08C157.775 24.08 158.532 24.3653 158.994 24.7799L160.359 23.3001ZM172.869 1.47998V0.47998H171.855V1.47998H172.869ZM178.468 1.47998H179.482V0.47998H178.468V1.47998ZM178.809 31.528L177.901 31.9752L177.921 32.0146L177.945 32.0521L178.809 31.528ZM181.048 32.152H182.063V31.152H181.048V32.152ZM181.048 37.24V38.24H182.063V37.24H181.048ZM173.405 33.496L172.439 33.8038L172.443 33.8164L172.448 33.8288L173.405 33.496ZM173.883 30.136V1.47998H171.855V30.136H173.883ZM172.869 2.47998H178.468V0.47998H172.869V2.47998ZM177.454 1.47998V30.136H179.482V1.47998H177.454ZM177.454 30.136C177.454 30.7781 177.607 31.3946 177.901 31.9752L179.716 31.0808C179.556 30.7654 179.482 30.4539 179.482 30.136H177.454ZM177.945 32.0521C178.463 32.8828 179.373 33.152 180.269 33.152V31.152C180.006 31.152 179.852 31.1127 179.771 31.0784C179.705 31.0499 179.685 31.0247 179.673 31.0039L177.945 32.0521ZM180.269 33.152H181.048V31.152H180.269V33.152ZM180.034 32.152V37.24H182.063V32.152H180.034ZM181.048 36.24H179.685V38.24H181.048V36.24ZM179.685 36.24C177.943 36.24 176.778 35.9048 176.049 35.3776L174.85 36.9904C176.068 37.8712 177.727 38.24 179.685 38.24V36.24ZM176.049 35.3776C175.234 34.7885 174.681 34.0552 174.361 33.1632L172.448 33.8288C172.908 35.1128 173.717 36.1715 174.85 36.9904L176.049 35.3776ZM174.369 33.1882C174.046 32.2004 173.883 31.1843 173.883 30.136H171.855C171.855 31.3917 172.049 32.6156 172.439 33.8038L174.369 33.1882ZM187.834 15.256L187.082 14.5845L187.081 14.5851L187.834 15.256ZM203.852 15.256L203.094 15.9211L203.099 15.9272L203.105 15.9333L203.852 15.256ZM199.616 18.808L198.813 19.4189L198.821 19.4299L199.616 18.808ZM192.118 18.808L192.913 19.4299L192.921 19.4188L192.118 18.808ZM205.661 23.368V26.248H207.69V23.368H205.661ZM205.661 26.248C205.661 29.4508 204.777 31.9119 203.1 33.7365L204.602 35.0795C206.691 32.8081 207.69 29.8292 207.69 26.248H205.661ZM203.1 33.7365C201.452 35.529 199.091 36.48 195.867 36.48V38.48C199.524 38.48 202.486 37.383 204.602 35.0795L203.1 33.7365ZM195.867 36.48C192.643 36.48 190.281 35.529 188.633 33.7365L187.131 35.0795C189.248 37.383 192.21 38.48 195.867 38.48V36.48ZM188.633 33.7365C186.957 31.9119 186.073 29.4508 186.073 26.248H184.045C184.045 29.8292 185.043 32.8081 187.131 35.0795L188.633 33.7365ZM186.073 26.248V23.368H184.045V26.248H186.073ZM186.073 23.368C186.073 20.16 186.943 17.7166 188.586 15.9269L187.081 14.5851C185.023 16.8274 184.045 19.792 184.045 23.368H186.073ZM188.585 15.9275C190.231 14.137 192.606 13.184 195.867 13.184V11.184C192.181 11.184 189.201 12.279 187.082 14.5845L188.585 15.9275ZM195.867 13.184C199.128 13.184 201.482 14.1372 203.094 15.9211L204.608 14.5909C202.52 12.2788 199.551 11.184 195.867 11.184V13.184ZM203.105 15.9333C204.777 17.7234 205.661 20.1645 205.661 23.368H207.69C207.69 19.7875 206.691 16.8206 204.597 14.5787L203.105 15.9333ZM201.945 23.368C201.945 21.2799 201.476 19.5104 200.41 18.1861L198.821 19.4299C199.508 20.2816 199.916 21.5521 199.916 23.368H201.945ZM200.418 18.1972C199.323 16.7973 197.757 16.128 195.867 16.128V18.128C197.222 18.128 198.156 18.5788 198.813 19.4189L200.418 18.1972ZM195.867 16.128C193.977 16.128 192.411 16.7973 191.315 18.1972L192.921 19.4188C193.578 18.5787 194.511 18.128 195.867 18.128V16.128ZM191.323 18.1861C190.257 19.5104 189.79 21.2799 189.79 23.368H191.818C191.818 21.5521 192.226 20.2816 192.913 19.4299L191.323 18.1861ZM189.79 23.368V26.248H191.818V23.368H189.79ZM189.79 26.248C189.79 28.3384 190.258 30.116 191.315 31.4668L192.921 30.2452C192.225 29.356 191.818 28.0616 191.818 26.248H189.79ZM191.315 31.4668C192.411 32.8667 193.977 33.536 195.867 33.536V31.536C194.511 31.536 193.578 31.0853 192.921 30.2452L191.315 31.4668ZM195.867 33.536C197.757 33.536 199.323 32.8667 200.418 31.4668L198.813 30.2452C198.156 31.0853 197.222 31.536 195.867 31.536V33.536ZM200.418 31.4668C201.475 30.116 201.945 28.3384 201.945 26.248H199.916C199.916 28.0616 199.509 29.356 198.813 30.2452L200.418 31.4668ZM201.945 26.248V23.368H199.916V26.248H201.945ZM230.334 45.496L229.751 44.678L229.743 44.6831L229.736 44.6884L230.334 45.496ZM211.006 45.208L210.052 44.8671L209.758 45.6655L210.51 46.0805L211.006 45.208ZM212.612 40.84L213.066 39.9456L212.047 39.4433L211.659 40.4991L212.612 40.84ZM217.238 42.472L217.469 41.4983L217.459 41.496L217.449 41.4939L217.238 42.472ZM213.683 35.224L212.79 35.6981L212.794 35.7054L212.798 35.7126L213.683 35.224ZM213.586 30.04L212.678 29.5928L212.675 29.6L212.671 29.6073L213.586 30.04ZM215.29 27.736L216.007 28.4431L216.918 27.545L215.819 26.8827L215.29 27.736ZM212.466 24.904L211.584 25.3976L211.589 25.4064L211.594 25.4151L212.466 24.904ZM215.972 13.144L216.381 14.0587L216.392 14.0544L215.972 13.144ZM223.421 12.328L223.263 13.3158L223.288 13.3198L223.314 13.3225L223.421 12.328ZM225.173 12.664L224.887 13.6234L225.027 13.664H225.173V12.664ZM233.986 12.664H235V11.664H233.986V12.664ZM233.986 17.368L233.825 18.3554L235 18.5407V17.368H233.986ZM229.117 16.6L229.277 15.6126L226.348 15.1505L228.377 17.2839L229.117 16.6ZM230.237 18.52L229.274 18.8362L229.282 18.8605L229.293 18.8844L230.237 18.52ZM229.409 25.48L228.579 24.905L228.576 24.9096L229.409 25.48ZM226.098 28.168L226.516 29.0792L226.527 29.0747L226.098 28.168ZM218.844 28.936L219.011 27.9496L218.468 27.8604L218.097 28.2603L218.844 28.936ZM218.065 30.136L219.001 30.5206L219.007 30.5079L219.012 30.495L218.065 30.136ZM231.357 34.648L230.696 35.4073L230.706 35.4155L230.717 35.4236L231.357 34.648ZM224.151 23.56L223.483 22.8074L223.475 22.8144L223.467 22.8215L224.151 23.56ZM224.151 17.704L223.467 18.4425L223.475 18.4496L223.483 18.4566L224.151 17.704ZM217.968 17.704L217.299 16.9514L217.291 16.9584L217.284 16.9655L217.968 17.704ZM217.968 23.56L217.284 24.2985L217.291 24.3056L217.299 24.3126L217.968 23.56ZM232.436 39.448C232.436 41.7281 231.546 43.433 229.751 44.678L230.917 46.314C233.276 44.679 234.464 42.3519 234.464 39.448H232.436ZM229.736 44.6884C227.927 45.9905 225.31 46.704 221.765 46.704V48.704C225.556 48.704 228.652 47.9455 230.933 46.3036L229.736 44.6884ZM221.765 46.704C220.121 46.704 218.372 46.5205 216.514 46.1481L216.111 48.1079C218.082 48.5035 219.969 48.704 221.765 48.704V46.704ZM216.514 46.1481C214.697 45.7836 213.028 45.1784 211.501 44.3355L210.51 46.0805C212.229 47.0296 214.097 47.7044 216.111 48.1079L216.514 46.1481ZM211.959 45.5489L213.566 41.1809L211.659 40.4991L210.052 44.8671L211.959 45.5489ZM212.159 41.7344C213.785 42.536 215.408 43.1105 217.027 43.4501L217.449 41.4939C216.016 41.1935 214.556 40.68 213.066 39.9456L212.159 41.7344ZM217.006 43.4457C218.602 43.8139 220.173 44 221.717 44V42C220.339 42 218.923 41.8341 217.469 41.4983L217.006 43.4457ZM221.717 44C223.824 44 225.573 43.7242 226.855 43.073L225.926 41.295C225.066 41.7318 223.698 42 221.717 42V44ZM226.855 43.073C228.135 42.4226 229.012 41.418 229.012 40.024H226.983C226.983 40.422 226.787 40.8574 225.926 41.295L226.855 43.073ZM229.012 40.024C229.012 39.1329 228.736 38.2975 228.03 37.7115C227.358 37.153 226.46 36.96 225.514 36.96V38.96C226.223 38.96 226.567 39.111 226.722 39.2405C226.845 39.3425 226.983 39.5391 226.983 40.024H229.012ZM225.514 36.96H219.672V38.96H225.514V36.96ZM219.672 36.96C218.179 36.96 217.079 36.7178 216.302 36.3096L215.348 38.0744C216.519 38.6902 217.983 38.96 219.672 38.96V36.96ZM216.302 36.3096C215.468 35.8707 214.912 35.3394 214.568 34.7354L212.798 35.7126C213.364 36.7086 214.235 37.4893 215.348 38.0744L216.302 36.3096ZM214.576 34.7499C214.197 34.0554 214.016 33.3534 214.016 32.632H211.988C211.988 33.7026 212.26 34.7286 212.79 35.6981L214.576 34.7499ZM214.016 32.632C214.016 31.8468 214.179 31.1315 214.5 30.4727L212.671 29.6073C212.214 30.5485 211.988 31.5612 211.988 32.632H214.016ZM214.493 30.4872C214.863 29.7579 215.365 29.0765 216.007 28.4431L214.573 27.0289C213.787 27.8035 213.153 28.6581 212.678 29.5928L214.493 30.4872ZM215.819 26.8827C214.794 26.2654 213.969 25.44 213.338 24.3929L211.594 25.4151C212.391 26.736 213.449 27.7986 214.761 28.5893L215.819 26.8827ZM213.349 24.4104C212.771 23.407 212.458 22.1612 212.458 20.632H210.43C210.43 22.4308 210.799 24.033 211.584 25.3976L213.349 24.4104ZM212.458 20.632C212.458 18.8834 212.833 17.5159 213.515 16.4677L211.807 15.3883C210.866 16.8361 210.43 18.6046 210.43 20.632H212.458ZM213.515 16.4677C214.217 15.3875 215.165 14.5886 216.381 14.0587L215.562 12.2293C213.987 12.9154 212.728 13.9725 211.807 15.3883L213.515 16.4677ZM216.392 14.0544C217.676 13.4789 219.105 13.184 220.694 13.184V11.184C218.843 11.184 217.124 11.5291 215.552 12.2336L216.392 14.0544ZM220.694 13.184H221.522V11.184H220.694V13.184ZM221.522 13.184C222.12 13.184 222.701 13.2282 223.263 13.3158L223.579 11.3402C222.908 11.2358 222.222 11.184 221.522 11.184V13.184ZM223.314 13.3225C223.875 13.3807 224.399 13.4817 224.887 13.6234L225.459 11.7046C224.845 11.5263 224.2 11.4033 223.527 11.3335L223.314 13.3225ZM225.173 13.664H233.986V11.664H225.173V13.664ZM232.971 12.664V17.368H235V12.664H232.971ZM234.146 16.3806L229.277 15.6126L228.957 17.5874L233.825 18.3554L234.146 16.3806ZM228.377 17.2839C228.75 17.6756 229.054 18.1842 229.274 18.8362L231.199 18.2038C230.9 17.3198 230.458 16.5484 229.856 15.9161L228.377 17.2839ZM229.293 18.8844C229.525 19.4695 229.661 20.2489 229.661 21.256H231.689C231.689 20.0871 231.533 19.0425 231.181 18.1556L229.293 18.8844ZM229.661 21.256C229.661 22.7096 229.288 23.9104 228.579 24.905L230.239 26.0549C231.218 24.6815 231.689 23.0664 231.689 21.256H229.661ZM228.576 24.9096C227.876 25.9042 226.917 26.6897 225.67 27.2613L226.527 29.0747C228.071 28.3663 229.32 27.3598 230.242 26.0504L228.576 24.9096ZM225.681 27.2569C224.464 27.7992 223.084 28.08 221.522 28.08V30.08C223.336 30.08 225.006 29.7529 226.516 29.0792L225.681 27.2569ZM221.522 28.08H220.694V30.08H221.522V28.08ZM220.694 28.08C220.096 28.08 219.535 28.0357 219.011 27.9496L218.677 29.9224C219.322 30.0283 219.994 30.08 220.694 30.08V28.08ZM218.097 28.2603C217.668 28.7213 217.333 29.2261 217.119 29.777L219.012 30.495C219.121 30.2139 219.307 29.9187 219.592 29.6117L218.097 28.2603ZM217.129 29.7514C216.924 30.2355 216.808 30.7343 216.808 31.24H218.836C218.836 31.0417 218.882 30.8045 219.001 30.5206L217.129 29.7514ZM216.808 31.24C216.808 32.0306 217.078 32.7767 217.747 33.2894C218.366 33.7649 219.179 33.92 220.013 33.92V31.92C219.386 31.92 219.102 31.7951 218.992 31.7106C218.93 31.6633 218.836 31.5694 218.836 31.24H216.808ZM220.013 33.92H225.952V31.92H220.013V33.92ZM225.952 33.92C228.011 33.92 229.559 34.4462 230.696 35.4073L232.017 33.8887C230.428 32.5458 228.373 31.92 225.952 31.92V33.92ZM230.717 35.4236C231.833 36.3199 232.436 37.611 232.436 39.448H234.464C234.464 37.125 233.671 35.2161 231.997 33.8724L230.717 35.4236ZM221.522 25.568C222.783 25.568 223.903 25.1379 224.835 24.2985L223.467 22.8215C222.906 23.3261 222.274 23.568 221.522 23.568V25.568ZM224.818 24.3126C225.872 23.4042 226.334 22.1213 226.334 20.632H224.305C224.305 21.7027 223.988 22.3718 223.483 22.8074L224.818 24.3126ZM226.334 20.632C226.334 19.1427 225.872 17.8598 224.818 16.9514L223.483 18.4566C223.988 18.8922 224.305 19.5613 224.305 20.632H226.334ZM224.835 16.9655C223.903 16.1261 222.783 15.696 221.522 15.696V17.696C222.274 17.696 222.906 17.9379 223.467 18.4425L224.835 16.9655ZM221.522 15.696H220.694V17.696H221.522V15.696ZM220.694 15.696C219.411 15.696 218.264 16.1193 217.299 16.9514L218.635 18.4566C219.229 17.9447 219.9 17.696 220.694 17.696V15.696ZM217.284 16.9655C216.271 17.8775 215.834 19.1559 215.834 20.632H217.862C217.862 19.5481 218.172 18.8745 218.652 18.4425L217.284 16.9655ZM215.834 20.632C215.834 22.1081 216.271 23.3865 217.284 24.2985L218.652 22.8215C218.172 22.3895 217.862 21.7159 217.862 20.632H215.834ZM217.299 24.3126C218.264 25.1447 219.411 25.568 220.694 25.568V23.568C219.9 23.568 219.229 23.3193 218.635 22.8074L217.299 24.3126ZM220.694 25.568H221.522V23.568H220.694V25.568Z" fill="#059669"/>
</g>
<defs>
<filter id="filter0_i_125_4" x="0.952148" y="0.47998" width="234.048" height="48.224" filterUnits="userSpaceOnUse" color-interpolation-filters="sRGB">
<feFlood flood-opacity="0" result="BackgroundImageFix"/>
<feBlend mode="normal" in="SourceGraphic" in2="BackgroundImageFix" result="shape"/>
<feColorMatrix in="SourceAlpha" type="matrix" values="0 0 0 0 0 0 0 0 0 0 0 0 0 0 0 0 0 0 127 0" result="hardAlpha"/>
<feOffset/>
<feGaussianBlur stdDeviation="2"/>
<feComposite in2="hardAlpha" operator="arithmetic" k2="-1" k3="1"/>
<feColorMatrix type="matrix" values="0 0 0 0 0 0 0 0 0 0 0 0 0 0 0 0 0 0 1 0"/>
<feBlend mode="normal" in2="shape" result="effect1_innerShadow_125_4"/>
</filter>
</defs>
</svg>
